<?xml version="1.0" encoding="utf-8"?>
<!-- Generator: Adobe Illustrator 23.0.1, SVG Export Plug-In . SVG Version: 6.00 Build 0)  -->
<svg version="1.1" xmlns="http://www.w3.org/2000/svg" xmlns:xlink="http://www.w3.org/1999/xlink" x="0px" y="0px"
	 viewBox="0 0 511.7 660.8" style="enable-background:new 0 0 511.7 660.8;" xml:space="preserve">
<style type="text/css">
	.st0{fill:#FFFFFF;}
	.st1{fill:#1E1212;}
	.st2{fill:#584646;}
	.st3{opacity:0.25;}
	.st4{fill:#F6ECC9;}
	.st5{fill:#B9B41A;}
	.st6{fill:#E03C57;}
	.st7{opacity:0.15;}
	.st8{fill:#DDAC5F;}
	.st9{fill:#E9CA70;}
	.st10{opacity:0.4;}
	.st11{fill:#FECE60;}
	.st12{fill:#2EA83B;}
	.st13{fill:#A43256;}
	.st14{fill:#8A2C44;}
	.st15{fill:#E1E9F4;}
	.st16{fill:#B6405A;}
	.st17{opacity:0.35;}
	.st18{fill:#A3B9CE;}
	.st19{fill:#DC7056;}
	.st20{opacity:0.5;}
	.st21{fill:#F9A35A;}
	.st22{fill:#DC7355;}
	.st23{fill:#C37C5C;}
</style>
<g id="background">
	<rect x="-2050.5" y="47.2" class="st0" width="2000" height="2000"/>
</g>
<g id="object">
	<g>
		<g>
			<path class="st1" d="M-991.4,1126.5c-51.2,0-99.4-4.6-135.7-12.9c-40.1-9.2-60.5-21.6-60.5-36.8V839.5c0-3.4,2.8-6.2,6.2-6.2
				h379.8c3.4,0,6.2,2.8,6.2,6.2v237.4c0,15.2-20.3,27.6-60.5,36.8C-892.1,1122-940.2,1126.5-991.4,1126.5z M-1175.1,845.7v231.1
				c0,4.8,10.7,15.5,50.8,24.6c35.4,8.1,82.6,12.6,132.9,12.6c50.3,0,97.5-4.5,132.9-12.6c40.1-9.2,50.8-19.8,50.8-24.6V845.7
				H-1175.1z"/>
		</g>
		<g>
			<path class="st2" d="M-801.5,839.5v237.4c0,24-85,43.5-189.9,43.5c-104.9,0-189.9-19.5-189.9-43.5V839.5H-801.5z"/>
		</g>
		<g class="st3">
			<path d="M-801.5,839.5v237.4c0,24-85,43.5-189.9,43.5c-104.9,0-189.9-19.5-189.9-43.5v-8.2c34.8,9.9,88.3,16.3,148.2,16.3
				c104.9,0,189.9-19.5,189.9-43.5v-202H-801.5z"/>
		</g>
		<g>
			<path class="st1" d="M-991.4,889.2c-51.2,0-99.4-4.6-135.7-12.9c-40.1-9.2-60.5-21.6-60.5-36.8c0-15.2,20.3-27.6,60.5-36.8
				c36.3-8.3,84.5-12.9,135.7-12.9c51.2,0,99.4,4.6,135.7,12.9c40.1,9.2,60.5,21.6,60.5,36.8c0,15.2-20.3,27.6-60.5,36.8
				C-892.1,884.6-940.2,889.2-991.4,889.2z M-991.4,802.3c-50.3,0-97.5,4.5-132.9,12.6c-40.1,9.2-50.8,19.8-50.8,24.6
				s10.7,15.5,50.8,24.6c35.4,8.1,82.6,12.6,132.9,12.6c50.3,0,97.5-4.5,132.9-12.6c40.1-9.2,50.8-19.8,50.8-24.6
				s-10.7-15.5-50.8-24.6C-894,806.7-941.1,802.3-991.4,802.3z"/>
		</g>
		<g>
			<ellipse class="st4" cx="-991.4" cy="839.5" rx="189.9" ry="43.4"/>
		</g>
		<g class="st3">
			<path d="M-801.5,839.5c0,8.1-9.6,15.6-26.3,22.1c0.1-0.6,0.2-1.2,0.2-1.7c0-24-85-43.4-189.9-43.4c-69.6,0-130.5,8.6-163.6,21.4
				c4-23.2,87.4-41.7,189.7-41.7C-886.5,796-801.5,815.5-801.5,839.5z"/>
		</g>
		<g>
			<path class="st1" d="M-991.4,866.1c-3.7,0-7.5-0.2-11.1-0.5c-26.5-2.5-43.7-12.7-43.7-26.1c0-17.4,27.6-26.6,54.8-26.6
				c3.1,0,6.3,0.1,9.4,0.4c0,0,0.1,0,0.1,0c27.1,2.1,45.3,12.6,45.3,26.2C-936.6,856.9-964.2,866.1-991.4,866.1z M-991.4,825.4
				c-27.4,0-42.4,9.3-42.4,14.1c0,4.4,11.5,11.7,32.4,13.6c3.3,0.3,6.7,0.5,10,0.5c27.4,0,42.3-9.3,42.3-14.1c0-4-11.3-12-33.7-13.7
				c0,0-0.1,0-0.1,0C-985.7,825.5-988.6,825.4-991.4,825.4z"/>
		</g>
		<g>
			<path class="st5" d="M-942.8,839.5c0,1.7-0.5,3.4-1.5,5c-5.3,8.8-24.4,15.4-47.1,15.4c-3.6,0-7.2-0.2-10.6-0.5
				c-19.9-1.8-35.1-8.8-37.7-17.3c-0.3-0.8-0.4-1.7-0.4-2.5c0-11.2,21.8-20.3,48.6-20.3c3.1,0,6.1,0.1,9,0.4h0
				C-959.9,821.3-942.8,829.6-942.8,839.5z"/>
		</g>
		<g>
			<path class="st6" d="M-942.8,839.5c0,11.2-21.8,20.3-48.6,20.3c-3.6,0-7.2-0.2-10.6-0.5l19.6-39.8h0
				C-959.9,821.3-942.8,829.6-942.8,839.5z"/>
		</g>
		<g class="st7">
			<path class="st0" d="M-1159.9,907.6v121.4c0,6.9,5,12.7,11.8,13.7c24.9,3.7,85.4,11.2,148.1,7c7.2-0.5,12.9-6.6,12.9-13.8V922.3
				c0-7.6-6.2-13.8-13.8-13.8c-26.6,0-86.9-1.6-141.8-14.3C-1151.6,892.2-1159.9,898.7-1159.9,907.6z"/>
		</g>
		<g class="st3">
			<path d="M-942.8,839.5c0,1.7-0.5,3.4-1.5,5c-33.4-14.2-74-16.3-95.3-2.5c-0.3-0.8-0.4-1.7-0.4-2.5c0-11.2,21.8-20.3,48.6-20.3
				c3.1,0,6.1,0.1,9,0.4h0C-959.9,821.3-942.8,829.6-942.8,839.5z"/>
		</g>
	</g>
	<g>
		<g>
			<path class="st1" d="M-1164.4,1220.1c-51.2,0-99.4-4.6-135.7-12.9c-40.1-9.2-60.5-21.6-60.5-36.8V933c0-3.4,2.8-6.2,6.2-6.2
				h379.8c3.4,0,6.2,2.8,6.2,6.2v237.4c0,15.2-20.3,27.6-60.5,36.8C-1065,1215.5-1113.2,1220.1-1164.4,1220.1z M-1348,939.3v231.1
				c0,4.8,10.7,15.5,50.8,24.6c35.4,8.1,82.6,12.6,132.9,12.6c50.3,0,97.5-4.5,132.9-12.6c40.1-9.2,50.8-19.8,50.8-24.6V939.3H-1348
				z"/>
		</g>
		<g>
			<path class="st2" d="M-974.5,933v237.4c0,24-85,43.5-189.9,43.5c-104.9,0-189.9-19.5-189.9-43.5V933H-974.5z"/>
		</g>
		<g class="st3">
			<path d="M-974.5,933v237.4c0,24-85,43.5-189.9,43.5c-104.9,0-189.9-19.5-189.9-43.5v-8.2c34.8,9.9,88.3,16.3,148.2,16.3
				c104.9,0,189.9-19.5,189.9-43.5V933H-974.5z"/>
		</g>
		<g>
			<path class="st1" d="M-1164.4,982.7c-51.2,0-99.4-4.6-135.7-12.9c-40.1-9.2-60.5-21.6-60.5-36.8c0-15.2,20.3-27.6,60.5-36.8
				c36.3-8.3,84.5-12.9,135.7-12.9c51.2,0,99.4,4.6,135.7,12.9c40.1,9.2,60.5,21.6,60.5,36.8c0,15.2-20.3,27.6-60.5,36.8
				C-1065,978.2-1113.2,982.7-1164.4,982.7z M-1164.4,895.8c-50.3,0-97.5,4.5-132.9,12.6c-40.1,9.2-50.8,19.8-50.8,24.6
				c0,4.8,10.7,15.5,50.8,24.6c35.4,8.1,82.6,12.6,132.9,12.6c50.3,0,97.5-4.5,132.9-12.6c40.1-9.2,50.8-19.8,50.8-24.6
				c0-4.8-10.7-15.5-50.8-24.6C-1066.9,900.3-1114.1,895.8-1164.4,895.8z"/>
		</g>
		<g>
			<ellipse class="st4" cx="-1164.4" cy="933" rx="189.9" ry="43.4"/>
		</g>
		<g class="st3">
			<path d="M-974.5,933c0,8.1-9.6,15.6-26.3,22.1c0.1-0.6,0.2-1.2,0.2-1.7c0-24-85-43.4-189.9-43.4c-69.6,0-130.5,8.6-163.6,21.4
				c4-23.2,87.4-41.7,189.7-41.7C-1059.5,889.6-974.5,909.1-974.5,933z"/>
		</g>
		<g>
			<path class="st1" d="M-1164.4,959.6c-3.7,0-7.5-0.2-11.1-0.5c-26.5-2.5-43.7-12.7-43.7-26.1c0-17.4,27.6-26.6,54.8-26.6
				c3.1,0,6.3,0.1,9.4,0.4c0,0,0.1,0,0.1,0c27.1,2.1,45.3,12.6,45.3,26.2C-1109.5,950.5-1137.1,959.6-1164.4,959.6z M-1164.4,918.9
				c-27.4,0-42.4,9.3-42.4,14.1c0,4.4,11.5,11.7,32.4,13.6c3.3,0.3,6.7,0.5,10,0.5c27.4,0,42.3-9.3,42.3-14.1c0-4-11.3-12-33.7-13.7
				c0,0-0.1,0-0.1,0C-1158.7,919.1-1161.5,918.9-1164.4,918.9z"/>
		</g>
		<g>
			<path class="st5" d="M-1115.8,933c0,1.7-0.5,3.4-1.5,5c-5.3,8.8-24.4,15.4-47.1,15.4c-3.6,0-7.2-0.2-10.6-0.5
				c-19.9-1.8-35.1-8.8-37.7-17.3c-0.3-0.8-0.4-1.7-0.4-2.5c0-11.2,21.8-20.3,48.6-20.3c3.1,0,6.1,0.1,9,0.4h0
				C-1132.8,914.8-1115.8,923.1-1115.8,933z"/>
		</g>
		<g>
			<path class="st6" d="M-1115.8,933c0,11.2-21.8,20.3-48.6,20.3c-3.6,0-7.2-0.2-10.6-0.5l19.6-39.8h0
				C-1132.8,914.8-1115.8,923.1-1115.8,933z"/>
		</g>
		<g class="st7">
			<path class="st0" d="M-1332.9,1001.2v121.4c0,6.9,5,12.7,11.8,13.7c24.9,3.7,85.4,11.2,148.1,7c7.2-0.5,12.9-6.6,12.9-13.8
				v-113.7c0-7.6-6.2-13.8-13.8-13.8c-26.6,0-86.9-1.6-141.8-14.3C-1324.5,985.7-1332.9,992.2-1332.9,1001.2z"/>
		</g>
		<g class="st3">
			<path d="M-1115.8,933c0,1.7-0.5,3.4-1.5,5c-33.4-14.2-74-16.3-95.3-2.5c-0.3-0.8-0.4-1.7-0.4-2.5c0-11.2,21.8-20.3,48.6-20.3
				c3.1,0,6.1,0.1,9,0.4h0C-1132.8,914.8-1115.8,923.1-1115.8,933z"/>
		</g>
	</g>
	<g>
		<g>
			<path class="st8" d="M-1367.2,527c-7-3.5-14.2-6.8-21.6-9.9c1.5-9.8,5.8-13.3,12.2-13.1c7.9,0.3,9.2,6.7,9.1,13
				C-1367.6,520-1367.9,523.5-1367.2,527z"/>
		</g>
		<g>
			<path class="st8" d="M-1552.6,470.4c-0.1,0.8-0.2,1.6-0.2,2.4c-40.5-7.7-100.5-17.6-150.6-23.8c1-4.9,1.3-9.7,1.7-13.7
				c1.1-13.8,7.1-19.1,12.6-19.1c5.5,0.1,8.7,13,17.7,14.1c9,1.1,13.9-8.4,21.8-7.3c7.9,1,10,10.3,17,13.3c7,3,15.5-4.3,19.6-1.7
				c4.1,2.6-0.3,12.4,3.2,15.7c3.6,3.3,13.3,4.1,21.4-3.2c8.1-7.3,18.1-11.6,28.9-7.1C-1548.8,444.6-1550.8,456.5-1552.6,470.4z"/>
		</g>
		<g>
			<path class="st8" d="M-1432.8,501.5c-28.3-8.6-56.6-15.1-80.4-20.4c0.1-0.2,0.1-0.3,0.2-0.5c3.6-9.5,10.4-18,18.5-23.4
				c8.1-5.4,19.8-0.9,21,4.6c1.2,5.5,0.5,12.2,8.5,15.7c8,3.6,18.4-5.2,26.1,0.1C-1432.9,481.8-1431.7,487.1-1432.8,501.5z"/>
		</g>
		<g>
			<path class="st9" d="M-1453.2,269.2c-0.6,0-1.3,0.1-2,0.2c-6.5,0.5-13.5,1.4-20.8,2.4c-57.4,8.3-134.5,31.1-177.8,49.4
				c-49.3,20.9-149,71.4-166.4,83.7c-5.2,3.7-10,7.3-14.6,10.5c-0.6,0.1-1,0.3-1.1,0.3c7.5-6.6,8.8-14.5,6.9-24.3
				c-2.4-12.1-14.5-35.1-42.2-40c-27.6-4.9-51.1,8.4-57.7,23.6h0c4.1-10.4,12.7-20.3,25.9-28.5c34.2-21.3,157.3-70.6,231.6-94.7
				c60-19.4,108.4-28.6,138.9-30.1c7.3-0.4,13.6-0.3,18.8,0.2c26.7,2.5,57.2,16.9,60.5,46.7C-1453.3,268.8-1453.3,269-1453.2,269.2z
				"/>
		</g>
		<g class="st10">
			<path class="st0" d="M-1453.3,268.6c-0.6,0.3-1.3,0.5-1.9,0.8c-10.8,4.3-19.2,6.2-19.2,6.2c-0.5-1.3-1.1-2.5-1.6-3.7
				c-10.2-22.1-28.8-39.5-56.5-50.1c7.3-0.4,13.6-0.3,18.8,0.2C-1487.1,224.5-1456.7,238.8-1453.3,268.6z"/>
		</g>
		<g>
			<path class="st1" d="M-1836,418.9c-1.2,0-2.3-0.7-2.8-1.8c-0.6-1.3-0.3-2.7,0.8-3.7c6.1-5.3,7.8-11.7,5.9-21.4
				c-2.2-10.9-13.3-32.9-39.7-37.5c-25.7-4.5-48.2,7.8-54.3,21.7c-0.5,1.1-1.6,1.9-2.9,1.9c-1,0-2-0.5-2.6-1.4
				c-0.6-0.9-0.7-1.9-0.3-2.9c4.4-11.4,13.8-21.7,27.1-30c35-21.8,159.1-71.3,232.3-95c79.4-25.7,134.2-32.4,158.9-30
				c27.2,2.6,60.1,17.2,63.4,50.1c0.1,0.8-0.2,1.7-0.7,2.3c-0.5,0.6-1.3,1-2.2,1.1c-56.5,4.3-148.8,30.2-199.7,51.7
				c-50.4,21.3-149.1,71.5-165.8,83.4c-2.3,1.6-4.5,3.3-6.7,4.9c-2.7,2-5.3,3.9-7.9,5.7c-0.3,0.2-0.7,0.4-1,0.5
				c-0.3,0.1-0.6,0.1-0.7,0.2c-0.3,0.1-0.5,0.1-0.6,0.1C-1835.7,418.9-1835.8,418.9-1836,418.9z M-1882.9,347.3
				c3.9,0,8,0.3,12.2,1.1c29.7,5.2,42.2,30,44.7,42.4c1.1,5.4,1.1,10.1,0.2,14.3c1.2-0.9,2.5-1.8,3.8-2.7c17-12,116.3-62.6,167-84
				c50.3-21.3,141-46.9,198.3-51.9c-4.7-26.9-33.4-39.1-57.3-41.4c-24.2-2.3-77.9,4.4-156.4,29.8c-72.9,23.6-196.3,72.7-231,94.4
				c-0.8,0.5-1.7,1.1-2.5,1.6C-1897.6,348.6-1890.5,347.3-1882.9,347.3z"/>
		</g>
		<g>
			<path class="st8" d="M-1784,442.2c-53.5-2-104.2-1.4-128.9-20c-17.4-13.1-22.6-30.7-16.2-47.2h0c6.6-15.1,30.1-28.4,57.7-23.6
				c27.6,4.9,39.7,27.8,42.2,40c2,9.8,0.6,17.7-6.9,24.3l0,0c-1.3,1.2-2.9,2.3-4.6,3.4c1.9-1.1,3.8-2.4,5.7-3.7
				c3.8-0.9,16.8-3.7,30.4-1.7C-1789.6,416-1785.5,426.1-1784,442.2z"/>
		</g>
		<g>
			<path class="st1" d="M-1864.4,429.6c-2.2,0-4.4-0.2-6.7-0.5c-12.6-1.7-23.6-9.5-28.7-20.3c-3.9-8.2-3.6-17,0.9-24.1
				c4.8-7.8,12.4-10.9,20.4-8.5c8,2.5,13.7,9.8,13.4,17.1c-0.1,1.7-1.5,3-3.3,3c-1.7-0.1-3.1-1.5-3-3.3c0.2-4.4-3.8-9.3-9-10.9
				c-3-0.9-8.8-1.4-13.3,5.8c-3.3,5.4-3.5,11.9-0.5,18.2c4.1,8.8,13.5,15.3,23.9,16.7c9.5,1.3,17.3-0.3,26.3-5.4
				c0.3-0.2,0.7-0.4,1-0.6c1.5-0.9,3.4-0.4,4.3,1.1c0.9,1.5,0.4,3.4-1.1,4.3c-0.4,0.2-0.8,0.5-1.2,0.7
				C-1848.9,427.4-1856.4,429.6-1864.4,429.6z"/>
		</g>
		<g>
			<path class="st1" d="M-1784,445.4c0,0-0.1,0-0.1,0c-5.8-0.2-11.6-0.4-17.4-0.6c-48.5-1.5-90.5-2.9-113.3-20.1
				c-17.9-13.5-24.4-32.5-17.2-50.8c0-0.1,0.1-0.2,0.2-0.4c7.3-16.4,32-30.2,61-25.1c29.7,5.2,42.2,30,44.7,42.4
				c1.6,8,1,14.6-2.1,20.2c6.2-0.9,15-1.6,24-0.3c18.1,2.7,21.8,16.6,23.2,31.3c0.1,0.9-0.2,1.8-0.8,2.4
				C-1782.3,445-1783.1,445.4-1784,445.4z M-1926.2,376.4c-6,15.7-0.5,31.5,15.2,43.3c21.2,16,64.2,17.4,109.7,18.8
				c4.6,0.1,9.2,0.3,13.8,0.5c-1.9-14.6-6.8-20.5-17.5-22.1c-12.4-1.9-24.5,0.5-28.6,1.5c-2,1.3-3.7,2.5-5.4,3.5
				c-1.5,0.9-3.4,0.4-4.3-1.1c-0.9-1.5-0.4-3.4,1-4.3c1.6-1,3-2,4.2-3.1c0,0,0,0,0.1-0.1c6.1-5.3,7.8-11.7,5.9-21.4
				c-2.2-10.9-13.3-32.9-39.7-37.5c-25.7-4.5-48.2,7.8-54.3,21.7C-1926.1,376.3-1926.2,376.4-1926.2,376.4z"/>
		</g>
		<g>
			<path class="st1" d="M-1552.8,475.9c-0.2,0-0.4,0-0.6-0.1c-35-6.7-95.4-16.9-150.4-23.8c-0.9-0.1-1.6-0.6-2.2-1.3
				c-0.5-0.7-0.7-1.6-0.5-2.5c0.9-4.2,1.2-8.4,1.5-12.1l0.1-1.3c1.3-16.3,9-22,15.7-21.9c4,0.1,6.6,3.5,9.2,6.8
				c2.6,3.3,5.2,6.8,8.9,7.3c3.5,0.4,6.3-1.3,9.6-3.4c3.4-2.2,7.3-4.6,12.3-4c5.6,0.7,8.8,4.5,11.6,7.9c1.9,2.3,3.8,4.5,6.2,5.6
				c2.7,1.2,6.2,0,9.5-1c3.6-1.2,7.4-2.4,10.6-0.4c3.7,2.3,3.4,7,3.3,10.7c-0.1,1.8-0.2,4.8,0.4,5.4c2.3,2.2,10.3,2.9,17.2-3.3
				c10.5-9.4,21.6-12.1,32.2-7.6c12.4,5.2,10.8,18.1,9.1,31.7l-0.2,1.9c-0.1,0.8-0.2,1.5-0.2,2.3c-0.1,0.9-0.5,1.7-1.2,2.2
				C-1551.5,475.7-1552.1,475.9-1552.8,475.9z M-1699.7,446.3c52.6,6.7,109.4,16.2,144.2,22.8l0.1-1c1.8-13.9,2.4-21.9-5.3-25.2
				c-8.3-3.5-16.9-1.3-25.6,6.5c-9.7,8.7-21.1,7.4-25.6,3.2c-2.8-2.6-2.6-6.7-2.4-10.2c0.1-1.4,0.2-4.8-0.4-5.1
				c-0.7-0.4-3.6,0.5-5.3,1.1c-4,1.3-9,2.9-13.8,0.8c-3.8-1.6-6.3-4.7-8.6-7.3c-2.7-3.3-4.6-5.3-7.6-5.7c-2.7-0.4-5.2,1.2-8.1,3.1
				c-3.7,2.3-7.9,5-13.7,4.3c-6.3-0.8-10.1-5.7-13.1-9.7c-1.3-1.7-3.4-4.4-4.3-4.4c0,0,0,0-0.1,0c-3.7,0-8.4,4.2-9.3,16.2l-0.1,1.2
				C-1699,439.7-1699.2,442.9-1699.7,446.3z"/>
		</g>
		<g>
			<path class="st1" d="M-1432.8,504.7c-0.3,0-0.6,0-0.9-0.1c-29.4-8.9-59.9-15.8-80.2-20.3c-0.9-0.2-1.6-0.8-2.1-1.5
				c-0.4-0.8-0.5-1.7-0.2-2.6l0.2-0.5c3.8-10,11-19.1,19.7-24.9c6-4,13.2-3.4,17.9-1.4c4.3,1.8,7.2,4.7,7.9,8
				c0.2,1.1,0.4,2.2,0.6,3.3c0.7,4.5,1.2,8,6.1,10.2c2.8,1.2,6.4,0.4,10.3-0.6c5.2-1.2,11.1-2.7,16.3,0.9c7.7,5.3,8.5,12.5,7.4,26.7
				c-0.1,0.9-0.6,1.8-1.4,2.3C-1431.6,504.5-1432.2,504.7-1432.8,504.7z M-1508.9,478.9c19.3,4.3,46.5,10.5,73.2,18.5
				c0.6-11.2-1-14.4-5-17.2c-3-2-6.9-1.1-11.4,0c-4.5,1.1-9.6,2.3-14.3,0.2c-8.1-3.6-9-10.2-9.8-15c-0.2-1-0.3-2-0.5-2.9
				c-0.2-1-1.6-2.5-4.2-3.5c-3.1-1.3-8.1-1.8-12.1,0.9C-1499.7,464.4-1505.4,471.3-1508.9,478.9z"/>
		</g>
		<g>
			<path class="st1" d="M-1367.2,530.1c-0.5,0-1-0.1-1.4-0.3c-6.7-3.4-13.9-6.7-21.4-9.8c-1.3-0.6-2.1-1.9-1.9-3.4
				c1.7-10.8,6.9-16.1,15.4-15.7c8.2,0.3,12.2,5.8,12.1,16.1c0,0.7,0,1.4-0.1,2.2c-0.1,2.4-0.2,4.8,0.3,7.2c0.2,1.2-0.2,2.4-1.2,3.1
				C-1365.9,529.9-1366.6,530.1-1367.2,530.1z M-1385.3,515.2c5,2.1,9.9,4.3,14.6,6.6c0-1,0-1.9,0.1-2.8c0-0.7,0.1-1.4,0.1-2
				c0.1-8-2.3-9.7-6.1-9.8C-1380.2,507-1383.6,507.9-1385.3,515.2z"/>
		</g>
		<g>
			<path class="st11" d="M-1279.6,518.6c-3.6,2.8-9.2,4.6-17.5,5.7c-26.5,3.5-31.1,5.5-37.1,11.3c-6.1,5.8-14.9,8-24.9,2.1
				c-5.2-3.1-7.3-6.9-8.1-10.7c-0.7-3.5-0.3-7-0.3-10c0.1-6.3-1.2-12.7-9.1-13c-6.4-0.2-10.7,3.3-12.2,13.1
				c-0.4,2.3-0.6,4.9-0.6,7.9c-0.2,15.9-3.5,34.3-23.8,32c-20.3-2.3-23.8-15.2-21-41c0.6-5.6,1.1-10.4,1.4-14.4
				c1.1-14.4-0.1-19.7-6.1-23.9c-7.7-5.3-18.1,3.5-26.1-0.1c-8-3.6-7.3-10.2-8.5-15.7c-1.2-5.5-13-10-21-4.6
				c-8.1,5.4-14.9,13.9-18.5,23.4c-0.1,0.2-0.1,0.3-0.2,0.5c-3.5,9.2-7.8,15.3-23,14.6c-14.6-0.7-17.7-10.2-16.6-22.9
				c0.1-0.8,0.1-1.6,0.2-2.4c1.7-13.9,3.8-25.8-7-30.4c-10.8-4.5-20.8-0.2-28.9,7.1c-8.1,7.3-17.9,6.5-21.4,3.2
				c-3.6-3.3,0.9-13.1-3.2-15.7c-4.1-2.6-12.6,4.7-19.6,1.7c-7-3-9.1-12.3-17-13.3c-7.9-1-12.8,8.5-21.8,7.3
				c-9-1.1-12.3-14-17.7-14.1c-5.5-0.1-11.4,5.3-12.6,19.1c-0.3,4.1-0.6,8.8-1.7,13.7c-2.4,11.7-9.1,23.7-30.5,26.6
				c-30.4,4.1-48.4-10.8-49.7-29.3c-0.1-1.4-0.2-2.8-0.3-4.1c-1.5-16.1-5.7-26.2-20.6-28.5c-13.6-2-26.6,0.8-30.4,1.7
				c4.6-3.2,9.4-6.8,14.6-10.5c17.4-12.3,117.1-62.8,166.4-83.7c43.1-18.2,119.8-40.9,177.1-49.3c8.3-1.2,16.2-2.1,23.6-2.7
				c51.6,23.4,89.7,61.5,124.3,112.9c33.8,50.3,48.1,77.4,52.7,102.5C-1273,501.9-1271.6,512.5-1279.6,518.6z"/>
		</g>
		<g class="st10">
			<path class="st0" d="M-1279.6,518.6c-6.4-23.1-19.4-56.4-46-99.8c-52-85.1-94.6-112.4-151.3-146.8c8.3-1.2,16.2-2.1,23.6-2.7
				c51.6,23.4,89.7,61.5,124.3,112.9c33.8,50.3,48.1,77.4,52.7,102.5C-1273,501.9-1271.6,512.5-1279.6,518.6z"/>
		</g>
		<g>
			<path class="st1" d="M-1409.9,560.3c-1.2,0-2.4-0.1-3.7-0.2c-23.6-2.7-26.5-19-23.7-44.5c0.5-4.9,1.1-10.1,1.4-14.3
				c1.1-14.3-0.3-18-4.7-21c-3-2-6.9-1.1-11.4,0c-4.5,1.1-9.6,2.3-14.3,0.2c-8.1-3.6-9-10.2-9.8-15c-0.2-1-0.3-2-0.5-2.9
				c-0.2-1-1.6-2.5-4.2-3.5c-3.1-1.3-8.1-1.8-12.1,0.9c-7.7,5.1-14,13.1-17.3,21.9l-0.2,0.5c-3.4,8.9-8.2,17.5-26.1,16.6
				c-6.7-0.3-11.8-2.4-15.1-6.2c-3.8-4.4-5.3-10.9-4.5-20.1c0.1-0.8,0.2-1.7,0.3-2.5l0.2-1.9c1.8-13.9,2.4-21.9-5.3-25.2
				c-8.3-3.5-16.9-1.3-25.6,6.5c-9.7,8.7-21.1,7.4-25.6,3.2c-2.8-2.6-2.6-6.7-2.4-10.2c0.1-1.4,0.2-4.8-0.4-5.1
				c-0.7-0.4-3.6,0.5-5.3,1.1c-4,1.3-9,2.9-13.8,0.8c-3.8-1.6-6.3-4.7-8.6-7.3c-2.7-3.3-4.6-5.3-7.6-5.7c-2.7-0.4-5.2,1.2-8.1,3.1
				c-3.7,2.3-7.9,5-13.7,4.3c-6.3-0.8-10.1-5.7-13.1-9.7c-1.3-1.7-3.4-4.4-4.3-4.4c0,0,0,0-0.1,0c-3.7,0-8.4,4.2-9.3,16.2l-0.1,1.2
				c-0.3,3.9-0.6,8.3-1.6,12.9c-3.6,17-14.4,26.5-33.2,29.1c-16.6,2.2-31.2-0.9-41.1-9c-7.2-5.9-11.5-14.1-12.1-23.2
				c-0.1-1.4-0.2-2.7-0.3-4c-1.6-17.2-6.3-24-17.9-25.7c-13-2-25.6,0.8-29.2,1.6c-1.5,0.4-3-0.4-3.6-1.7c-0.6-1.4-0.2-3,1.1-3.8
				c2.5-1.7,5.1-3.6,7.8-5.6c2.2-1.6,4.4-3.3,6.8-4.9c17-12,116.3-62.6,167-84c51.3-21.7,144.5-47.8,201.6-52.2c0.5,0,1,0.1,1.5,0.3
				c48.7,22.1,87.5,57.3,125.6,114c34.7,51.6,48.6,78.7,53.2,103.7c2.9,15.9,4.3,26.1-1,33.4c-3.9,5.3-10.8,8.4-22.5,9.9l0,0
				c-26.1,3.4-30,5.4-35.4,10.4c-8,7.6-18.4,8.5-28.6,2.6c-5.3-3.1-8.5-7.3-9.6-12.8c-0.6-3.1-0.5-6-0.4-8.6c0-0.7,0.1-1.4,0.1-2
				c0.1-8-2.3-9.7-6.1-9.8c-3.8-0.2-7.6,1-9,10.5c-0.3,2.1-0.5,4.7-0.6,7.5c-0.1,9.5-1.2,23.1-9.5,30.3
				C-1399.5,558.6-1404.2,560.3-1409.9,560.3z M-1444.9,472.8c2.6,0,5.3,0.6,7.8,2.3c7.7,5.3,8.5,12.5,7.4,26.7
				c-0.3,4.3-0.9,9.5-1.4,14.5c-2.9,26.5,1.5,35.7,18.2,37.6c5.6,0.6,9.9-0.4,13-3.2c4.8-4.2,7.2-12.6,7.4-25.7
				c0-3.1,0.3-5.9,0.6-8.4c1.7-10.8,6.9-16,15.4-15.7c8.2,0.3,12.2,5.8,12.1,16.1c0,0.7,0,1.4-0.1,2.2c-0.1,2.4-0.2,4.8,0.3,7.2
				c0.7,3.7,2.8,6.4,6.6,8.6c7.7,4.5,15.3,3.9,21.2-1.7c6.8-6.5,12.1-8.6,38.9-12.1l0,0c9.8-1.3,15.6-3.6,18.3-7.4
				c3.9-5.3,2.5-14.8-0.1-28.6c-4.4-24-18.1-50.5-52.2-101.3c-37.3-55.4-75-89.8-122.3-111.5c-56.6,4.5-148.3,30.3-198.9,51.7
				c-50.4,21.3-149.1,71.5-165.8,83.4c-1.3,0.9-2.6,1.9-3.9,2.8c5.4-0.5,11.8-0.6,18.3,0.4c18.1,2.7,21.8,16.6,23.2,31.3
				c0.1,1.3,0.2,2.7,0.3,4.2c0.5,7.3,4,14,9.9,18.8c8.5,6.9,21.4,9.6,36.3,7.6c21.1-2.9,26-15.2,27.9-24.2c0.9-4.2,1.2-8.4,1.5-12.1
				l0.1-1.3c1.3-16.3,9-22,15.7-21.9c4,0.1,6.6,3.5,9.2,6.8c2.6,3.3,5.2,6.8,8.9,7.3c3.5,0.4,6.3-1.3,9.6-3.4
				c3.4-2.2,7.3-4.6,12.3-4c5.6,0.7,8.8,4.5,11.6,7.9c1.9,2.3,3.8,4.5,6.2,5.6c2.7,1.2,6.2,0,9.5-1c3.6-1.2,7.4-2.4,10.6-0.4
				c3.7,2.3,3.4,7,3.3,10.7c-0.1,1.8-0.2,4.8,0.4,5.4c2.3,2.2,10.3,2.9,17.2-3.3c10.5-9.4,21.6-12.1,32.2-7.6
				c12.4,5.2,10.8,18.1,9.1,31.7l-0.2,1.9c-0.1,0.8-0.2,1.5-0.2,2.3c-0.7,7.4,0.3,12.4,2.9,15.4c2.2,2.5,5.7,3.9,10.7,4.1
				c13.8,0.6,16.8-4.5,19.9-12.6l0.2-0.5c3.8-10,11-19.1,19.7-24.9c6-4,13.2-3.4,17.9-1.4c4.3,1.8,7.2,4.7,7.9,8
				c0.2,1.1,0.4,2.2,0.6,3.3c0.7,4.5,1.2,8,6.1,10.2c2.8,1.2,6.4,0.4,10.3-0.6C-1450.8,473.5-1447.8,472.8-1444.9,472.8z"/>
		</g>
		<g>
			<path class="st1" d="M-1389,443.9c-9.6,0-18.7-1.8-26-5.1c-9.9-4.5-15.6-11.5-16.1-19.6c-0.2-2.7,0.3-5.4,1.3-8
				c4.7-12.1,21.8-21.2,42.5-22.6c19.8-1.3,37.2,4.7,44.2,15.3c1.9,2.8,3,5.9,3.2,9.2c0,0,0,0,0,0c0.5,8.1-4.2,15.7-13.4,21.5
				c-8,5.1-18.8,8.3-30.3,9C-1385.5,443.8-1387.3,443.9-1389,443.9z M-1412.9,417.3c5.6,4,16.6,7.5,30.1,6.2
				c12.7-1.2,20.6-5.9,24.7-10.9C-1372.3,406.4-1397.5,408.5-1412.9,417.3z"/>
		</g>
		<g>
			<path class="st1" d="M-1605.5,348.9c-1.6,0-3.1-0.6-4.3-1.7c-1.3-1.2-2-2.9-2-4.7c0.1-4.5,3.4-13.3,15-14.5
				c9.4-1,21.7-1.1,22.2-1.1c1.6,0,3.3,0.6,4.4,1.8c1.2,1.2,1.8,2.8,1.8,4.4v7c0,3.2-2.5,6-5.7,6.2l-31,2.5
				C-1605.2,348.8-1605.4,348.9-1605.5,348.9z"/>
		</g>
		<g>
			<path class="st1" d="M-1726.8,401.5c-1,0-2-0.2-2.9-0.7l-13.7-7.1c-2-1-3.2-3-3.4-5.2c-0.1-2.2,1-4.3,2.8-5.5l19.6-12.8
				c1.9-1.2,4.2-1.3,6.2-0.4c2,1,3.3,2.9,3.4,5.1l0.8,11.2c0.1,1.5-0.3,3-1.3,4.3l-6.7,8.7C-1723,400.7-1724.9,401.5-1726.8,401.5z"
				/>
		</g>
		<g>
			<path class="st1" d="M-1532.6,411.6c-0.5,0-1.1-0.1-1.6-0.2l-24.5-6.4c-2.1-0.5-3.7-2.1-4.4-4.2c-0.6-2.1-0.2-4.3,1.3-5.9
				l18.3-21.1c1.3-1.5,3.2-2.3,5.2-2.1c2,0.2,3.8,1.2,4.8,2.9c8.3,13.3,7.1,30.5,7,31.3c-0.1,1.8-1.1,3.5-2.6,4.6
				C-1530.1,411.2-1531.3,411.6-1532.6,411.6z M-1545.8,395.4l6.7,1.8c-0.2-2.4-0.7-5.1-1.4-7.8L-1545.8,395.4z"/>
		</g>
		<g>
			<path class="st1" d="M-1461.8,378.2c-43.2,0-75.8-15.6-75.8-36.3v-9.4c0-20.7,32.6-36.3,75.8-36.3c43.2,0,75.8,15.6,75.8,36.3
				v9.4C-1386,362.6-1418.6,378.2-1461.8,378.2z M-1461.8,308.7c-36.3,0-63.3,12.6-63.3,23.8v9.4c0,11.2,27.1,23.8,63.3,23.8
				c36.3,0,63.3-12.6,63.3-23.8v-9.4C-1398.4,321.3-1425.5,308.7-1461.8,308.7z"/>
		</g>
		<g>
			<path class="st12" d="M-1392.2,332.5v9.4c0,16.6-31.2,30-69.6,30s-69.6-13.4-69.6-30v-9.4H-1392.2z"/>
		</g>
		<g>
			<path class="st13" d="M-1348.4,407.3c-5.5-8.3-20.9-13.7-38.6-12.5c-18.4,1.2-33.4,9.1-37.1,18.6c1.1,1.4,2,2.7,2,2.7
				c18.3-15.1,56.3-17.9,72.4-5.9C-1349.3,409.4-1348.9,408.3-1348.4,407.3z"/>
		</g>
		<g>
			<path class="st6" d="M-1346.2,413.6c-0.1-2.2-0.9-4.3-2.2-6.2c-0.5,1-0.9,2-1.3,3v0c-3.2,8.7-13.7,17.7-32.5,19.4
				c-18.8,1.7-35.7-4.9-39.9-13.6c0,0-0.9-1.3-2-2.7c-0.7,1.7-1,3.5-0.8,5.3c0.8,11.8,19,20.1,40.8,18.7
				C-1362.4,436-1345.4,425.3-1346.2,413.6z"/>
		</g>
		<g>
			<path class="st5" d="M-1574.5,333.1v7l-31,2.5c0,0,0.2-7.5,9.4-8.5S-1574.5,333.1-1574.5,333.1z"/>
		</g>
		<g>
			<polygon class="st5" points="-1720.8,375.4 -1740.4,388.2 -1726.8,395.3 -1720,386.6 			"/>
		</g>
		<g>
			<path class="st5" d="M-1538.7,377.8l-18.3,21.1l24.5,6.4C-1532.6,405.3-1531.5,389.5-1538.7,377.8z"/>
		</g>
		<g>
			<g>
				<g>
					<path class="st1" d="M-1655,387.3c-17.7,0-31-8.3-31-19.2c0-10.9,13.3-19.2,31-19.2c17.7,0,31,8.3,31,19.2
						C-1624,379.1-1637.4,387.3-1655,387.3z M-1655,361.4c-11.5,0-18.5,4.7-18.5,6.7c0,2.1,7,6.7,18.5,6.7c11.5,0,18.5-4.7,18.5-6.7
						C-1636.5,366.1-1643.5,361.4-1655,361.4z"/>
				</g>
			</g>
			<g>
				<g>
					<path class="st1" d="M-1560,322.5c-9.5,0-16.6-5.3-16.6-12.4c0-7.1,7.1-12.4,16.6-12.4c9.5,0,16.6,5.3,16.6,12.4
						C-1543.4,317.2-1550.5,322.5-1560,322.5z M-1555.5,311.4L-1555.5,311.4L-1555.5,311.4z"/>
				</g>
			</g>
			<g>
				<g>
					<path class="st1" d="M-1489.7,436c-0.6,0-1.2-0.1-1.8-0.2c-1.7-0.4-5.7-2-6.7-8.2c-0.4-2.6-0.3-5.6,0.5-8.8l0,0
						c0.7-3.1,1.9-5.9,3.4-8.1c3.6-5.2,7.9-4.9,9.6-4.5c5.7,1.3,8.2,8.1,6.2,17C-1480.3,431.1-1484.7,436-1489.7,436z
						 M-1485.8,425.8L-1485.8,425.8L-1485.8,425.8z M-1491.6,420.2L-1491.6,420.2L-1491.6,420.2z"/>
				</g>
			</g>
			<g>
				<g>
					<path class="st1" d="M-1452.6,430.6c-5,0-9-4.1-9-9s4.1-9,9-9s9,4.1,9,9S-1447.6,430.6-1452.6,430.6z M-1452.6,418.1
						c-1.9,0-3.4,1.5-3.4,3.4c0,1.9,1.5,3.4,3.4,3.4c1.9,0,3.4-1.5,3.4-3.4C-1449.2,419.6-1450.7,418.1-1452.6,418.1z"/>
				</g>
			</g>
			<g>
				<g>
					<path class="st1" d="M-1385.2,489.2c-2,0-4-0.4-6-1.1c-3.1-1.2-5.7-3.1-7.5-5.6c-2.2-3.1-2.8-6.8-1.6-10.1
						c2.3-6,9.8-8.5,17.1-5.8c7.3,2.8,11.3,9.6,9.1,15.6c-1.2,3.3-4.1,5.6-7.8,6.5C-1382.9,489.1-1384,489.2-1385.2,489.2z
						 M-1385.8,479.6L-1385.8,479.6L-1385.8,479.6z"/>
				</g>
			</g>
			<g>
				<g>
					<path class="st1" d="M-1330.7,471.2c-6.4,0-11.4-4.5-11.4-10.2c0-5.7,5-10.2,11.4-10.2c6.4,0,11.4,4.5,11.4,10.2
						C-1319.3,466.7-1324.3,471.2-1330.7,471.2z M-1330.6,463.2L-1330.6,463.2L-1330.6,463.2z M-1330.7,458.7
						c-0.4,0.2-1.1,1-1.1,2.2c0,1.2,0.7,2,1.1,2.2c0.4-0.2,1.1-1,1.1-2.2C-1329.7,459.7-1330.4,458.9-1330.7,458.7z"/>
				</g>
			</g>
		</g>
		<g>
			<g>
				<ellipse class="st6" cx="-1655" cy="368.1" rx="24.8" ry="13"/>
			</g>
			<g>
				<path class="st6" d="M-1549.6,310.1c0,3.4-4.6,6.2-10.4,6.2s-10.4-2.8-10.4-6.2c0-3.4,4.6-6.2,10.4-6.2
					S-1549.6,306.7-1549.6,310.1z"/>
			</g>
			<g>
				
					<ellipse transform="matrix(0.2238 -0.9746 0.9746 0.2238 -1565.3555 -1123.5636)" class="st6" cx="-1488.1" cy="421" rx="8.9" ry="3.6"/>
			</g>
			<g>
				<circle class="st6" cx="-1452.6" cy="421.5" r="2.8"/>
			</g>
			<g>
				<path class="st6" d="M-1379.9,480.1c-1,2.7-5.1,3.6-9.1,2.1c-4-1.5-6.4-4.9-5.4-7.6c1-2.7,5.1-3.6,9.1-2.1
					C-1381.3,474.1-1378.9,477.4-1379.9,480.1z"/>
			</g>
			<g>
				<path class="st6" d="M-1325.5,460.9c0,2.2-2.3,4-5.2,4s-5.2-1.8-5.2-4c0-2.2,2.3-4,5.2-4S-1325.5,458.7-1325.5,460.9z"/>
			</g>
		</g>
		<g>
			<path class="st1" d="M-1754.2,372c-1.4,0-2.7-1-3-2.5l0,0c0-0.2-4.1-17.9-20.7-27c-1.5-0.8-2.1-2.7-1.2-4.2
				c0.8-1.5,2.7-2.1,4.2-1.2c19.2,10.5,23.6,30.3,23.8,31.2c0.4,1.7-0.7,3.3-2.4,3.7C-1753.7,371.9-1753.9,372-1754.2,372z"/>
		</g>
		<g>
			<path class="st1" d="M-1649.5,322.5c-1.3,0-2.5-0.8-3-2.2c-0.1-0.2-5.3-15.5-23.2-22.8c-1.6-0.7-2.4-2.5-1.7-4.1
				c0.7-1.6,2.5-2.4,4.1-1.7c20.7,8.5,26.6,26,26.8,26.7c0.5,1.6-0.4,3.4-2,3.9C-1648.9,322.5-1649.2,322.5-1649.5,322.5z"/>
		</g>
		<g>
			<path class="st1" d="M-1541.1,288.1c-0.1,0-0.1,0-0.2,0c-1.7-0.1-3-1.6-2.9-3.3c1.1-16.4-4.3-25.8-16.5-28.9
				c-1.7-0.4-2.7-2.1-2.3-3.8c0.4-1.7,2.1-2.7,3.8-2.3c15.3,3.9,22.5,15.8,21.2,35.4C-1538.1,286.9-1539.5,288.1-1541.1,288.1z"/>
		</g>
		<g>
			<ellipse class="st5" cx="-1461.8" cy="332.5" rx="69.6" ry="30"/>
		</g>
	</g>
	<g>
		<g>
			<path class="st1" d="M-790.1,339.8h-386.7c-3,0-5.6-2.2-6.2-5.2c-0.5-3,1.2-5.9,4.1-6.9l90.3-31.3c0.7-0.2,1.3-0.3,2-0.3h386.7
				c3,0,5.6,2.2,6.2,5.2c0.5,3-1.2,5.9-4.1,6.9l-90.3,31.3C-788.7,339.6-789.4,339.8-790.1,339.8z M-1139.7,327.3h348.6l54.3-18.8
				h-348.6L-1139.7,327.3z"/>
		</g>
		<g>
			<polygon class="st14" points="-1176.8,333.5 -1086.5,302.2 -699.8,302.2 -790.1,333.5 			"/>
		</g>
		<g>
			<path class="st1" d="M-1122.3,337.5c-4.2,0-8.7-0.5-13.5-1.5c-19.4-4.1-39.8-15.8-47.3-27.4c-6.8-10.4-8-21.6-3.3-29.9
				c3.1-5.5,8.5-9,15.2-10.3c0.1-6,2.1-13.1,8.8-17.4c6.5-4.2,13.2-4.6,18.9-2.7c0.9-5.3,2.8-10,5.8-13.6c3.8-4.6,9.1-7.2,15.3-7.5
				c17-1,30.5,11.6,36.3,33.8c6.1,23.9,5.6,56.9-16.2,71.2C-1107.6,335.8-1114.3,337.5-1122.3,337.5z M-1165.5,280.4
				c-4.8,0-8.3,1.6-10,4.5c-2.3,4.1-1.2,10.6,2.9,16.9c5,7.6,21.5,18.2,39.4,22c10.3,2.2,18.9,1.4,24.1-2
				c17.4-11.4,15-41.6,10.9-57.7c-4.2-16.2-12.7-25.1-23.4-24.5c-2.8,0.2-4.8,1.1-6.4,3.1c-2.8,3.4-4,9.6-3.2,16.3
				c0.3,2.8-1.2,5.4-3.7,6.5c-2.6,1.1-5.5,0.4-7.3-1.8c-1-1.2-6.2-6.8-13.3-2.2c-4.7,3-2.7,11-2.6,11.1c0.5,1.9,0.1,4-1.2,5.5
				c-1.2,1.5-3.2,2.4-5.1,2.3C-1164.8,280.4-1165.1,280.4-1165.5,280.4z"/>
		</g>
		<g>
			<path class="st11" d="M-1137.4,259.8c-1.5-11.9,2.3-25.5,15.4-26.3s24.6,8.8,29.8,29.2s5.8,51.7-13.5,64.4
				c-19.4,12.7-61.7-5.8-72.1-21.8c-10.4-16-4.4-31.9,13.6-31.1c0,0-3.4-12.3,5.3-17.9C-1150.2,250.6-1141.8,254.4-1137.4,259.8z"/>
		</g>
		<g class="st10">
			<path class="st0" d="M-1098.9,246.4c-4.2-2.7-9-3.9-14-3.6c-13.2,0.8-16.9,14.4-15.4,26.3c-4.4-5.3-12.8-9.1-21.5-3.5
				c-8.7,5.6-5.3,17.9-5.3,17.9c-18-0.8-24,14.9-13.7,30.9c-3.9-3-7-6.1-9-9.1c-10.4-16-4.4-31.9,13.6-31.1c0,0-3.4-12.3,5.3-17.9
				c8.7-5.6,17.1-1.8,21.5,3.5c-1.5-11.9,2.3-25.5,15.4-26.3C-1113,232.9-1104.9,237.2-1098.9,246.4z"/>
		</g>
		<g>
			<path class="st1" d="M-1071.8,285.5c-3.9,0-7.8-0.4-11.6-1.4c-12.3-3-20.8-8.5-25.2-16.3c-3.8-6.8-4.3-15.1-1.5-24
				c2.3-7.3,7.3-12.1,13.7-13.3c1.7-0.3,3.4-0.4,5.1-0.1c1.2-5.4,3.8-10.4,7.5-14c5-5,11.5-7.3,18.9-6.7
				c17.7,1.5,30.8,14.2,36.9,35.7c2.5,8.9-0.2,17.9-7.5,25.6C-1044.4,280.1-1058.3,285.5-1071.8,285.5z M-1093.4,242.7
				c-0.2,0-0.5,0-0.7,0.1c-2.4,0.4-3.6,3.2-4.1,4.8c-1.8,5.6-1.6,10.3,0.5,14.1c2.6,4.7,8.4,8.2,17.3,10.3
				c14.1,3.5,28.8-2.3,35.9-9.7c2.9-3,6.1-7.9,4.5-13.5c-3.2-11.4-10.4-25.4-25.9-26.7c-3.7-0.3-6.6,0.7-9,3.1
				c-3.2,3.3-5.1,9-4.6,14.3c0.3,2.7-1.3,5.3-3.9,6.4c-2.6,1-5.5,0.3-7.2-1.9C-1091.1,243.2-1092.2,242.7-1093.4,242.7z"/>
		</g>
		<g>
			<path class="st11" d="M-1085.7,240c-1-11.1,5.6-25.4,20.3-24.2c14.7,1.3,26,12,31.4,31.2c5.4,19.2-23.4,37-47.9,31
				s-25.9-20.9-22.2-32.3C-1100.5,234.2-1089.9,234.8-1085.7,240z"/>
		</g>
		<g class="st10">
			<path class="st0" d="M-1037.6,237.2c-5.8-7.3-13.3-11.4-22.1-12.1c-14.7-1.3-21.4,13.1-20.3,24.2c-4.2-5.2-14.8-5.8-18.4,5.7
				c-1.5,4.6-2.1,9.8-0.8,14.7c-7.5-7.1-7.3-16.3-4.9-24c3.6-11.5,14.2-10.9,18.4-5.7c-1-11.1,5.6-25.4,20.3-24.2
				C-1053.4,216.9-1043.7,224.2-1037.6,237.2z"/>
		</g>
		<g class="st10">
			<path class="st0" d="M-1076.2,287.3c-14.6-3.6-21-10.3-23-17.6c-1.3-4.9-0.7-10.1,0.8-14.7c3.6-11.5,14.2-10.9,18.4-5.7
				c-1-11.1,5.6-25.4,20.3-24.2c8.8,0.8,16.3,4.9,22.1,12.1c3.9,4.9,7.1,11.3,9.3,19.1C-1022.9,275.6-1051.7,293.3-1076.2,287.3z"/>
		</g>
		<g>
			<path class="st1" d="M-1056.1,330.9c-9.3,0-18.8-2.7-26.7-7.8c-19.7-12.8-25.8-40.7-17.7-55.3c3.4-6.2,8.5-10.4,14.8-12
				c3.8-1,7.8-1,11.8-0.1c1.6-6.8,5.1-11.8,10.1-14.3c3.8-1.9,11.6-3.8,22,4c15.5,11.7,25,46,18.2,65.6c-2.8,8.2-9.4,14.5-18.5,17.6
				C-1046.6,330.2-1051.3,330.9-1056.1,330.9z M-1079.8,267.5c-1,0-1.9,0.1-2.8,0.4c-2.9,0.8-5.3,2.8-7,6
				c-4.8,8.7-0.6,29.6,13.6,38.8c8.7,5.6,20.7,7.3,29.8,4.2c3.8-1.3,8.8-4.1,10.8-9.9c5.4-15.7-3.5-43.7-13.9-51.6
				c-3.6-2.7-7-3.8-9-2.8c-1.9,0.9-4.1,4.6-4.1,12c0,2.3-1.2,4.3-3.2,5.4c-2,1.1-4.4,1-6.3-0.1
				C-1074.4,268.3-1077.2,267.5-1079.8,267.5z"/>
		</g>
		<g>
			<path class="st11" d="M-1068.7,264.5c-8-4.9-20-5.3-26.4,6.3c-6.4,11.6-1.4,36,15.7,47.1c17,11,43.7,8.8,49.9-8.9
				c6.1-17.7-3.2-48.9-16.1-58.6S-1068.7,247.5-1068.7,264.5z"/>
		</g>
		<g class="st10">
			<path class="st0" d="M-1033.4,268.3c-2.1-3.3-4.5-6-7-7.9c-12.8-9.7-23.1-2.9-23.1,14.1c-8-4.9-20-5.3-26.4,6.3
				c-3.6,6.5-3.6,17,0.1,27c-8.5-12.1-10.2-28.2-5.3-37c6.4-11.6,18.4-11.2,26.4-6.3c0-17,10.2-23.8,23.1-14.1
				C-1040.9,254-1036.6,260.5-1033.4,268.3z"/>
		</g>
		<g>
			<path class="st1" d="M-1006.5,296.2c-31.1,0-40.5-16-42.8-29.9c-1-6.3-5.4-37.9,10.1-46c5.3-2.8,9.9-3.8,13.2-4.1
				c2.1-5.1,6.6-12.3,15-13.1c6.2-0.6,12.2,2.7,16.9,6.7c2-4.3,4.9-7.9,8.5-10.4c4.6-3.2,12.7-6.2,25.1-2.4
				c11.4,3.6,19.4,9.8,23.7,18.3c4.9,9.8,4.6,22.4-0.8,37.4c-9.5,26.6-31.6,41.6-63.7,43.3C-1003.1,296.1-1004.8,296.2-1006.5,296.2
				z M-1023.6,228.5c-1.5,0-5,0.3-9.8,2.9c-4,2.1-6.4,15.8-3.6,32.9c1.5,9,6.7,20.8,35,19.3c27.5-1.5,44.7-12.9,52.7-35.1
				c4.2-11.7,4.6-21,1.3-27.6c-2.7-5.4-8.1-9.4-16.2-12c-6.1-1.9-10.8-1.7-14.2,0.7c-4.3,3-6.1,9.1-6.3,13.8
				c-0.1,2.9-2.3,5.3-5.1,5.8c-2.8,0.5-5.7-1-6.8-3.6c-1.3-3-8.9-10.6-13.1-10.2c-2.6,0.2-5,5.7-5.7,8.4c-0.4,1.6-1.3,3.1-2.7,4
				c-1.4,0.8-3,1.1-4.6,0.7C-1022.9,228.6-1023.2,228.5-1023.6,228.5z"/>
		</g>
		<g>
			<path class="st11" d="M-991,223.2c0.6-11.6,8.1-26.6,28.7-20.2c20.6,6.5,28.1,22,18.9,47.7c-9.2,25.7-30,37.7-58.2,39.2
				c-28.3,1.5-39.1-9.7-41.5-24.5c-2.5-14.9-2.1-34.8,6.9-39.4c9-4.7,14.7-3.4,14.7-3.4s2.9-12.4,11.1-13.2
				C-1002.2,208.5-992.8,219.2-991,223.2z"/>
		</g>
		<g class="st10">
			<path class="st0" d="M-939.6,231.7c-3.8-5.9-10.1-10.2-18.7-12.9c-20.6-6.5-28.1,8.6-28.7,20.2c-1.8-4-11.2-14.6-19.4-13.9
				c-8.3,0.8-11.2,13.2-11.2,13.2s-5.8-1.2-14.7,3.4c-7.8,4-9.1,19.6-7.7,33.4c-1.7-3-2.7-6.3-3.3-9.8c-2.5-14.9-2.1-34.8,6.9-39.4
				c9-4.7,14.7-3.4,14.7-3.4s2.9-12.4,11.1-13.2c8.3-0.8,17.6,9.9,19.4,13.9c0.6-11.6,8.1-26.6,28.7-20.2
				C-947.4,207.7-939.4,217.1-939.6,231.7z"/>
		</g>
		<g>
			<path class="st1" d="M-897.1,277.9c-2.5,0-4.7-0.1-6-0.3c-2.8-0.5-13.5-4.8-19.9-7.6c-17.6-7.6-19.5-10.2-20.4-13.2
				c-4.6-15.2-4.8-17.7-4.8-18c0-0.2,0.9-20,14.6-26.2c6.9-3.1,13.5-1.9,18.4,0.1c1.8-3.2,4.4-5.9,7.6-7.7c3.5-1.9,11-4.3,21.3,1.3
				c16.5,9.1,19.4,27.1,20,43.5c0.7,19.3-9,26.1-14.9,27.2C-884.1,277.4-891.4,277.9-897.1,277.9z M-900.8,265.3
				c2.4,0.4,13.9-0.1,17.5-0.7c1-0.2,5-3.5,4.6-14.4c-0.5-13.6-2.5-27-13.6-33c-2.7-1.5-6.5-2.9-9.3-1.3c-2.3,1.3-3.5,4.1-3.7,6.4
				c-0.2,2.3-1.6,4.4-3.8,5.3c-2.1,0.9-4.6,0.6-6.4-0.9c-0.2-0.2-6.9-5.5-12.9-2.8c-5,2.3-6.9,11-7.2,14.4c0.6,2.4,2.7,9.6,3.8,13.4
				C-926.7,255.2-904.9,264.3-900.8,265.3z"/>
		</g>
		<g>
			<path class="st11" d="M-911.5,221.9c0.6-8.2,8.4-17.7,22.2-10.1c13.8,7.6,16.2,23.6,16.8,38.2c0.6,14.6-5.8,20.1-9.8,20.8
				c-4,0.7-16.5,1.3-19.7,0.7c-3.2-0.6-34.4-13.1-35.4-16.5c-1-3.4-4.5-15.8-4.5-16.2c0-0.5,1.2-16.1,11-20.6
				C-921.1,213.8-911.5,221.9-911.5,221.9z"/>
		</g>
		<g class="st10">
			<path class="st0" d="M-874.4,233.3c-2.5-4.5-6-8.4-11-11.1c-13.8-7.6-21.7,1.9-22.2,10.1c0,0-9.6-8.1-19.4-3.7
				c-9.8,4.4-11,20.1-11,20.6c0,0.2,0.9,3.5,1.9,7.2c-0.7-0.5-1.1-1-1.2-1.3c-1-3.4-4.5-15.7-4.5-16.2c0-0.5,1.2-16.1,11-20.6
				c9.8-4.4,19.4,3.7,19.4,3.7c0.6-8.2,8.4-17.7,22.2-10.1C-880.7,216.5-876.5,224.4-874.4,233.3z"/>
		</g>
		<g>
			<path class="st1" d="M-846.9,297.6c-8,0-16.9-4.2-26.7-12.7c-19.3-16.7-24.7-44.1-12.1-62.4c5.5-8,14-11.5,23.5-9.7
				c6,1.2,11.7,4.5,15.7,8.6c4.3-4.1,9.3-6.5,14.2-6.8c5.7-0.3,11.1,2.4,15.1,7.5c8.2,10.6,4.4,26,2.1,35.3c-0.4,1.6-0.7,3-0.9,3.9
				c-1.3,7.6-5.9,17.1-13.2,26.8c-4.1,5.4-9.4,8.7-15.4,9.3C-845.3,297.6-846.1,297.6-846.9,297.6z M-867.2,224.8
				c-3.4,0-6.1,1.6-8.3,4.7c-8.9,12.9-4.4,33.5,10,45.9c9.9,8.6,16.1,9.9,19.5,9.6c2.6-0.3,4.8-1.7,6.8-4.4c6-8,9.9-15.8,10.8-21.4
				c0.2-1.3,0.6-3,1.1-4.8c1.6-6.6,4.6-18.8,0.1-24.6c-2-2.5-3.6-2.8-4.6-2.7c-3.2,0.2-7.3,3.5-10.3,8.3c-1.3,2.2-3.9,3.3-6.4,2.8
				c-2.5-0.4-4.5-2.4-5-4.9c-0.5-2.2-5.2-7.1-11.4-8.4C-865.5,224.9-866.4,224.8-867.2,224.8z"/>
		</g>
		<g>
			<path class="st11" d="M-847.2,232.2c-2-9.3-22.6-21.8-33.4-6.1c-10.7,15.7-5.8,39.7,11,54.2c16.8,14.5,28.3,13.7,35.4,4.2
				c7.1-9.5,11-18,12-24.1s7.7-24.3,0-34.3C-829.8,216.1-840.9,222.1-847.2,232.2z"/>
		</g>
		<g class="st10">
			<path class="st0" d="M-818.5,237.3c-0.1-0.2-0.3-0.4-0.4-0.6c-7.7-10-18.8-4-25.1,6.1c-2-9.3-22.6-21.8-33.4-6.1
				c-5.1,7.5-6.7,16.8-5.1,26.1c-5.5-12.5-5.2-26.5,1.8-36.8c10.7-15.7,31.4-3.1,33.4,6.1c6.3-10.1,17.4-16.1,25.1-6.1
				C-819.6,229.2-818.7,233.2-818.5,237.3z"/>
		</g>
		<g>
			<path class="st1" d="M-799,319.7c-3.4,0-7.4-1.7-14.2-5.7c-4.9-2.9-8.5-4.2-11.4-5.3c-7.6-2.8-11.4-5.4-12.6-16.3
				c-1.4-12.9,2-43,2.3-45.2c1.3-14.4,7.2-26,16.1-31.8c6.4-4.2,14.2-5,21.7-2.4c6.5,2.2,10.7,5.3,13.5,8.5c2-2,4.5-3.9,7.5-5.1
				c4.6-1.8,9.5-1.5,14.3,0.7c16.3,7.6,21.3,19.7,18.4,44.7c-2.7,23.5-14.4,45.6-23.1,49.7c-0.8,0.4-1.8,0.9-2.8,1.4
				c-5.1,2.7-12.1,6.4-21.7,5.2c-1.7-0.2-2.1-0.1-2.8,0.3C-795.7,319.3-797.3,319.7-799,319.7z M-798.8,307.3L-798.8,307.3
				L-798.8,307.3z M-805.7,224.1c-2.2,0-4.4,0.6-6.3,1.9c-5.6,3.6-9.5,12-10.4,22.5c0,0.1,0,0.1,0,0.2c0,0.3-3.5,30.7-2.3,42.5
				c0.4,3.6,0.9,4.3,0.9,4.4c0.3,0.3,2.1,1,3.6,1.5c3.2,1.2,7.5,2.8,13.4,6.2c4.8,2.8,6.9,3.7,7.7,3.9c2.1-0.9,4.7-1.9,9.5-1.3
				c5.7,0.7,10.1-1.6,14.3-3.9c1.1-0.6,2.2-1.2,3.3-1.7c3-1.9,13.6-17.9,16.1-39.9c2.7-23.6-2.7-27.9-11.2-31.9
				c-2.2-1-3.5-0.7-4.5-0.4c-3.6,1.4-6.5,6.6-7.2,8.4c-1.2,2.8-4.3,4.6-7.3,3.8c-2.9-0.8-4.9-3.3-4.7-6.3c-0.1-0.8-1.1-6-10.3-9.2
				C-802.8,224.4-804.3,224.1-805.7,224.1z M-772,300.3C-772,300.3-772,300.3-772,300.3C-772,300.3-772,300.3-772,300.3z
				 M-828.7,248L-828.7,248L-828.7,248z"/>
		</g>
		<g>
			<path class="st11" d="M-828.7,248c1.9-21.7,14.7-34,29.5-28.9c14.7,5.1,14.5,15.1,14.5,15.1s7.1-17.2,20.1-11.2
				c12.9,6,17.5,14.6,14.8,38.3c-2.7,23.7-14.5,42.4-19.6,44.8c-5.1,2.4-11.6,7.3-21.1,6.1c-9.5-1.2-3.9,5.8-19.6-3.4
				c-15.7-9.2-19.6-4.3-20.9-16.8C-832.3,279.2-828.7,248-828.7,248z"/>
		</g>
		<g class="st10">
			<path class="st0" d="M-749.5,258.1c-0.3-14.3-5.3-20.7-15.5-25.5c-12.9-6-20.1,11.2-20.1,11.2s0.2-10-14.5-15.1
				c-14.8-5.1-27.6,7.3-29.5,28.9c0,0-1.4,11.9-2.1,24c0.3-14.4,2.6-33.8,2.6-33.8c1.9-21.7,14.8-34,29.5-28.9
				c14.8,5.1,14.5,15.1,14.5,15.1s7.2-17.2,20.1-11.2C-752.2,228.6-747.5,236.8-749.5,258.1z"/>
		</g>
		<g>
			<path class="st1" d="M-717.8,317.3h-23.6c-1.1,0-2.2-0.3-3.2-0.9l-36.1-21.5c-1.4-0.8-2.4-2.1-2.8-3.6c-3-10.2-2-22.8,2.3-30.2
				c2.6-4.5,5.9-6.1,8.2-6.7c2.3-0.6,4.4-0.5,6.3-0.1c2-6.5,5.7-14.5,11.7-18.8c3.9-2.8,8.5-3.8,13.3-2.9c6.6,1.3,11,3.7,13.9,6.6
				c1.1-0.8,2.4-1.6,3.8-2.1c3.2-1.2,8.2-1.7,14.4,2.1c14,8.7,19.3,32,12,51.9c-6.6,18-15.8,24.4-16.8,25.1
				C-715.4,316.9-716.6,317.3-717.8,317.3z M-739.7,304.8h19.6c2.2-2.1,6.9-7.5,10.8-17.9c5.1-14,1.9-31.6-6.9-37
				c-1.1-0.7-2.5-1.4-3.5-1c-1.7,0.6-3.2,3.6-3.6,4.8c-1,3.3-4.6,5.3-7.9,4.3c-3.2-1-5.1-4.1-4.2-7.3c0-1.9-2.2-4.5-8.8-5.7
				c-1.4-0.3-2.5,0-3.7,0.8c-5,3.6-8.2,15.3-8.9,20.5c-0.4,2.9-2.8,5.3-5.7,5.5c-2.9,0.2-5.5-1.5-6.4-4.3c-0.4-0.9-0.7-0.9-1.1-0.9
				c-1.7,1.6-4.1,10-2.2,19L-739.7,304.8z M-735.3,250.5L-735.3,250.5L-735.3,250.5z"/>
		</g>
		<g>
			<path class="st11" d="M-777.5,289.5c-3.5-12-0.5-27.5,6-29c6.5-1.5,8.7,4.8,8.7,4.8s4.3-29.6,20-26.5
				c15.7,3.1,13.7,12.9,13.7,12.9s4.7-14.4,16.3-7.1c11.7,7.3,15.5,27.9,9.4,44.5c-6.1,16.6-14.4,22-14.4,22h-23.6L-777.5,289.5z"/>
		</g>
		<g>
			<path class="st11" d="M-777.5,289.5c-3.5-12-0.5-27.5,6-29c6.5-1.5,8.7,4.8,8.7,4.8s4.3-29.6,20-26.5
				c15.7,3.1,13.7,12.9,13.7,12.9s4.7-14.4,16.3-7.1c11.7,7.3,15.5,27.9,9.4,44.5c-6.1,16.6-14.4,22-14.4,22h-23.6L-777.5,289.5z"/>
		</g>
		<g class="st10">
			<path class="st0" d="M-729.5,248.1c-1.9-1-4.3-1.9-7.5-2.5c-15.7-3.1-20,26.5-20,26.5s-2.2-6.3-8.7-4.8c-5.8,1.4-8.8,14-6.8,25.2
				l-5.1-3c-3.5-12-0.5-27.5,5.9-29c6.5-1.5,8.7,4.8,8.7,4.8s4.3-29.6,20-26.5C-733.4,240.6-730.4,245-729.5,248.1z"/>
		</g>
		<g>
			<path class="st1" d="M-849,319.7c-2,0-3.6-0.3-4.7-0.9c-2.8-1.6-16.5-12.9-18.6-18.4c-1.3-3.4-3.1-17.2-4-25
				c-0.1-0.7,0-1.5,0.1-2.2c5.4-23,23-44.7,46-41.7c10.1,1.3,16.6,4.2,20.4,9.3c1.4,1.9,2.4,4,2.9,6.2c1.6-0.8,3.3-1.2,5.2-1.3
				c3.1-0.1,7.6,0.8,11.5,6.2c10.9,15.2-6.3,43-19.3,53C-819,312.1-838.8,319.7-849,319.7z M-860.8,295.7c1.6,2.3,9.2,9.3,12.3,11.6
				c5-0.4,21.8-5.1,31.2-12.3c10.8-8.4,21.7-29.1,16.8-35.9c-0.4-0.6-0.7-0.9-0.9-1c-1.4,0.3-4.7,3.5-6.8,7
				c-1.5,2.6-4.7,3.7-7.5,2.7c-2.8-1-4.5-3.9-4-6.9c1-5.8,1.5-10.5-0.1-12.7c-1.5-2.1-5.7-3.6-12-4.4c-17.1-2.2-28.4,17.1-32,31.2
				C-862.9,283.5-861.5,293.3-860.8,295.7z"/>
		</g>
		<g>
			<path class="st11" d="M-870.2,274.6c4.4-18.7,18.7-39.6,39.1-37c20.4,2.6,19.5,11.8,17.5,24.3c0,0,10.3-17.4,18.2-6.5
				c7.8,10.9-6,35.2-18,44.5s-34.6,14.9-37.2,13.4c-2.6-1.5-14.6-12-15.9-15.2C-867.8,294.9-870.2,274.6-870.2,274.6z"/>
		</g>
		<g class="st10">
			<path class="st0" d="M-813.6,246.8c-2.6-1.2-6.1-2.1-10.5-2.6c-20.4-2.6-34.7,18.3-39.2,37c0,0,2.4,20.3,3.6,23.5
				c0.4,0.9,1.6,2.5,3.3,4.3c-4.3-3.8-9.5-8.8-10.3-10.8c-1.2-3.2-3.6-23.5-3.6-23.5c4.4-18.7,18.7-39.6,39.1-37
				C-820.3,239-815.4,242.2-813.6,246.8z"/>
		</g>
		<g>
			<path class="st1" d="M-774.3,344.3c-0.4,0-0.8,0-1.2-0.1c-13.2-2.6-14.6-2.9-16.2-5.9c-0.6-1.1-0.9-2.4-0.7-3.7
				c0.1-1.7,0.3-12.6,0.4-22.5c-2.4-24,6.2-37.5,25.5-40.2c9.1-1.3,15.7,0,20.4,4c2.2,1.9,3.7,4.2,4.7,6.6c2.9-2,6.2-3.7,9.6-4
				c3.5-0.4,6.8,0.6,9.4,2.9c10.2,8.6,10.3,28.8,6.1,44c-2.4,8.8-12.8,14.2-32.6,17C-761.7,344.3-773.8,344.3-774.3,344.3z
				 M-792.4,334c0,0.1,0,0.2-0.1,0.3C-792.4,334.2-792.4,334.1-792.4,334z M-792.1,333C-792.1,333-792.1,333-792.1,333
				C-792.1,333-792.1,333-792.1,333z M-792.1,333C-792.1,333-792.1,333-792.1,333C-792.1,333-792.1,333-792.1,333z M-792.1,333
				C-792.1,333-792.1,333-792.1,333C-792.1,333-792.1,333-792.1,333z M-779.9,330.6c1.9,0.4,4.1,0.9,6.1,1.3
				c2.5,0,12.7-0.2,23.1-1.7c20.6-3,22.2-7.9,22.2-8c3.9-14,2-27.6-2.1-31.1c-1.7-0.2-6.9,3.8-10.1,7.9c-1.6,2.1-4.4,2.9-6.9,2
				c-2.5-0.8-4.2-3.2-4.3-5.8c-0.1-5.2-0.9-8.3-2.5-9.7c-1.7-1.5-5.4-1.9-10.6-1.2c-9,1.3-17.1,5.4-14.8,26.9c0,0.2,0,0.5,0,0.7
				C-779.7,321.2-779.8,326.9-779.9,330.6z"/>
		</g>
		<g>
			<path class="st11" d="M-785.8,311.9c-2-19.4,3.1-31.4,20.1-33.8c17-2.4,20,6,20.2,16.9c0,0,11.8-14.9,19.1-8.8s8.1,23.3,4.1,37.6
				c-4,14.3-52,14.3-52,14.3s-12.1-2.4-11.9-2.7C-786.1,335-785.8,311.9-785.8,311.9z"/>
		</g>
		<g class="st10">
			<path class="st0" d="M-720.8,316.8c0-8.9-2-16.8-6.5-20.6c-7.3-6.1-19.1,8.8-19.1,8.8c-0.2-10.9-3.2-19.3-20.2-16.9
				c-11.5,1.6-17.6,7.6-19.7,17.3c-0.3-15.6,5.5-25.2,20.5-27.3c17-2.4,20,6,20.2,16.9c0,0,11.8-14.9,19.1-8.8
				C-720.3,291.4-718.8,304.3-720.8,316.8z"/>
		</g>
		<g>
			<path class="st1" d="M-815.2,368.3c-3.6,0-7-0.5-9.8-1.4c-4.3-1.4-14-3.7-23.5-5.9c-6.4-1.5-13-3-17.9-4.3
				c-7.4-1.9-12.3-3.2-12.8-8.4c-0.1-0.7-0.2-2.6,3.4-35.7c0.1-1.2,0.6-2.3,1.3-3.2c9.1-11.3,33-37.2,57.5-33.1
				c9.8,1.6,16,7.1,19.6,12.9c2.6-2.3,5.9-4.2,9.5-4.4c3.3-0.2,8,0.9,12,6.9c10.4,15.4,4.1,42.1-2.6,56.2
				C-785.1,361.9-802,368.3-815.2,368.3z M-866.5,343.8c4.8,1.4,13.8,3.4,20.8,5c10.2,2.3,19.8,4.6,24.7,6.2
				c8.5,2.8,26.3-1.8,31.4-12.6c6.6-13.8,9.8-34.5,3.5-43.9c-0.6-0.8-1-1.2-1.2-1.4c-1.5,0.5-4.7,4.1-6.4,7.4
				c-1.3,2.4-4,3.7-6.7,3.2c-2.7-0.5-4.7-2.8-5-5.5c-0.1-1.2-1.8-11.8-13.5-13.7c-12.2-2-28.8,8.1-44.6,27.3
				C-864.6,325.3-865.9,337.6-866.5,343.8z"/>
		</g>
		<g>
			<path class="st11" d="M-869.6,313.3c15-18.6,34.6-33.7,51.7-30.9c17,2.8,18.7,19.2,18.7,19.2s10-18.8,18.3-6.6
				c8.3,12.3,3.7,35.7-3.1,50c-6.8,14.3-28.4,19.4-39,15.8c-10.7-3.6-49.8-11.1-50-13.1C-873.2,345.8-869.6,313.3-869.6,313.3z"/>
		</g>
		<g class="st10">
			<path class="st0" d="M-803.6,290.8c-1.6-0.6-3.3-1.1-5.3-1.5c-17-2.8-36.7,12.3-51.6,30.9c0,0-2.4,21.7-3.2,30.7
				c-5.5-1.4-9.2-2.5-9.3-3.2c-0.2-2,3.4-34.5,3.4-34.5c15-18.6,34.6-33.7,51.6-30.9C-810.8,283.5-806.4,287.1-803.6,290.8z"/>
		</g>
		<g>
			<path class="st1" d="M-894.4,350.7c-22.9,0-43.7-9.7-49.7-25.2c-8.2-21.1,0.5-56.7,23.6-69.1c13.2-7.1,34-10.8,48.5-2.1
				c5.6,3.3,12.1,9.6,13.7,21.2c5.5,1.1,10.9,4.6,12.1,12.1c1.1,7.5-1.7,14.3-5.7,19.3c4.2,4.6,6.3,10.7,5.6,16.8
				c-0.6,5.1-4.2,17.6-25.6,23.8C-879.4,349.7-887,350.7-894.4,350.7z M-892.4,261.7c-7.2,0-15.2,1.9-22.2,5.7
				c-17.6,9.5-23.4,39.2-17.8,53.6c5,12.9,31,22.1,57.1,14.6c10-2.9,16.1-7.7,16.7-13.2c0.4-3.7-1.8-7.4-5.5-9.5
				c-1.9-1-3.1-2.9-3.2-5c-0.2-2.1,0.8-4.2,2.4-5.4c2.8-2.1,7.3-7.3,6.4-13c-0.3-2.3-4.3-1.9-4.8-1.8c-1.8,0.2-3.6-0.3-4.9-1.5
				c-1.4-1.2-2.1-2.9-2.1-4.7c0-7.7-2.7-13.3-8.1-16.5C-882.2,262.7-887.1,261.7-892.4,261.7z"/>
		</g>
		<g>
			<path class="st11" d="M-861.2,307.4c12.3,6.7,14.8,26.3-12.4,34.1c-27.2,7.8-57.9-1-64.6-18.3c-6.7-17.3,0.1-50.3,20.7-61.3
				c20.6-11.1,53.4-9.9,53.4,19.6c0,0,10.4-1.4,11.7,7.1C-851.1,297-857,304.2-861.2,307.4z"/>
		</g>
		<g class="st10">
			<path class="st0" d="M-865.9,270.8c-11.1-9.2-31-7.4-45.2,0.2c-20.6,11-27.4,43.8-20.7,61.2c-2.9-2.7-5.1-5.7-6.4-9.1
				c-6.7-17.3,0.1-50.3,20.7-61.3C-899.8,252.3-873,251.9-865.9,270.8z"/>
		</g>
		<g>
			<path class="st1" d="M-956.5,313.6c-9.9,0-17.9-3.4-23.1-9.9c-15.8-19.7-16.4-47.1-7.9-61.2c4.5-7.5,11-11.3,17.9-10.4
				c3.4,0.4,6.6,2,9.2,4.3c5.6-6.2,14.8-11.8,27.5-10.2c7.8,1,12.1,4.9,14.3,8c2,2.7,3,5.8,3.5,8.6c1.8-0.2,3.8,0,5.7,0.8
				c4.2,1.7,6.2,5.5,6.6,9.7c2.3,1.2,3.6,2.9,4.3,4.1c2.3,4.2,3.7,12.2-10.6,33.3c-8,11.7-28.8,22.2-45.5,22.9
				C-955.3,313.6-955.9,313.6-956.5,313.6z M-971.5,244.4c-1.7,0-3.6,1.6-5.4,4.5c-6.4,10.6-5.1,32,6.9,47c3,3.7,7.9,5.5,14.7,5.2
				c14-0.6,30.4-9.7,35.7-17.4c7.2-10.6,9.4-16.7,9.8-19.3c-1.8-0.1-3.5-0.9-4.7-2.3c-1.2-1.5-1.7-3.6-1.2-5.5
				c0.1-0.2,0.1-0.5,0.1-0.8c-0.7,0.4-1.4,0.8-1.8,1.2c-2,1.8-4.9,2.1-7.3,0.7c-2.3-1.4-3.5-4-3-6.7c0.3-1.6,0.7-6.6-1.4-9.6
				c-1.1-1.6-3-2.5-5.7-2.8c-14.5-1.8-20.2,11.4-20.2,11.5c-1,2.4-3.4,4-6.1,3.8c-2.6-0.1-4.9-1.9-5.7-4.4c-0.8-2.8-2.8-4.9-4.7-5.1
				C-971.3,244.4-971.4,244.4-971.5,244.4z"/>
		</g>
		<g>
			<path class="st11" d="M-960.5,247.7c-2.9-9.8-14.2-14.5-21.7-2c-7.5,12.5-6.4,36.9,7.4,54.1c13.8,17.2,50.7,1.7,60.4-12.6
				c9.7-14.3,16.5-29.5,4.9-29c0,0,1.9-7-2.4-8.8s-9.5,2.9-9.5,2.9s3.7-17.8-12.4-19.9C-949.9,230.4-958.4,242.6-960.5,247.7z"/>
		</g>
		<g class="st10">
			<path class="st0" d="M-921,247.4c-1.8-1.3-4.2-2.3-7.3-2.7c-16.2-2.1-24.6,10.1-26.8,15.3c-3-9.7-14.2-14.5-21.7-2
				c-5.1,8.6-6.2,22.7-1.9,36.3c-10.1-16.6-10.3-37.4-3.5-48.5c7.5-12.5,18.7-7.7,21.7,2.1c2.1-5.2,10.6-17.4,26.8-15.3
				C-923.1,233.8-921.1,241.9-921,247.4z"/>
		</g>
		<g>
			<path class="st1" d="M-930.4,356.2c-6.7,0-13.5-1.2-19.8-2.6c-10.6-2.3-17.6-6.8-21.6-13.7c-4.3-7.5-4.4-17.3-0.4-29.9
				c7.2-22.3,18.5-31.6,36.7-30.1c7.6,0.6,11.9,4.2,14.1,7c1,1.3,1.8,2.6,2.4,3.9c0.5-0.2,1-0.4,1.6-0.6c4.3-1.4,13.1-2.8,22.7,4
				c5.3,3.8,8.6,9.2,9.3,15.5c1.1,9.6-3.7,21.2-13.1,31.9l0,0C-908.3,352.9-919.4,356.2-930.4,356.2z M-939.4,292.3
				c-8.9,0-15.4,4.3-21,21.6c-2.9,8.9-3.1,15.6-0.7,19.8c2.1,3.6,6.5,6.2,13.4,7.7c17.9,3.9,29.5,3.8,39.7-7.8
				c7-8,10.8-16.3,10.1-22.2c-0.3-2.9-1.6-5-4.1-6.8c-4.6-3.3-8.6-3.2-11-2.5c-2.8,0.8-4.3,2.4-4.5,2.9c-1,3.1-4.2,4.9-7.4,4.2
				c-3.2-0.7-5.2-3.8-4.7-7c0.2-1.2,0.2-5.1-1.6-7.3c-0.4-0.5-1.6-2-5.3-2.3C-937.5,292.3-938.5,292.3-939.4,292.3z M-903.2,337.7
				L-903.2,337.7L-903.2,337.7z"/>
		</g>
		<g>
			<path class="st11" d="M-903.2,337.7c11.8-13.5,16.8-29.7,4.9-38.2c-11.9-8.5-23.4-1.8-25.1,3.5c0,0,2.4-15.5-12.6-16.8
				c-15-1.2-23.8,5.7-30.3,25.8c-6.5,20.1-1.2,31.4,17.4,35.5C-930.3,351.6-915.7,351.9-903.2,337.7z"/>
		</g>
		<g class="st10">
			<path class="st0" d="M-923.8,296.2c-0.9-0.2-1.9-0.4-3-0.5c-15-1.2-23.8,5.7-30.3,25.8c-3.1,9.5-3.5,17-1.2,22.8
				c-10.9-5.6-13.3-16.1-8-32.3c6.5-20.1,15.3-27,30.3-25.8C-927.8,286.9-924.8,291.9-923.8,296.2z"/>
		</g>
		<g>
			<path class="st11" d="M-903.2,337.7c-12.5,14.2-27.1,13.8-45.7,9.8c-3.6-0.8-6.7-1.9-9.3-3.2c-2.3-5.7-1.9-13.3,1.2-22.8
				c6.5-20.1,15.3-27,30.3-25.8c1.1,0.1,2.1,0.3,3,0.5c0.8,3.4,0.4,6.3,0.4,6.7c0.5-1.6,2-3.4,4-4.8c4.7-3.2,12.8-4.6,21,1.3
				c2.9,2.1,4.8,4.7,5.9,7.5C-889.3,315.8-894.3,327.6-903.2,337.7z"/>
		</g>
		<g>
			<path class="st1" d="M-997.7,351.7c-5.9,0-11.8-0.9-17.4-2.8c-11.3-3.8-19.7-11-23.1-19.8c-7.5-19.8-12.3-57.3,6.9-73.7
				c6.8-5.8,13.3-6.1,17.6-5.3c8.1,1.5,14.6,7.7,18.7,12.9c2.5-2.1,5.4-3.7,8.4-4.5c5.2-1.4,10.6-0.6,15.7,2.3
				c8.6,5,9,14.9,7.1,22.8c12.1,4.6,15.6,13.3,16.5,18.5c2.9,15.9-9.7,33.5-23,42l0,0C-978.1,349.1-987.8,351.7-997.7,351.7z
				 M-1017.2,262.2c-1.5,0-3.5,0.5-6,2.6c-13.4,11.5-9.9,42.5-3.3,59.9c2,5.3,7.6,9.8,15.3,12.4c11.4,3.8,24.9,2.4,34.2-3.5l0,0
				c11.1-7,19.1-20.4,17.4-29.3c-1-5.3-5.5-8.8-13.5-10.4c-1.9-0.4-3.4-1.6-4.3-3.3c-0.9-1.7-0.9-3.7-0.1-5.4c1-2.2,4-11.5,0.3-13.7
				c-2.2-1.3-4.2-1.6-6.1-1.1c-3,0.8-5.5,3.5-6.8,5.8c-1.1,2-3.2,3.2-5.5,3.2c-2.3,0-4.3-1.3-5.4-3.2c-1.8-3.2-8.4-12.7-15-13.9
				C-1016.2,262.2-1016.7,262.2-1017.2,262.2z"/>
		</g>
		<g>
			<path class="st11" d="M-973.6,338.8c20.1-12.8,33-44.6,1.9-51.1c0,0,7.2-16.1-2.3-21.6c-9.5-5.5-17.8,0.6-21.4,7.1
				c0,0-15.1-27.4-31.7-13.1c-16.7,14.3-11.7,49.3-5.1,66.8C-1025.6,344.4-994.2,351.9-973.6,338.8z"/>
		</g>
		<g class="st10">
			<path class="st0" d="M-970,282.7c-0.7-1.1-1.7-2.1-3.1-2.9c-9.5-5.5-17.8,0.6-21.5,7.1c0,0-15.1-27.4-31.7-13.1
				c-8.1,7-11.1,18.9-11.3,31.4c-2.2-16.6-0.8-35.5,10.4-45c16.7-14.3,31.7,13.1,31.7,13.1c3.7-6.5,11.9-12.6,21.4-7.1
				C-967.9,269.7-968.7,277.5-970,282.7z"/>
		</g>
		<g>
			<path class="st1" d="M-1054.3,359c-5.3,0-10.8-0.7-16.1-2.1c-11.1-2.9-19-8.7-22.2-16.2c-7.7-17.6-4.1-42.5,7.6-53.3
				c5.5-5,13.3-6.5,21.6-4.2c5.7,1.6,10.8,4.8,14.5,8.9c5.5-3.8,12.8-5.9,19.6-5.3c8,0.8,14,5.1,16.5,12c5.7,15.8-2,43-15.2,52.8
				l0,0C-1034.3,356.5-1044,359-1054.3,359z M-1031.8,346.8L-1031.8,346.8L-1031.8,346.8z M-1070.8,294.7c-1.9,0-4.1,0.4-5.7,2
				c-7,6.4-10.6,25.3-4.6,39.1c1.7,3.9,6.8,7.2,14,9.1c11.5,3,25.4,1.7,31.7-3.1l0,0c8.6-6.5,14.7-28.1,10.9-38.6
				c-0.3-0.9-1.2-3.4-5.9-3.9c-5.4-0.5-12.1,2.3-14.3,6.1c-1.3,2.1-3.7,3.3-6.2,3c-2.5-0.3-4.5-2.1-5.2-4.5c-1-3.5-5.6-7.2-10.6-8.6
				C-1067.6,295.1-1069.2,294.7-1070.8,294.7z"/>
		</g>
		<g>
			<path class="st11" d="M-1031.8,346.8c11.1-8.3,17.7-32.9,13-45.7c-4.7-12.8-25.5-8.7-31.4,1.2c-3.1-10.6-21.2-18.7-30.6-10.1
				s-12.9,30.5-6.1,46.2C-1080.1,353.9-1045.4,357-1031.8,346.8z"/>
		</g>
		<g class="st10">
			<path class="st0" d="M-1017.2,312.1c0-0.1-0.1-0.2-0.1-0.4c-4.7-12.8-25.5-8.7-31.4,1.2c-3.1-10.6-21.2-18.8-30.6-10.1
				c-6.2,5.7-9.9,17.3-9.7,29c-3.6-14.7,0.1-32.2,8.3-39.6c9.4-8.6,27.6-0.5,30.6,10.1c5.9-9.9,26.8-14,31.4-1.2
				C-1017.6,304.2-1017.1,308-1017.2,312.1z"/>
		</g>
		<g>
			<path class="st1" d="M-1136.5,359.1c-17.6,0-31.6-6.4-38.1-15l0,0c-11.6-15.2-8.8-31-0.8-39.8c7.2-8,20.4-12.4,35.1-6.1
				c3.4-4.8,9.4-11.4,18-13.8c7.9-2.1,16-0.3,24.1,5.3c11.5,8,16.9,20,14.9,33c-2.3,14.9-14.3,28-29.7,32.7
				C-1121.3,358-1129.2,359.1-1136.5,359.1z M-1164.7,336.6c6.5,8.5,25.5,13.8,48,7c11-3.3,19.4-12.4,21-22.7
				c1.3-8.2-2.1-15.6-9.7-20.8c-5.1-3.5-9.6-4.7-13.7-3.5c-8.3,2.2-13.3,12.5-13.3,12.6c-0.8,1.6-2.2,2.8-3.9,3.3
				c-1.7,0.5-3.5,0.3-5-0.6c-11.5-7-20.6-3.9-24.9,0.9C-1170.3,317.3-1172.4,326.4-1164.7,336.6L-1164.7,336.6z"/>
		</g>
		<g>
			<path class="st11" d="M-1169.6,340.3c-18.3-24,5.1-50,31.7-33.9c0,0,12.9-27.7,36.3-11.5s11.6,47.1-13.1,54.6
				C-1139.6,357-1161.5,351.1-1169.6,340.3z"/>
		</g>
		<g class="st10">
			<path class="st0" d="M-1091.9,305.7c-22-13.1-34.1,12.9-34.1,12.9c-24.7-15-46.6,6.5-34.9,28.8c-3.6-2-6.6-4.4-8.6-7.1
				c-18.3-24,5.1-50,31.7-33.9c0,0,12.9-27.7,36.3-11.5C-1097.2,298-1094,301.7-1091.9,305.7z"/>
		</g>
		<g>
			<path class="st1" d="M-840.5,643.7h-285.9c-3.1,0-5.7-2.2-6.2-5.2l-50.4-304c-0.3-1.8,0.2-3.7,1.4-5.1c1.2-1.4,2.9-2.2,4.8-2.2
				h386.7c1.8,0,3.6,0.8,4.8,2.2c1.2,1.4,1.7,3.2,1.4,5.1l-50.4,304C-834.8,641.5-837.4,643.7-840.5,643.7z M-1121.1,631.2h275.3
				l48.3-291.5h-372L-1121.1,631.2z"/>
		</g>
		<g>
			<polygon class="st6" points="-1176.8,333.5 -1126.4,637.5 -840.5,637.5 -790.1,333.5 			"/>
		</g>
		<g>
			<ellipse class="st11" cx="-988.7" cy="466.6" rx="138.5" ry="67.2"/>
		</g>
		<g class="st3">
			<polygon points="-790.1,333.5 -840.5,637.5 -1126.4,637.5 -1130.7,611.4 -874.3,611.4 -828.2,333.5 			"/>
		</g>
		<g class="st3">
			<polygon class="st0" points="-795.1,363.5 -1126.6,363.5 -1081.2,637.5 -1126.4,637.5 -1171.8,363.5 -1176.8,333.5 -790.1,333.5 
							"/>
		</g>
		<g>
			<path class="st1" d="M-840.5,643.7c-1.5,0-2.9-0.5-4-1.5c-1.7-1.4-2.5-3.6-2.1-5.8l50.4-304c0.4-2.3,2-4.1,4.1-4.9l90.3-31.3
				c2.2-0.7,4.6-0.3,6.2,1.3c1.7,1.5,2.4,3.9,1.9,6.1L-770.9,617c-0.5,2.1-2,3.7-4,4.4l-63.5,22
				C-839.1,643.6-839.8,643.7-840.5,643.7z M-784.6,338.2l-48.1,289.9l50.4-17.5l73.6-298.8L-784.6,338.2z"/>
		</g>
		<g>
			<polygon class="st14" points="-790.1,333.5 -699.8,302.2 -776.9,615.5 -840.5,637.5 			"/>
		</g>
		<g>
			<g>
				<path class="st11" d="M-946.7,296.5c2.4,0,2.4-3.7,0-3.7C-949.1,292.7-949.1,296.5-946.7,296.5L-946.7,296.5z"/>
			</g>
		</g>
	</g>
	<g>
		<g>
			<path class="st1" d="M-805.4,1251.6c-45.6,0-88.6-4.1-121-11.5c-36.1-8.3-54.4-19.5-54.4-33.4V995.3c0-3.4,2.8-6.2,6.2-6.2h338.2
				c3.4,0,6.2,2.8,6.2,6.2v211.4c0,13.9-18.3,25.2-54.4,33.4C-716.8,1247.5-759.7,1251.6-805.4,1251.6z M-968.2,1001.5v205.1
				c0,3.8,9.3,13.2,44.7,21.3c31.5,7.2,73.5,11.2,118.2,11.2c44.7,0,86.7-4,118.2-11.2c35.3-8.1,44.7-17.5,44.7-21.3v-205.1H-968.2z
				"/>
		</g>
		<g>
			<path class="st2" d="M-636.3,995.3v211.4c0,21.4-75.7,38.7-169.1,38.7c-93.4,0-169.1-17.3-169.1-38.7V995.3H-636.3z"/>
		</g>
		<g class="st3">
			<path d="M-636.3,995.3v211.4c0,21.4-75.7,38.7-169.1,38.7c-93.4,0-169.1-17.3-169.1-38.7v-7.3c31,8.8,78.6,14.5,132,14.5
				c93.4,0,169.1-17.3,169.1-38.7V995.3H-636.3z"/>
		</g>
		<g>
			<path class="st1" d="M-805.4,1040.2c-45.6,0-88.6-4.1-121-11.5c-36.1-8.3-54.4-19.5-54.4-33.4c0-13.9,18.3-25.2,54.4-33.4
				c32.4-7.4,75.3-11.5,121-11.5c45.6,0,88.6,4.1,121,11.5c36.1,8.3,54.4,19.5,54.4,33.4c0,13.9-18.3,25.2-54.4,33.4
				C-716.8,1036.1-759.7,1040.2-805.4,1040.2z M-805.4,962.8c-44.7,0-86.7,4-118.2,11.2c-35.3,8.1-44.7,17.5-44.7,21.3
				s9.3,13.2,44.7,21.3c31.5,7.2,73.5,11.2,118.2,11.2s86.7-4,118.2-11.2c35.3-8.1,44.7-17.5,44.7-21.3s-9.3-13.2-44.7-21.3
				C-718.7,966.8-760.7,962.8-805.4,962.8z"/>
		</g>
		<g>
			<ellipse class="st4" cx="-805.4" cy="995.3" rx="169.1" ry="38.7"/>
		</g>
		<g class="st3">
			<path d="M-636.3,995.3c0,7.2-8.5,13.9-23.4,19.7c0.1-0.5,0.2-1,0.2-1.5c0-21.4-75.7-38.7-169.1-38.7c-62,0-116.2,7.6-145.7,19
				c3.5-20.6,77.8-37.1,169-37.1C-712,956.6-636.3,973.9-636.3,995.3z"/>
		</g>
		<g>
			<path class="st1" d="M-805.4,1019.6c-3.3,0-6.7-0.2-10-0.5c-24-2.2-39.5-11.6-39.5-23.9c0-17.8,30.9-26.2,57.9-24
				c0,0,0.1,0,0.1,0c24.5,1.9,41,11.6,41,24C-755.9,1011.3-780.8,1019.6-805.4,1019.6z M-805.4,983.4c-24.4,0-37,8.3-37,11.9
				c0,3.2,9.4,9.7,28.2,11.5c2.9,0.3,5.9,0.4,8.8,0.4c23,0,37-7.7,37-11.9c0-3.2-10.1-10-29.4-11.6c0,0-0.1,0-0.1,0
				C-800.3,983.5-802.8,983.4-805.4,983.4z"/>
		</g>
		<g>
			<path class="st5" d="M-762.1,995.3c0,1.5-0.4,3-1.3,4.4c-4.7,7.9-21.7,13.7-42,13.7c-3.2,0-6.4-0.2-9.4-0.4
				c-17.7-1.6-31.3-7.8-33.5-15.4c-0.2-0.7-0.3-1.5-0.3-2.2c0-10,19.4-18.1,43.3-18.1c2.7,0,5.4,0.1,8,0.3h0
				C-777.3,979.1-762.1,986.4-762.1,995.3z"/>
		</g>
		<g>
			<path class="st6" d="M-762.1,995.3c0,10-19.4,18.1-43.3,18.1c-3.2,0-6.4-0.2-9.4-0.4l17.4-35.5h0
				C-777.3,979.1-762.1,986.4-762.1,995.3z"/>
		</g>
		<g class="st7">
			<path class="st0" d="M-955.4,1056v108.1c0,6.1,4.5,11.3,10.5,12.2c22.1,3.3,76.1,9.9,131.8,6.3c6.5-0.4,11.4-5.8,11.4-12.3V1069
				c0-6.8-5.5-12.3-12.3-12.3c-23.6,0-77.4-1.4-126.3-12.7C-948,1042.2-955.4,1048-955.4,1056z"/>
		</g>
		<g class="st3">
			<path d="M-762.1,995.3c0,1.5-0.4,3-1.3,4.4c-29.7-12.6-65.9-14.5-84.9-2.2c-0.2-0.7-0.3-1.5-0.3-2.2c0-10,19.4-18.1,43.3-18.1
				c2.7,0,5.4,0.1,8,0.3h0C-777.3,979.1-762.1,986.4-762.1,995.3z"/>
		</g>
	</g>
	<g>
		<g>
			<path class="st1" d="M-1724.5,1920.3c-56.6,0-116.8-16.1-116.8-45.9c0-29.8,60.2-45.9,116.8-45.9c56.6,0,116.8,16.1,116.8,45.9
				C-1607.7,1904.2-1667.9,1920.3-1724.5,1920.3z M-1724.5,1841c-59.7,0-104.4,17.6-104.4,33.4c0,15.8,44.6,33.4,104.4,33.4
				c59.7,0,104.4-17.6,104.4-33.4C-1620.2,1858.6-1664.8,1841-1724.5,1841z"/>
		</g>
		<g>
			<ellipse class="st15" cx="-1724.5" cy="1874.4" rx="110.6" ry="39.6"/>
		</g>
		<g class="st3">
			<path d="M-1613.9,1874.4c0,18.4-35.1,33.9-82.7,38.4c32-6.9,53.4-19.5,53.4-33.9c0-21.9-49.5-39.6-110.6-39.6
				c-9.7,0-19,0.4-27.9,1.3c16.7-3.6,36.3-5.7,57.2-5.7C-1663.5,1834.7-1613.9,1852.5-1613.9,1874.4z"/>
		</g>
		<g>
			<path class="st1" d="M-1724.5,1877.9c-5.7,0-11.5-2.9-16.8-8.4c-11.7-12.2-19.4-35-18.6-55.6c0.1-3.4,2.9-6,6.2-6h58.4
				c3.4,0,6.1,2.7,6.2,6c0.8,20.6-6.9,43.5-18.6,55.6C-1713,1875-1718.8,1877.9-1724.5,1877.9z M-1747.5,1820.3
				c0.9,17.2,7.9,33,15.1,40.5c2.8,2.9,5.6,4.6,7.8,4.6c2.2,0,5-1.6,7.8-4.6c7.2-7.5,14.2-23.3,15.1-40.5H-1747.5z"/>
		</g>
		<g>
			<path class="st15" d="M-1724.5,1871.7c-1.1,0-2.1-0.2-3.2-0.5c-11-3.1-22.1-21.7-25.2-42.8c-0.7-4.7-1-9.5-0.8-14.3h58.4
				C-1694.3,1842.6-1710.1,1871.7-1724.5,1871.7z"/>
		</g>
		<g class="st3">
			<path d="M-1724.5,1871.7c-1.1,0-2.1-0.2-3.2-0.5c9.6-7.3,12.5-20.6,13.3-27.8c0.3-2.5-1.7-4.8-4.2-4.8
				c-12.7-0.2-27.3-3.6-34.3-10.1c0,0,1.2-7.7,3.3-14.3h54.3C-1694.3,1842.6-1710.1,1871.7-1724.5,1871.7z"/>
		</g>
		<g>
			<path class="st1" d="M-1724.5,1831.1c-42.3,0-76-13-100-38.6c-48.1-51.2-49-141.4-44.4-214.3c5.3-84.7-3.4-111-9.1-128.4
				c-0.6-1.8-1.1-3.5-1.7-5.1c-0.6-1.9-0.2-3.9,0.9-5.5c1.2-1.6,3-2.5,5-2.5h298.6c2,0,3.8,0.9,5,2.5c1.2,1.6,1.5,3.7,0.9,5.5
				c-0.5,1.6-1.1,3.3-1.7,5.1c-5.7,17.4-14.4,43.7-9.1,128.4c4.6,72.9,3.6,163.2-44.4,214.3
				C-1648.6,1818.1-1682.2,1831.1-1724.5,1831.1z M-1865.2,1449c6,18.4,13.8,47.7,8.7,130c-4.4,70.4-3.7,157.3,41.1,205
				c21.6,23,52.2,34.7,90.9,34.7c38.7,0,69.3-11.7,90.9-34.7c44.8-47.7,45.5-134.6,41.1-205c-5.1-82.2,2.7-111.5,8.7-130H-1865.2z"
				/>
		</g>
		<g>
			<path class="st15" d="M-1575.2,1442.8c-5.5,17.7-17,41.3-11.1,135.8s5.3,246.3-138.2,246.3s-144.1-151.8-138.2-246.3
				s-5.6-118.1-11.1-135.8H-1575.2z"/>
		</g>
		<g>
			<path class="st1" d="M-1724.5,1819.9c-39.6,0-69.7-11.5-91.8-35c-45.1-48-45.8-135.3-41.4-206c0.9-14.7,1.5-28.3,1.6-40.7l0-0.2
				c0-0.9,0-1.8,0-2.7c0-0.5,0.1-1,0.2-1.5c2.4-10.1,16.7-17.8,43.7-23.6c23.8-5.1,55-7.9,87.8-7.9s63.9,2.8,87.8,7.9
				c26.9,5.8,41.2,13.5,43.7,23.6c0.1,0.5,0.2,1,0.2,1.5c0,1,0,1.9,0,2.9c0.2,12.3,0.7,26,1.6,40.7c4.4,70.7,3.7,158-41.4,206l0,0
				C-1654.9,1808.4-1684.9,1819.9-1724.5,1819.9z M-1843.7,1536.3c0,0.6,0,1.2,0,1.9l0,0.2c-0.2,12.5-0.7,26.4-1.6,41.3
				c-4.3,68.2-3.8,152.1,38.1,196.6c19.7,20.9,46.7,31.1,82.7,31.1c36,0,63.1-10.2,82.7-31.1l0,0c41.8-44.5,42.3-128.5,38.1-196.6
				c-0.9-14.9-1.5-28.8-1.6-41.3c0-0.7,0-1.4,0-2.1c-1.3-2.4-9.1-8.5-34-13.9c-23-4.9-53.3-7.6-85.2-7.6c-31.9,0-62.2,2.7-85.2,7.6
				C-1834.6,1527.7-1842.4,1533.9-1843.7,1536.3z"/>
		</g>
		<g>
			<path class="st16" d="M-1637.3,1780.5c-20.9,22.3-49.5,33.1-87.3,33.1s-66.4-10.8-87.3-33.1c-43.5-46.3-44.1-131.9-39.7-201.3
				c1-15.4,1.5-29,1.6-41c0,0,0,0,0,0c0-1,0-2,0-3c3.6-14.9,58.4-26.7,125.4-26.7s121.8,11.8,125.4,26.7c0,1,0,2,0,3c0,0,0,0,0,0
				c0.1,12,0.7,25.6,1.6,41C-1593.2,1648.7-1593.8,1734.3-1637.3,1780.5z"/>
		</g>
		<g>
			<path class="st1" d="M-1724.5,1571.3c-32.8,0-64.1-2.8-87.9-7.9c-27-5.8-41.3-13.5-43.6-23.7c0-0.1,0-0.1,0-0.2
				c-0.2-0.8-0.3-1.7-0.3-2.6c0-1,0.1-2,0.4-3c2.4-10.1,16.7-17.8,43.7-23.6c23.8-5.1,55-7.9,87.8-7.9s63.9,2.8,87.8,7.9
				c26.9,5.8,41.2,13.5,43.7,23.6c0.2,1,0.4,2,0.4,3c0,0.9-0.1,1.8-0.3,2.6c0,0.1,0,0.1,0,0.2c-2.3,10.2-16.6,17.9-43.6,23.7
				C-1660.5,1568.5-1691.7,1571.3-1724.5,1571.3z M-1843.8,1536.9c0.6,2.1,7.7,8.6,34,14.2c23,4.9,53.3,7.7,85.3,7.7
				c32,0,62.3-2.7,85.3-7.7c26.2-5.6,33.4-12.1,34-14.2c0,0,0-0.1,0-0.1l0,0c0,0,0,0,0-0.1c-0.5-2.1-7.6-8.6-34.1-14.3
				c-23-4.9-53.3-7.6-85.2-7.6c-31.9,0-62.2,2.7-85.2,7.6c-26.5,5.7-33.6,12.2-34.1,14.3L-1843.8,1536.9
				C-1843.9,1536.9-1843.8,1536.9-1843.8,1536.9z M-1599.1,1538.3L-1599.1,1538.3L-1599.1,1538.3z"/>
		</g>
		<g>
			<path class="st6" d="M-1599,1536.8c0,0.5,0,1-0.2,1.4c0,0,0,0,0,0c-3.4,14.9-58.2,26.8-125.4,26.8c-67.2,0-122-11.9-125.4-26.8
				c0,0,0,0,0,0c-0.1-0.5-0.2-1-0.2-1.4c0-0.5,0.1-1,0.2-1.5c3.6-14.9,58.4-26.7,125.4-26.7s121.8,11.8,125.4,26.7
				C-1599,1535.8-1599,1536.3-1599,1536.8z"/>
		</g>
		<g class="st3">
			<path d="M-1586.3,1578.5c5.9,94.5,5.3,246.3-138.2,246.3c-38.3,0-66.4-10.8-86.9-28.4c17.1,8.3,38,13,63.2,13
				c143.5,0,144.1-151.8,138.2-246.3c-4.4-70.7,0.9-101.7,6.2-120.3h28.6C-1580.7,1460.5-1592.2,1484.1-1586.3,1578.5z"/>
		</g>
		<g>
			<path class="st1" d="M-1695.8,1543h-46.2c-2,0-3.9-1-5.1-2.6c-1.2-1.6-1.5-3.8-0.8-5.7l21.2-61.2c0.9-2.5,3.2-4.2,5.9-4.2
				c15.9-0.1,31.5-0.7,46.4-2c2.1-0.2,4.1,0.7,5.4,2.4c1.3,1.7,1.7,3.9,1,5.9l-21.8,63.2C-1690.7,1541.4-1693.1,1543-1695.8,1543z
				 M-1733.2,1530.6h33l17.3-50c-10.9,0.7-22.1,1.1-33.4,1.3L-1733.2,1530.6z"/>
		</g>
		<g>
			<path class="st11" d="M-1673.9,1473.6l-21.8,63.2h-46.2l21.2-61.2C-1704.4,1475.5-1688.6,1474.8-1673.9,1473.6z"/>
		</g>
		<g class="st17">
			<g>
				<path class="st15" d="M-1673.9,1473.6l-21.8,63.2h-46.2l21.2-61.2c5.2,0,10.4-0.1,15.4-0.3
					C-1694.5,1475-1684,1474.5-1673.9,1473.6z"/>
			</g>
		</g>
		<g>
			<ellipse class="st16" cx="-1780.7" cy="1541.1" rx="8.5" ry="5.9"/>
		</g>
		<g>
			<ellipse class="st16" cx="-1660.4" cy="1534" rx="13.4" ry="9"/>
		</g>
		<g>
			<ellipse class="st14" cx="-1840.2" cy="1618.3" rx="9.9" ry="40.5"/>
		</g>
		<g>
			<ellipse class="st14" cx="-1790.1" cy="1692" rx="24.4" ry="26.6"/>
		</g>
		<g>
			<circle class="st14" cx="-1686.1" cy="1626.8" r="19.2"/>
		</g>
		<g>
			<circle class="st14" cx="-1703.7" cy="1702.2" r="8.3"/>
		</g>
		<g class="st17">
			<path class="st0" d="M-1836.9,1532.6c-6.6,0-12-5.3-12.2-11.9c-0.1-3.4-0.2-6.9-0.3-10.5c-0.3-7.1,5.4-13.1,12.5-13.1
				c6.8,0,12.4,5.5,12.6,12.3c0.1,3.5,0.1,7.1,0.1,10.8c0,6.8-5.4,12.3-12.2,12.3H-1836.9z"/>
		</g>
		<g class="st17">
			<path class="st0" d="M-1829.6,1726.2h-0.8c-5.9,0-11-4.1-12.3-9.9c-2.1-10-5.2-27.8-7.4-55.2c-2.5-31.3,0.3-60.6,1.1-100.3
				c0.1-6.7,5.5-12,12.2-12l0,0c6.8,0,12.3,5.6,12.2,12.4c-0.2,15.5-0.5,33.5-0.6,54.9c-0.3,39.9,4.7,76.1,8,95.4
				C-1815.9,1719.2-1821.8,1726.2-1829.6,1726.2z"/>
		</g>
		<g>
			<path class="st1" d="M-1724.5,1481.9c-75,0-155.6-12.6-155.6-40.4c0-27.8,80.7-40.4,155.6-40.4c9.1,0,18.4,0.2,27.4,0.6
				c15.9,0.7,31.2,1.9,45.5,3.7c37.8,4.8,82.8,14.9,82.8,36.1c0,26.9-73.1,35.8-104.5,38.4c-15.2,1.3-31.1,1.9-47.4,2
				C-1722,1481.9-1723.3,1481.9-1724.5,1481.9z M-1724.5,1413.6c-39.4,0-76.5,3.5-104.3,9.8c-31.9,7.3-38.9,15.5-38.9,18.1
				c0,2.6,7,10.8,38.9,18.1c27.8,6.4,64.8,9.8,104.3,9.8c1.2,0,2.5,0,3.7,0c15.9-0.1,31.6-0.7,46.4-2c65.8-5.4,93-19.6,93-25.9
				c0-4.8-17.6-16.9-71.9-23.7c-13.9-1.8-28.9-3-44.4-3.6C-1706.5,1413.8-1715.6,1413.6-1724.5,1413.6z"/>
		</g>
		<g>
			<path class="st18" d="M-1575.1,1441.5c0,6.5-7.9,12.6-21.6,17.7c-17.6,6.6-44.8,11.8-77.1,14.4c-14.7,1.2-30.5,1.9-46.9,2
				c-1.2,0-2.5,0-3.7,0c-54.1,0-101.6-6.6-127.8-16.4c-13.7-5.2-21.6-11.2-21.6-17.7c0-18.9,66.9-34.2,149.4-34.2
				c9.3,0,18.4,0.2,27.1,0.6c16,0.7,31.1,1.9,44.9,3.7C-1606.3,1417.4-1575.1,1428.6-1575.1,1441.5z"/>
		</g>
		<g>
			<path class="st1" d="M-1720.8,1481.9c-2,0-3.9-1-5.1-2.6c-1.2-1.6-1.5-3.8-0.8-5.7l34-98.4c11-31.9,46-49,77.9-38.1l124.1,42.2
				c2.3,0.8,4,2.9,4.2,5.4c3.4,39.5-20.7,46.6-21.7,46.8c-1.2,0.3-2.5,0.3-3.6-0.1l-121-41.2c-2.8-0.9-5.8,0.5-6.8,3.3l-28.4,82.2
				c-0.8,2.3-2.9,4-5.4,4.2C-1688.6,1481.1-1704.5,1481.8-1720.8,1481.9C-1720.8,1481.9-1720.8,1481.9-1720.8,1481.9z
				 M-1634.5,1346.3c-20.3,0-39.4,12.8-46.4,33l-31.1,90.1c11.4-0.2,22.7-0.7,33.5-1.5l27.1-78.3c3.2-9.2,13.3-14.2,22.6-11
				l118.7,40.4c3.6-1.9,12.1-8.7,11.4-29.1l-120.1-40.9C-1624,1347.1-1629.3,1346.3-1634.5,1346.3z"/>
		</g>
		<g>
			<path class="st11" d="M-1509.9,1425.5l-121-41.2c-6-2-12.6,1.2-14.7,7.2l-6.9,20.1l-21.5,62.1c-10,0.8-20.6,1.4-31.5,1.7
				c-5.1,0.1-10.2,0.2-15.4,0.3l23.4-67.7l10.6-30.7c9.3-26.8,37.4-42,64.6-35.8c1.8,0.4,3.6,0.9,5.4,1.5l124.1,42.2
				C-1489.7,1420-1509.9,1425.5-1509.9,1425.5z"/>
		</g>
		<g>
			<path class="st1" d="M-1509.9,1431.7c-1.1,0-2.3-0.3-3.3-0.9c-1.5-0.9-2.5-2.4-2.8-4.1c-2.7-13.6,2.3-34,19.6-46.6
				c1.8-1.3,4.2-1.6,6.3-0.6c2,0.9,3.4,2.9,3.6,5.1c3.4,39.5-20.7,46.6-21.7,46.8C-1508.8,1431.7-1509.3,1431.7-1509.9,1431.7z
				 M-1499.6,1402.2c-1.8,3.3-3.1,6.7-3.8,10.1C-1501.9,1409.8-1500.5,1406.5-1499.6,1402.2z"/>
		</g>
		<g>
			<path class="st19" d="M-1509.9,1425.5c-0.5-2.3-0.6-4.8-0.6-7.3c0.3-9.2,4-19.4,11.5-27.4c1.8-2,3.9-3.9,6.3-5.6
				C-1489.7,1420-1509.9,1425.5-1509.9,1425.5z"/>
		</g>
		<g class="st3">
			<path d="M-1499,1390.8c-0.6,15.7-6.7,23.6-11.5,27.4C-1510.2,1409-1506.4,1398.8-1499,1390.8z"/>
		</g>
		<g class="st10">
			<path class="st0" d="M-1622.2,1341.4c-23.9,3.5-38.9,15.9-47.8,37.2c-9.8,23.5-19.4,50.3-35.4,96.7c-6,17.4-12.9,37.6-21.1,61.4
				h-15.5l21.2-61.2l23.4-67.7l10.6-30.7C-1677.5,1350.4-1649.3,1335.2-1622.2,1341.4z"/>
		</g>
	</g>
	<g>
		<g>
			<path class="st1" d="M230.4,194.3c-4,0-7.8-0.9-11.4-2.5c-13.4-6.3-19.2-22.3-12.9-35.7l48.4-103.2c5.4-11.6,15.1-20.4,27.1-24.7
				c12.1-4.3,25.1-3.7,36.7,1.8L442,88.6c1.9,0.9,3.2,2.7,3.5,4.7c2,13.9-6.2,37.6-23.7,43.2c-1.5,0.5-3.1,0.4-4.6-0.3L300.6,80.9
				l-45.9,97.9C250.3,188.2,240.7,194.3,230.4,194.3z M297.9,37.8c-4,0-8.1,0.7-12,2.1c-8.9,3.2-16,9.7-20.1,18.3l-48.4,103.2
				c-3.4,7.2-0.3,15.7,6.9,19.1c1.9,0.9,4,1.4,6.1,1.4c5.5,0,10.6-3.2,13-8.3l48.4-103.2c0.1-0.2,0.2-0.4,0.3-0.6
				c0.9-1.6,2.3-2.4,3.4-2.8c1.8-0.7,3.7-0.6,5.3,0.3l119.3,56.6c8-4.2,13.1-16.7,13.2-25.5L313,41.2
				C308.2,38.9,303,37.8,297.9,37.8z"/>
		</g>
		<g>
			<path class="st6" d="M419.9,130.6L298,72.8c-0.1,0-0.2-0.1-0.3,0c-0.2,0.1-0.2,0.2-0.2,0.2L249,176.2
				c-3.5,7.5-10.9,11.8-18.6,11.8c-2.9,0-5.9-0.6-8.7-1.9c-10.3-4.8-14.7-17.1-9.9-27.4l1-2l47.5-101.2
				c4.7-10.1,13.1-17.7,23.6-21.5c0.3-0.1,0.6-0.2,0.8-0.3c10.3-3.5,21.2-2.8,31,1.8l123.7,58.6
				C441.1,106.3,433.3,126.3,419.9,130.6z"/>
		</g>
		<g class="st3">
			<path class="st0" d="M284.6,33.7l-57,117.7c0,0-6.4,3.2-14.9,5.2l47.5-101.2c4.7-10.1,13.1-17.7,23.6-21.5
				C284.1,33.9,284.3,33.8,284.6,33.7z"/>
		</g>
		<g>
			<path class="st1" d="M255.4,615.9c-30.8,0-63.4-4.6-96.9-13.8c-28.3-7.7-46.4-15.8-47.1-16.1c-2-0.9-3.3-2.7-3.6-4.8L57.2,214.7
				c-0.2-1.8,0.3-3.6,1.5-5c1.2-1.4,2.9-2.1,4.7-2.1h384.1c1.8,0,3.5,0.8,4.7,2.1c1.2,1.4,1.7,3.2,1.5,5L421.1,451l-18,130.3
				c-0.3,2.1-1.7,4-3.6,4.8C396.7,587.3,331.9,615.9,255.4,615.9z M119.7,576c6.3,2.6,21.5,8.5,42.1,14.1
				c32.4,8.9,63.9,13.3,93.6,13.3c64.5,0,121.9-21.8,135.7-27.5l17.5-126.7l31.7-229.2H70.5L119.7,576z"/>
		</g>
		<g>
			<path class="st6" d="M447.5,213.8l-32.7,236.3l-18,130.3c0,0-65.4,29.3-141.4,29.3c-36.1,0-69.8-6.6-95.2-13.6
				c-28.2-7.7-46.2-15.8-46.2-15.8L98.7,469.8l-35.4-256H447.5z"/>
		</g>
		<g>
			<path class="st11" d="M447.5,213.8l-32.7,236.3c-17.1,14.3-38.2,22.2-66.2,22.9c-47.3,1-98.8-50.3-148.9-10.9
				c-37.5,29.5-40.4,100.3-39.5,134.1c-28.2-7.7-46.2-15.8-46.2-15.8L98.7,469.8c17.6-69.4,49.6-139.4,102.4-167.8
				c64.9-35,84.3-42.2,97.7-88.2H447.5z"/>
		</g>
		<g>
			<path class="st11" d="M223,477.8c25.3,1.6,43.1,17.2,51.3,43.8c8.1,26.7,19.7,43.4,43.8,33.4c24.1-10,24.6-44.3-2.1-64.3
				C289.3,470.9,245.8,469.1,223,477.8z"/>
		</g>
		<g class="st3">
			<path class="st0" d="M160.6,596.3c-0.1,0-0.3-0.1-0.4-0.1c-28.2-7.7-46.2-15.8-46.2-15.8L98.7,469.8l-35.4-256h48.2l35.4,276
				L160.6,596.3z"/>
		</g>
		<g class="st3">
			<path d="M350.3,596.3c0.1,0,0.3-0.1,0.4-0.1c28.2-7.7,46.2-15.8,46.2-15.8l15.3-110.5l35.4-256h-48.2l-35.4,276L350.3,596.3z"/>
		</g>
		<g>
			<path class="st11" d="M200.1,499.3c9.7,3.5,13.6,9.2,15.3,16.7c1.7,7.5,9.2,11.8,14.7,6.8s5-17.9-7.2-22.7
				C210.8,495.2,202.8,498.4,200.1,499.3z"/>
		</g>
		<g>
			<path class="st1" d="M466.3,273.9c-0.9,0-1.9-0.2-2.7-0.6c-13.9-6.8-30-13-48-18.4c-2.1-0.7-4.3-1.3-6.5-1.9
				c-21.6-6.1-45-11-69.6-14.3c-2.2-0.3-4.5-0.6-6.7-0.9c-23.8-2.9-48.6-4.5-73.9-4.6c-1.2,0-2.3,0-3.5,0c-1.1,0-2.2,0-3.3,0
				c-25.3,0.1-50.2,1.7-74,4.6c-2.3,0.3-4.5,0.6-6.7,0.9c-24.5,3.3-47.9,8.1-69.5,14.3c-2.2,0.6-4.4,1.3-6.5,1.9
				c-18,5.4-34.1,11.6-48,18.4c-1.5,0.7-3.2,0.8-4.8,0.3c-1.6-0.6-2.9-1.7-3.6-3.3c-0.7-1.5-16.5-36.3-9.8-77.4
				c0.2-1.5,1.1-2.9,2.3-3.9c15.8-12.6,36-23.4,60.2-31.8c2.2-0.8,4.6-1.6,7.6-2.6c21.7-7,46.3-12.2,73.3-15.7
				c2.5-0.3,5-0.6,7.6-0.9c22.4-2.5,46.6-3.9,71.9-4c2.2,0,4.6,0,7,0c25.2,0.1,49.4,1.4,71.8,4c2.6,0.3,5.1,0.6,7.6,0.9
				c27,3.5,51.7,8.7,73.3,15.7c2.5,0.8,5,1.6,7.6,2.6c24.2,8.5,44.5,19.2,60.2,31.8c1.2,1,2,2.3,2.3,3.9c6.7,41.1-9.1,75.9-9.8,77.4
				c-0.7,1.5-2,2.7-3.6,3.3C467.7,273.8,467,273.9,466.3,273.9z M41.1,197.3c-3.8,27,3,51.2,6.8,61.9c13-6,27.7-11.4,43.8-16.3
				c2.2-0.7,4.4-1.3,6.7-2c22.2-6.3,46.1-11.2,71.3-14.6c2.3-0.3,4.6-0.6,6.9-0.9c24.2-3,49.6-4.6,75.4-4.7c2.2,0,4.6,0,7,0
				c25.7,0.1,51.1,1.7,75.3,4.7c2.3,0.3,4.6,0.6,6.9,0.9c25.1,3.4,49.1,8.3,71.3,14.6c2.3,0.6,4.5,1.3,6.7,2
				c16,4.8,30.7,10.3,43.8,16.2c3.8-10.7,10.6-35,6.8-61.9c-14.4-11.1-32.7-20.6-54.7-28.3c-2.5-0.9-4.9-1.7-7.3-2.4
				c-20.9-6.7-44.8-11.8-71.1-15.2c-2.5-0.3-4.9-0.6-7.4-0.9c-22-2.5-45.7-3.8-70.5-3.9c-1.2,0-2.3,0-3.5,0c-1.1,0-2.2,0-3.3,0
				c-24.9,0.1-48.6,1.4-70.6,3.9c-2.5,0.3-5,0.6-7.4,0.9c-26.2,3.3-50.1,8.5-71.1,15.2c-2.8,0.9-5.1,1.7-7.3,2.4
				C73.9,176.6,55.5,186.2,41.1,197.3z"/>
		</g>
		<g>
			<path class="st15" d="M466.3,267.7c-13.1-6.4-29.5-12.9-48.9-18.8c-2.2-0.7-4.4-1.3-6.6-1.9c-20.4-5.8-44-10.9-70.4-14.5
				c-2.3-0.3-4.5-0.6-6.8-0.9c-22.8-2.8-47.8-4.5-74.7-4.7c-1.1,0-2.3,0-3.4,0c-1.2,0-2.3,0-3.4,0c-26.9,0.1-51.8,1.8-74.7,4.7
				c-2.3,0.3-4.6,0.6-6.8,0.9c-26.5,3.6-50,8.6-70.4,14.5c-2.2,0.6-4.4,1.3-6.6,1.9c-19.4,5.9-35.8,12.4-49,18.8
				c0,0-15.8-34.1-9.3-73.8c15-12.1,34.5-22.5,58.4-30.8c2.4-0.9,4.9-1.7,7.4-2.5c21-6.7,45.1-12,72.2-15.4c2.5-0.3,5-0.6,7.5-0.9
				c21.9-2.5,45.6-3.8,71.2-3.9c1.1,0,2.3,0,3.4,0c1.2,0,2.3,0,3.4,0c25.6,0.1,49.3,1.5,71.2,3.9c2.5,0.3,5,0.6,7.5,0.9
				c27.1,3.5,51.2,8.7,72.2,15.4c2.5,0.8,5,1.6,7.4,2.5c23.8,8.4,43.4,18.8,58.4,30.8C482.1,233.6,466.3,267.7,466.3,267.7z"/>
		</g>
		<g>
			<path class="st18" d="M258.9,140.3V227c-1.1,0-2.3,0-3.4,0c-1.2,0-2.3,0-3.4,0v-86.6c1.1,0,2.3,0,3.4,0
				C256.6,140.3,257.7,140.3,258.9,140.3z"/>
		</g>
		<g>
			<path class="st18" d="M180.4,146.4c-6.7,11.4-9.6,51.9-3.1,85c0,0.1,0,0.2,0,0.2c-2.3,0.3-4.6,0.6-6.8,0.9
				c-6.1-31-4.7-71.2,2.8-87.3c2.5-0.3,5-0.6,7.5-0.9C180.9,145,180.8,145.7,180.4,146.4z"/>
		</g>
		<g>
			<path class="st18" d="M101.1,162.9c-10.9,28.2-7.6,66.8-1,83.8c0,0.1,0.1,0.2,0.1,0.3c-2.2,0.6-4.4,1.3-6.6,1.9
				c-6.7-17.6-10.1-56.4,0.2-85.8c2.4-0.9,4.9-1.7,7.4-2.5C101.4,161.3,101.4,162.1,101.1,162.9z"/>
		</g>
		<g>
			<path class="st18" d="M340.3,232.5c-2.3-0.3-4.5-0.6-6.8-0.9c0-0.1,0-0.2,0-0.2c6.5-33.1,3.7-73.6-3.1-85
				c-0.4-0.7-0.5-1.4-0.4-2.1c2.5,0.3,5,0.6,7.5,0.9C345,161.3,346.4,201.4,340.3,232.5z"/>
		</g>
		<g>
			<path class="st18" d="M417.4,248.9c-2.2-0.7-4.4-1.3-6.6-1.9c0-0.1,0.1-0.2,0.1-0.3c6.6-17,9.8-55.5-1-83.8
				c-0.3-0.8-0.3-1.6-0.1-2.3c2.5,0.8,5,1.6,7.4,2.5C427.5,192.5,424,231.3,417.4,248.9z"/>
		</g>
		<g>
			<path class="st1" d="M419.9,136.8c-1.2,0-2.3-0.3-3.3-1c-1.6-1-2.6-2.6-2.9-4.5c-2.2-16.3,8.1-39.3,24.1-43.3
				c1.7-0.4,3.5-0.1,5,0.9c1.5,1,2.4,2.5,2.7,4.3c2,13.9-6.2,37.6-23.7,43.2C421.2,136.7,420.6,136.8,419.9,136.8z M431.5,108.2
				c-1.5,2.4-2.7,5-3.7,7.8C429.3,113.6,430.6,111,431.5,108.2z"/>
		</g>
		<g>
			<path class="st16" d="M419.9,130.6c-1.7-13.1,6.5-33.2,19.4-36.4C441.1,106.3,433.3,126.3,419.9,130.6z"/>
		</g>
		<g class="st20">
			<path class="st0" d="M274,140.5c-19.9,0.5-38.6,1.7-56.1,3.7c-2.5,0.3-5,0.6-7.5,0.9c-27.1,3.5-51.2,8.7-72.2,15.4
				c-2.5,0.8-5,1.6-7.4,2.5c-23.9,8.4-43.4,18.8-58.4,30.8c-4,24.5,0.5,46.9,4.5,60.4c-12.3,4.3-23.1,8.9-32.3,13.4
				c0,0-15.8-34.1-9.3-73.8c15-12.1,34.5-22.5,58.4-30.8c2.4-0.9,4.9-1.7,7.4-2.5c21-6.7,45.1-12,72.2-15.4c2.5-0.3,5-0.6,7.5-0.9
				c21.9-2.5,45.6-3.8,71.2-3.9c1.1,0,2.3,0,3.4,0c1.2,0,2.3,0,3.4,0C264,140.3,269,140.4,274,140.5z"/>
		</g>
		<g class="st3">
			<path d="M236.9,140.5c19.9,0.5,38.6,1.7,56.1,3.7c2.5,0.3,5,0.6,7.5,0.9c27.1,3.5,51.2,8.7,72.2,15.4c2.5,0.8,5,1.6,7.4,2.5
				c23.9,8.4,43.4,18.8,58.4,30.8c4,24.5-0.5,46.9-4.5,60.4c12.3,4.3,23.1,8.9,32.3,13.4c0,0,15.8-34.1,9.3-73.8
				c-15-12.1-34.5-22.5-58.4-30.8c-2.4-0.9-4.9-1.7-7.4-2.5c-21-6.7-45.1-12-72.2-15.4c-2.5-0.3-5-0.6-7.5-0.9
				c-21.9-2.5-45.6-3.8-71.2-3.9c-1.1,0-2.3,0-3.4,0c-1.2,0-2.3,0-3.4,0C246.9,140.3,241.9,140.4,236.9,140.5z"/>
		</g>
	</g>
	<g>
		<g>
			<path class="st1" d="M-1546.3,928.1c-0.9,0-1.9-0.2-2.8-0.6l-32.1-15.8c-3-1.5-4.3-5-3-8l93.1-220c0.7-1.6,2-2.8,3.6-3.4
				c1.6-0.6,3.4-0.5,4.9,0.3l36,17.9c3,1.5,4.3,5.1,2.9,8.1l-97.1,217.9c-0.7,1.5-2,2.8-3.6,3.3
				C-1544.9,927.9-1545.6,928.1-1546.3,928.1z M-1570.3,903l21,10.3l92-206.5l-24.7-12.3L-1570.3,903z"/>
		</g>
		<g>
			<polygon class="st21" points="-1449.2,703.9 -1546.3,921.8 -1578.4,906 -1485.2,686 			"/>
		</g>
		<g>
			<path class="st1" d="M-1625.3,903.2c-0.4,0-0.8,0-1.2-0.1l-55.8-10.7c-1.8-0.3-3.4-1.5-4.3-3.1c-0.9-1.6-1-3.5-0.4-5.2
				l86.1-227.9c0.9-2.4,3.2-4,5.8-4h39.7c1.6,0,3.1,0.6,4.2,1.6l25.1,23c1.8,1.6,2.5,4.2,1.7,6.5l-61,194.4c-0.5,1.6-1.7,3-3.2,3.8
				c-1.6,0.7-3.3,0.8-4.9,0.2l-17.8-6.8l-8.2,24.2C-1620.3,901.6-1622.7,903.2-1625.3,903.2z M-1672.6,881.5l43.1,8.3l8.5-25.2
				c0.5-1.6,1.7-2.9,3.3-3.6c1.5-0.7,3.3-0.8,4.9-0.2l17.7,6.8l57.8-184.3l-20.4-18.7h-33L-1672.6,881.5z"/>
		</g>
		<g>
			<polygon class="st11" points="-1595,658.4 -1554.6,687.7 -1530.2,681.4 -1555.3,658.4 			"/>
		</g>
		<g>
			<polygon class="st21" points="-1554.6,687.7 -1625.3,897 -1681,886.3 -1595,658.4 			"/>
		</g>
		<g>
			<polygon class="st22" points="-1530.2,681.4 -1591.2,875.8 -1615,866.7 -1554.6,687.7 			"/>
		</g>
		<g>
			<path class="st1" d="M-1509.6,922.1c-1.1,0-2.1-0.3-3.1-0.8l-50.9-28.9c-1.4-0.8-2.5-2.2-2.9-3.8c-0.4-1.6-0.2-3.3,0.6-4.7
				l95.9-168.2c0.9-1.6,2.4-2.7,4.2-3c1.8-0.4,3.6,0.1,5,1.1l39.3,29.7c2.4,1.8,3.2,5.1,1.8,7.8l-84.3,167.4
				c-0.8,1.5-2.1,2.7-3.8,3.2C-1508.4,922-1509,922.1-1509.6,922.1z M-1552,884.6l39.7,22.6l79-156.9l-29.5-22.3L-1552,884.6z"/>
		</g>
		<g>
			<polygon class="st11" points="-1425.3,748.5 -1461.3,748.5 -1464.6,718.8 			"/>
		</g>
		<g>
			<polygon class="st22" points="-1425.3,748.5 -1509.6,915.9 -1538.1,899.7 -1461.3,748.5 			"/>
		</g>
		<g>
			<polygon class="st21" points="-1461.3,748.5 -1538.1,899.7 -1560.5,887 -1464.6,718.8 			"/>
		</g>
		<g>
			<path class="st1" d="M-1685.2,969.2c-0.5,0-1-0.1-1.6-0.2l-46-11.8c-3.2-0.8-5.2-4.1-4.5-7.3l66.9-316c0.4-1.7,1.4-3.1,2.8-4
				c1.5-0.9,3.2-1.2,4.9-0.7l43.9,11.7c3.2,0.9,5.2,4,4.5,7.3l-64.8,316.2c-0.3,1.7-1.4,3.1-2.8,4
				C-1682.9,968.9-1684.1,969.2-1685.2,969.2z M-1723.9,946.5l33.9,8.7l62.3-304l-31.9-8.5L-1723.9,946.5z"/>
		</g>
		<g>
			<polygon class="st11" points="-1620.4,646.7 -1653.5,658.4 -1664.3,635 			"/>
		</g>
		<g>
			<polygon class="st21" points="-1653.5,658.4 -1714.9,955.3 -1714.9,955.3 -1731.2,951.1 -1664.3,635 			"/>
		</g>
		<g>
			<polygon class="st22" points="-1620.4,646.7 -1685.2,962.9 -1714.9,955.3 -1714.9,955.3 -1653.5,658.4 			"/>
		</g>
		<g>
			<path class="st1" d="M-1799.5,957.3c-2.3,0-4.5-1.3-5.6-3.4l-9.8-19.1l-35.2,10.4c-2.2,0.6-4.5,0.1-6.1-1.5
				c-1.6-1.6-2.2-3.9-1.6-6.1l84.3-300.7c0.9-3,3.8-5,7-4.5l33.5,5.2c0,0,0.1,0,0.1,0l16.7,3c1.7,0.3,3.2,1.3,4.2,2.8
				c0.9,1.5,1.2,3.3,0.8,5l-82.2,304.4c-0.7,2.5-2.8,4.3-5.4,4.6C-1799.1,957.3-1799.3,957.3-1799.5,957.3z M-1811.6,921.2
				c2.3,0,4.5,1.3,5.6,3.4l4.7,9.3l76.2-282.2l-10-1.8l-27.9-4.4l-79.8,284.5l29.3-8.7C-1812.8,921.2-1812.2,921.2-1811.6,921.2z"/>
		</g>
		<g>
			<polygon class="st21" points="-1811.6,927.4 -1734,643.8 -1767.5,638.5 -1851.8,939.2 			"/>
		</g>
		<g>
			<polygon class="st22" points="-1734,643.8 -1717.3,646.7 -1799.5,951.1 -1811.6,927.4 			"/>
		</g>
		<g>
			<path class="st1" d="M-1750.7,965c-1.8,0-3.5-0.7-4.7-2.2l-39.2-45.3l-53.2-14.5c-2-0.6-3.7-2.1-4.3-4.1l-74.1-230.9
				c-0.7-2-0.2-4.2,1.1-5.9l22.3-27c1.1-1.3,2.7-2.1,4.4-2.3l39.3-2.3c2.8-0.2,5.4,1.6,6.3,4.2l108,322c0.9,2.8-0.2,5.9-2.8,7.4
				C-1748.6,964.7-1749.7,965-1750.7,965z M-1841.3,891.9l51.8,14.2c1.2,0.3,2.3,1,3.1,1.9l19.7,22.8l-96.4-287.5l-31.8,1.9
				l-18.4,22.2L-1841.3,891.9z"/>
		</g>
		<g>
			<polygon class="st11" points="-1920.3,666.1 -1898,639.1 -1858.8,636.8 -1872,658.4 			"/>
		</g>
		<g>
			<polygon class="st21" points="-1872,658.4 -1791.2,912.1 -1846.2,897 -1920.3,666.1 			"/>
		</g>
		<g>
			<polygon class="st22" points="-1858.8,636.8 -1750.7,958.8 -1791.2,912.1 -1872,658.4 			"/>
		</g>
		<g>
			<path class="st1" d="M-1760.5,951.1c-1.5,0-3-0.5-4.1-1.5c-1.5-1.3-2.3-3.2-2.1-5.1l19.3-269.7c0.2-3.3,2.9-5.8,6.2-5.8h51.8
				c1.7,0,3.4,0.7,4.6,2c1.2,1.3,1.8,3,1.6,4.7l-20.9,259.2c-0.2,2.8-2.2,5-4.9,5.6l-50.2,10.5
				C-1759.6,951-1760.1,951.1-1760.5,951.1z M-1735.4,681.4l-18.3,255.7l37.5-7.8l20-247.8H-1735.4z"/>
		</g>
		<g>
			<polygon class="st21" points="-1760.5,944.8 -1741.2,675.1 -1689.4,675.1 -1710.3,934.4 			"/>
		</g>
		<g>
			<path class="st1" d="M-1833,951.1c-1.5,0-2.9-0.5-4.1-1.5c-1.3-1.2-2.1-2.8-2.2-4.6l-7.1-301.1c0-1.7,0.6-3.4,1.8-4.6
				c1.2-1.2,2.9-1.9,4.6-1.8l57,1.9c3.4,0.1,6,2.9,6,6.2v292.9c0,3.1-2.3,5.8-5.5,6.2l-49.8,6.3
				C-1832.4,951-1832.7,951.1-1833,951.1z M-1833.7,650.2l6.8,287.5l37.5-4.7V651.7L-1833.7,650.2z"/>
		</g>
		<g>
			<polygon class="st11" points="-1783.1,645.7 -1822.2,661.2 -1840.1,643.8 			"/>
		</g>
		<g>
			<polygon class="st21" points="-1815.8,942.7 -1833,944.8 -1840.1,643.8 -1822.2,661.2 			"/>
		</g>
		<g>
			<polygon class="st22" points="-1783.1,645.7 -1783.1,938.5 -1815.8,942.7 -1822.2,661.2 			"/>
		</g>
		<g>
			<path class="st1" d="M-1554.6,888.3c-0.7,0-1.5-0.1-2.2-0.4l-48.1-18.1c-1.6-0.6-2.9-1.8-3.6-3.4c-0.7-1.6-0.6-3.4,0.1-4.9
				l79.8-179.5c1.3-2.9,4.6-4.4,7.7-3.4l40.8,13.8c1.6,0.5,2.9,1.7,3.7,3.3c0.7,1.5,0.8,3.3,0.1,4.9l-72.5,183.8
				C-1549.7,886.8-1552.1,888.3-1554.6,888.3z M-1594.3,860.5l36.2,13.6l67.8-172l-29.2-9.9L-1594.3,860.5z"/>
		</g>
		<g>
			<polygon class="st11" points="-1482.1,698.3 -1518.3,712.1 -1522.9,684.5 			"/>
		</g>
		<g>
			<polygon class="st22" points="-1482.1,698.3 -1554.6,882.1 -1587,869.9 -1518.3,712.1 			"/>
		</g>
		<g>
			<polygon class="st21" points="-1518.3,712.1 -1587,869.9 -1602.7,864 -1522.9,684.5 			"/>
		</g>
		<g>
			<path class="st1" d="M-1644.8,1206.1c-2.6,0-5-1.6-5.9-4.2l-59.5-169.3c-0.6-1.7-0.4-3.7,0.5-5.2l118.7-200.7
				c1.7-2.9,5.4-3.9,8.4-2.3l107.5,59.4c2.8,1.6,4,5,2.7,8c-0.7,1.6-69.3,159-99.5,296.9c-0.5,2.4-2.5,4.3-4.9,4.8l-66.9,12.5
				C-1644,1206.1-1644.4,1206.1-1644.8,1206.1z M-1697.4,1031.2l56.7,161.5l57.6-10.8c27.7-123.8,85.1-261.6,97.1-289.9l-97.3-53.8
				L-1697.4,1031.2z"/>
		</g>
		<g>
			<path class="st14" d="M-1585.6,829.9l107.5,59.4c0,0-69.2,158-99.9,298l-66.9,12.5l-59.5-169.3L-1585.6,829.9z"/>
		</g>
		<g>
			<path class="st1" d="M-1644.8,1206.1c-0.2,0-0.4,0-0.6,0l-243.2-21.6c-3-0.3-5.3-2.6-5.6-5.5c-0.3-2.3-25-230.2-7-365.3
				c0.4-3.1,3.1-5.4,6.2-5.4c0,0,0.1,0,0.1,0c0.4,0,42.3,0.6,96.6,2.3c1.7,0.1,3.3,0.8,4.4,2c1.1,1.2,1.7,2.9,1.6,4.5
				c-2.7,56.8,7.3,78,38.4,80.9c18.9,1.7,30.4-0.6,38.6-7.9c11.6-10.4,17.7-32.9,18.6-68.9c0-1.7,0.8-3.3,2-4.4
				c1.2-1.1,2.9-1.7,4.6-1.6c44.3,2.4,79.7,5.3,105.3,8.6c1.7,0.2,3.3,1.2,4.3,2.6c1,1.4,1.4,3.2,1,4.9
				c-0.5,2.4-52.2,246.2-59.1,369.1c-0.1,1.7-0.9,3.3-2.1,4.4C-1641.9,1205.6-1643.3,1206.1-1644.8,1206.1z M-1882.4,1172.5
				l231.7,20.6c7.5-113.7,49.3-318.4,57.6-357.9c-23.4-2.7-54-5.2-91.4-7.3c-1.6,36.4-8.8,59.2-22.6,71.5c-13.9,12.4-33,12.4-48,11
				c-43-4-51.6-37.7-50-87.6c-39.8-1.2-72-1.8-84.5-2C-1904.6,943.6-1885.8,1138.6-1882.4,1172.5z"/>
		</g>
		<g>
			<path class="st6" d="M-1585.6,829.9c0,0-52.3,245.3-59.2,370l-34.5-3.1l-178.9-15.9l-29.9-2.7c0,0-25.1-227.9-7-363.8
				c0,0,11.7,0.2,30.8,0.6c17,0.4,39.8,0.9,65.6,1.7c-2.6,54.4,5.5,83.8,44.1,87.4c38.7,3.6,62.1-7.8,64-82.8
				c22.5,1.2,44.5,2.7,64.5,4.4C-1611.2,827-1597.6,828.3-1585.6,829.9z"/>
		</g>
		<g>
			<path class="st11" d="M-1585.6,829.3L-1585.6,829.3c-0.1,0.6-1.3,6.1-3.2,15.5l-1.5-0.8c-1.2-0.2-2.4-0.3-3.6-0.4
				c-21.3-2.5-48.8-4.7-82.1-6.8c-3,43-15.7,82.6-67,82.6c-3.9,0-8.1-0.2-12.8-0.6c-53.9-5-59-52.9-58.4-87.8
				c-29-0.8-53.2-1.3-67.4-1.6l-15.2-0.3c0.5-5.1,1.1-10.1,1.8-15c0,0,41.6,0.6,96.4,2.3c-2.6,54.4,5.5,83.8,44.1,87.4
				c38.7,3.6,62.1-7.8,64-82.8C-1651.4,823-1613.9,825.7-1585.6,829.3z"/>
		</g>
		<g>
			<path class="st21" d="M-1478,889.3c0,0-2.2,5.1-6,14.2l-13.2-7.5l-91.5-50.6c1.9-9.4,3.1-14.9,3.2-15.4l0,0L-1478,889.3z"/>
		</g>
		<g class="st3">
			<path class="st0" d="M-1858.1,1180.9l-29.9-2.7c0,0-25.1-227.9-7-363.8c0,0,11.7,0.2,30.8,0.6
				C-1872.6,940.6-1867.9,1080.8-1858.1,1180.9z"/>
		</g>
		<g class="st3">
			<path d="M-1585.6,829.9c0,0-52.3,245.3-59.2,370l-34.5-3.1c5.2-88.9,21.9-243.2,53.3-371.1
				C-1611.2,827-1597.6,828.3-1585.6,829.9z"/>
		</g>
	</g>
	<g>
		<g>
			<path class="st1" d="M-286.6,1202c-0.4,0-0.9,0-1.3-0.1l-227.8-49.5c-1.8-0.4-3.3-1.5-4.1-3.1c-0.9-1.6-1-3.4-0.4-5.1
				c0.2-0.5,19.8-55.2,49.1-115.3c7.5-15.4,15.1-30,22.5-43.3c10.3-18.5,20.8-35.9,31.4-51.8c23.4-35.2,47.6-64.3,76.1-91.7
				c2.3-2.2,4.5-4.3,6.7-6.3c16.6-15.5,36.9-25.7,58.7-29.5c20.2-3.5,40.6-1.3,57.4,6.4c20.7,9.4,44.3,26,42.9,70.9
				c-0.4,11.5-2.2,24.2-5.7,38.9c-3.1,13-9.1,32.7-17.9,58.5c-9.1,26.6-21.2,60.1-36.2,99.7c-23.3,61.7-45.4,116.8-45.6,117.4
				C-281.8,1200.5-284.1,1202-286.6,1202z M-506.1,1141.7l215.6,46.8c5.9-14.8,24.3-61.3,43.5-112.3c14.9-39.5,27-72.9,36-99.3
				c8.7-25.5,14.6-44.8,17.6-57.4c3.2-13.6,5-25.8,5.3-36.4v0c1.1-37.3-16.5-50.5-35.6-59.2c-25.9-11.8-69-10.3-102.4,20.8
				c-2.2,2-4.4,4.1-6.6,6.2c-27.9,26.8-51.5,55.3-74.4,89.6c-10.4,15.6-20.7,32.7-30.8,50.9c-7.3,13.1-14.8,27.5-22.2,42.7
				C-483,1081.7-500,1125.5-506.1,1141.7z"/>
		</g>
		<g>
			<path class="st4" d="M-181.7,883.4c-0.3,10.7-2.1,23.1-5.5,37.6c-3.3,13.9-9.7,34.3-17.8,58c-10.4,30.4-23.5,66-36.1,99.5
				c-23.5,62.3-45.5,117.3-45.5,117.3l-43.3-9.4l-147.2-32l-37.3-8.1c0,0,19.3-54.2,48.8-114.7c6.9-14.2,14.4-28.7,22.3-43
				c10.6-19.1,21-36.1,31.1-51.3c27-40.6,52.2-68.5,75.3-90.7c2.2-2.1,4.4-4.2,6.6-6.3c21.5-20.1,47.9-29.3,72.3-29.4
				c13.3-0.1,26,2.5,37,7.5c4,1.8,7.7,3.8,11.2,6C-192,835.4-180.8,852.2-181.7,883.4z"/>
		</g>
		<g>
			<path class="st6" d="M-205,979c-10.4,30.4-23.5,66-36.1,99.5c-43.4-36.6-117.9-52.4-181.7-50.8c-15,0.4-29.5,1.7-42.8,4
				c6.9-14.2,14.4-28.7,22.3-43c10.6-19.1,21-36.1,31.1-51.3c11.7-2,24.8-3,40.1-2.7c18.5,0.3,40.2,2.5,66.5,6.7
				C-255.1,949.4-221.6,967.8-205,979z"/>
		</g>
		<g>
			<path class="st6" d="M-181.7,883.4c-42.1-24.7-103.9-37.4-155.2-36.8c2.2-2.1,4.4-4.2,6.6-6.3c33.3-31,78.3-36,109.2-22
				C-197,829.3-180.6,846-181.7,883.4z"/>
		</g>
		<g class="st10">
			<path class="st0" d="M-258,810.9c-19.6,12.2-39.2,28.8-58.8,50.4c-19.9,21.9-38,46.1-55.3,73.3c-17.6,27.7-34.3,58.5-50.8,93
				c-17.9,37.5-35.7,79.4-54.3,126.7l-37.3-8.1c0,0,19.3-54.2,48.8-114.7c6.9-14.2,14.4-28.7,22.3-43c10.6-19.1,21-36.1,31.1-51.3
				c27-40.6,52.2-68.5,75.3-90.7c2.2-2.1,4.4-4.2,6.6-6.3C-308.8,820.3-282.3,811.1-258,810.9z"/>
		</g>
		<g class="st3">
			<path d="M-181.7,883.4c-0.3,10.7-2.1,23.1-5.5,37.6c-3.3,13.9-9.7,34.3-17.8,58c-10.4,30.4-23.5,66-36.1,99.5
				c-23.5,62.3-45.5,117.3-45.5,117.3l-43.3-9.4c-3.3-14.1-5.4-23-5.4-23c73.5-169.4,122.5-270.7,125.5-339
				C-192,835.4-180.8,852.2-181.7,883.4z"/>
		</g>
		<g>
			<path class="st1" d="M-351.7,1228.4c-30.8,0-69.4-4.9-103.5-16c-23.9-7.8-42.6-18.9-54-32.3c-10-11.7-14.1-24.6-11.3-35.5l0,0
				c4.7-17.8,34.6-29.8,80-32c40-2,110.9,7.8,143.1,35.7c15.2,13.1,21.6,29.8,17.7,45.8c-3.7,15.1-16.3,26.8-32.7,30.7
				C-322.4,1227.2-336,1228.4-351.7,1228.4z M-508.4,1147.9c-3.2,12.2,9.4,37.2,57.1,52.7c49.3,16,107.9,18.7,136.1,12.1
				c11.9-2.8,20.9-11.1,23.5-21.6c2.8-11.2-2.2-23.4-13.7-33.3c-26.5-23-90.4-34.8-134.3-32.6
				C-483.3,1127.3-505.9,1138.4-508.4,1147.9L-508.4,1147.9z"/>
		</g>
		<g>
			<path class="st6" d="M-514.4,1146.3c-4.2,15.7,10.3,43.7,61.2,60.3s110.7,19,139.5,12.2c28.7-6.8,41.9-40.2,12.4-65.7
				c-29.5-25.5-97.2-36.2-138.7-34.2C-481.6,1120.9-510.5,1131.4-514.4,1146.3z"/>
		</g>
		<g class="st3">
			<path d="M-313.7,1218.7c-27.4,6.4-83,4.5-132.2-10c32.9,4.3,63.5,3.7,81.6-0.5c28.7-6.8,41.9-40.2,12.4-65.7
				c-10.5-9.1-25.9-16.3-43.3-21.8c35.4,4.2,73.6,14.8,93.8,32.3C-271.9,1178.6-285,1212-313.7,1218.7z"/>
		</g>
		<g>
			<path class="st1" d="M-498.9,1388.9c-2.3,0-4.6-0.2-6.9-0.7c-9.6-2.1-17.6-8.4-22-17.2c-4.3-8.8-4.4-19-0.2-27.9l86.5-182.4
				c1.2-2.6,4.1-4,7-3.4l51.8,11.3c1.9,0.4,3.4,1.6,4.3,3.3c0.8,1.7,0.9,3.7,0,5.4l-91.6,193.3l0,0
				C-475.4,1382-486.7,1388.9-498.9,1388.9z M-432.3,1170.5l-84.4,177.9c-2.6,5.4-2.5,11.6,0.1,17c2.7,5.4,7.5,9.2,13.4,10.5
				c8.9,1.9,17.9-2.5,21.9-10.7L-393,1179L-432.3,1170.5z M-475.6,1367.9L-475.6,1367.9L-475.6,1367.9z"/>
		</g>
		<g>
			<path class="st9" d="M-384,1174.6l-91.6,193.3c-4.3,9.2-13.5,14.8-23.3,14.8c-0.5,0-1,0-1.5,0c-1.3-0.1-2.7-0.3-4-0.5
				c-6-1.3-10.9-4.5-14.4-8.8c-6.1-7.4-7.9-18-3.4-27.5l86.5-182.4l12.6,2.7l21,4.6L-384,1174.6z"/>
		</g>
		<g class="st17">
			<path class="st0" d="M-423.2,1166.1c-15.7,32.9-71.2,149.7-83.1,175.4c-5.9,12.6-10.2,23.1-12.5,31.8c-6.1-7.4-7.9-18-3.4-27.5
				l86.5-182.4L-423.2,1166.1z"/>
		</g>
		<g class="st3">
			<path d="M-384,1174.6l-91.6,193.3c-4.3,9.2-13.5,14.8-23.3,14.8c-0.5,0-1,0-1.5,0c7.9-9.1,13-22.1,21.2-40.7
				c13.6-31.2,65.3-145.4,77-171.2L-384,1174.6z"/>
		</g>
	</g>
	<g>
		<g>
			<path class="st1" d="M-1372.3,1760c-12.6,0-26.1-7.2-36.4-19.4c-13.6-16.1-18.9-37.1-14.6-57.5c7.3-34.2,26.5-76.3,111.5-98.4
				c72.2-18.8,144.8-61.6,180.6-106.5c6.7-8.5,13.4-17.2,19.8-25.6c28.2-36.8,54.8-71.6,89.6-89.5c45.2-23.2,106.9-5.1,125.7,26.1
				c1.2,1.9,1.2,4.4,0.1,6.3c-42.5,74.2-106.3,186.2-111.7,197.2c-0.5,3-3.2,4.5-13.3,9.9c-6.2,3.3-15.2,8.1-26.9,14.1
				c-19.6,10.1-47,24.1-81.3,41.4c-58.4,29.5-117.6,59.1-118.2,59.4c-0.1,0.1-0.3,0.1-0.4,0.2c-4,1.7-98.1,41-123.2,42
				C-1371.4,1760-1371.9,1760-1372.3,1760z M-975.8,1365.2c-13.8,0-27.8,2.8-40.2,9.2c-32.3,16.6-58.1,50.3-85.4,86
				c-6.5,8.5-13.2,17.2-20,25.8c-37.9,47.6-111.4,91.1-187.3,110.8c-77.9,20.2-95.5,56.3-102.4,88.9c-3.5,16.6,0.8,33.7,11.9,46.9
				c8.1,9.6,18.7,15.3,27.7,14.9c19-0.8,91.9-29.8,118.7-41c87.9-43.9,219.8-110.5,234-119.2c1.8-3.8,6.2-11.8,17.1-31.2
				c9.3-16.6,22.3-39.6,38.7-68.3c23.6-41.5,47.5-83.2,54.3-95.1C-920.7,1376.6-947.9,1365.2-975.8,1365.2z M-1019.4,1588.7
				c-0.2,0.4-0.3,0.8-0.4,1.2C-1019.7,1589.6-1019.6,1589.2-1019.4,1588.7z"/>
		</g>
		<g>
			<path class="st9" d="M-901.4,1392.6c-17.6-29.1-76-45.1-117.5-23.8c-41.5,21.3-72.1,69.1-107.4,113.4
				c-35.3,44.3-107,88.6-183.9,108.6c-77,20-99,56-107,93.6c-8,37.7,21.7,70.3,46,69.3c24.3-1,121.1-41.5,121.1-41.5
				s236.4-118.2,236.4-120.9S-901.4,1392.6-901.4,1392.6z"/>
		</g>
		<g class="st17">
			<path class="st0" d="M-901.7,1392c-25.8-13.5-63.4-16.9-92.6-1.9c-41.5,21.3-72.1,69.1-107.4,113.4
				c-35.3,44.3-107,88.6-183.9,108.6c-77,20-99,56-107,93.6c-3.6,17.2,0.5,33.3,8.5,45.6c-20.6-8.1-39.7-35.8-33.1-67
				c8-37.7,30-73.6,107-93.6c77-20,148.6-64.3,183.9-108.6c35.3-44.3,65.9-92.1,107.4-113.4C-977.6,1347.6-919.6,1363.3-901.7,1392z
				"/>
		</g>
		<g>
			<path class="st1" d="M-1340.9,1849.1c-18.6,0-36.9-7.9-49.5-21.6c-13.7-14.9-19.5-35-16.3-56.7c7.2-48.7,47.1-86.2,81.6-94.3
				c3.1-0.7,6.2-1.4,9.3-2.1c29-6.6,61.9-14.1,137.7-50c82.3-39,125.7-98.9,159.9-151.9c36.2-56,65.1-87.4,114.4-92.6
				c52.9-5.6,75.3,24.9,78.6,55.3c0.1,1.3-0.1,2.6-0.8,3.8l-164,283.9c-0.7,1.2-1.8,2.2-3.1,2.7c-12.6,4.9-308.2,121-343.4,123.4
				C-1338,1849.1-1339.4,1849.1-1340.9,1849.1z M-891.6,1391.7c-3.4,0-7,0.2-10.9,0.6c-44.6,4.7-70.4,33-105.3,86.9
				c-17.2,26.7-36.7,55.1-62.8,82.4c-30.1,31.5-63.6,55.7-102.3,74c-77.1,36.5-110.7,44.2-140.3,50.9c-3.1,0.7-6.1,1.4-9.2,2.1
				c-29.7,7-65.7,41.1-72.1,84c-2.7,17.9,2,34.4,13.1,46.4c11.1,12,27.5,18.5,43.9,17.4c27.4-1.8,251-87.7,337.7-121.8l161.8-280.2
				C-839.7,1422-848.6,1391.7-891.6,1391.7z"/>
		</g>
		<g>
			<path class="st6" d="M-831.4,1435.9c-3-27.7-23.1-54.9-71.8-49.8c-48.7,5.1-76.5,38.1-109.9,89.8s-78.1,114.2-162.5,154.2
				c-84.4,40-115.6,44.9-148.2,52.6c-32.7,7.7-70.1,44.2-76.8,89.1s29,73.3,63.6,71c34.7-2.3,341.6-123,341.6-123L-831.4,1435.9z"/>
		</g>
		<g class="st3">
			<path class="st0" d="M-837.4,1414.9c-10.5-4.8-24.1-7-41.3-5.2c-48.6,5.1-76.5,38.1-109.9,89.8
				c-33.3,51.7-78.1,114.2-162.5,154.2c-84.4,40-115.6,44.9-148.2,52.6c-32.7,7.7-70.1,44.2-76.8,89.1c-2.3,15.7,0.5,29.5,6.7,40.5
				c-20.8-10.9-35.6-33.7-31.1-64.1c6.7-45,44.2-81.5,76.8-89.1c32.7-7.7,63.8-12.6,148.2-52.6c84.4-40,129.2-102.5,162.5-154.2
				c33.3-51.6,61.2-84.6,109.9-89.8C-867.2,1382.3-846.8,1396.2-837.4,1414.9z"/>
		</g>
		<g>
			<path class="st1" d="M-1074.8,1818.5c-36.2,0-74.3-17.5-101.7-46.9c-13.5-14.4-25.3-32-36.8-49c-18-26.7-38.5-56.9-55.2-56.2
				c-6,0.3-11.3,6-14,15.3c-6.9,23.5,4.9,60.7,46.9,90.7c4.9,3.5,8.2,8.7,9.2,14.7c1,6-0.4,12-3.9,16.9
				c-7.3,10.2-21.5,12.5-31.6,5.3c-64.3-46-74.7-104.4-64.1-140.5c8.3-28.2,29.6-46.5,55.4-47.7c42.2-1.9,69,37.7,94.8,76
				c10.5,15.6,21.4,31.7,32.4,43.5c14.2,15.2,32.3,26,51.1,30.5c17.3,4.1,29.6,1.7,34.9-1.6c6.2-3.9,10.8-11.1,12.7-20
				c2.3-10.8,0.2-21.9-6-31.3c-11.7-17.7-29.1-30.1-51.1-45.7c-9.6-6.8-19.5-13.9-30.3-22.3c-22.6-17.6-45.5-39.1-44.3-64.5
				c0.8-14.8,9.1-27.3,24.8-37.2c18.6-11.7,43.8-12.8,70.9-3.1c23.8,8.5,48,24.9,67.9,46.1c45.4,48.3,62.7,40.5,68.4,37.9
				c9.6-4.4,18.5-14.9,22.1-26.3c2-6.4,3.4-15.8-1.7-24.7c-8.5-14.7-29.9-26.9-52.5-39.8c-14-8-28.5-16.2-42.2-26.2
				c-24.3-17.7-34.9-42-28.3-65c6.8-23.5,29.9-39.5,60.4-41.6c47.1-3.2,96.5,21.1,142.7,70.4c8.6,9.1,8.1,23.5-1,32
				c-9.1,8.6-23.5,8.1-32-1c-25.5-27.2-64.7-59-106.6-56.2c-12.9,0.9-19.1,5.9-19.9,8.9c-0.9,3.1,2.7,9.5,11.4,15.8
				c11.7,8.5,25,16.1,37.9,23.5c28.1,16,54.7,31.2,69.3,56.5c10.4,18.1,12.4,39.9,5.6,61.2c-7.5,23.5-25.4,44.1-46.5,53.8
				c-9.5,4.3-18.8,6.2-28,6.2c-36.3,0-69-29.6-92.2-54.3c-33.1-35.2-69.3-43.4-81.7-35.6c-1.3,0.8-2.3,1.5-2.9,2.1
				c1.8,3.2,7.6,11,26.1,25.5c9.9,7.8,19.5,14.5,28.7,21.1c24.8,17.6,46.2,32.9,62.6,57.6c12.8,19.3,17.4,43.4,12.5,65.9
				c-4.5,20.7-16.5,38.5-33,48.8C-1044.3,1814.9-1058.7,1818.5-1074.8,1818.5L-1074.8,1818.5
				C-1074.8,1818.5-1074.8,1818.5-1074.8,1818.5z M-1267.9,1654c23.3,0,44.4,31.3,64.9,61.7c11.2,16.6,22.8,33.8,35.6,47.5
				c25.1,26.9,59.7,43,92.6,43c0,0,0,0,0,0c13.8,0,25.9-3,34.9-8.6c13.7-8.5,23.7-23.4,27.4-40.9c4.2-19.3,0.3-39.8-10.7-56.4
				c-15.1-22.8-35.6-37.4-59.4-54.3c-9.3-6.6-19-13.5-29.1-21.4c-21.1-16.4-32-29.2-31.6-36.9c0.2-3.5,3.4-7.2,9.5-11.1
				c21.5-13.5,65.2,3.4,97.5,37.7c26.4,28.1,66.2,63.4,106,45.3c18-8.2,33.3-25.9,39.8-46.2c5.7-17.9,4.1-36.1-4.5-51.1
				c-12.9-22.4-38.1-36.8-64.7-51.9c-13.2-7.5-26.9-15.3-39.1-24.2c-12.7-9.2-18.7-20.2-16-29.4c2.8-9.8,15-16.8,31.1-17.9
				c46.7-3.2,89.1,30.9,116.5,60.1c3.8,4.1,10.3,4.3,14.4,0.5c4.1-3.8,4.3-10.3,0.5-14.4c-43.6-46.5-89.5-69.5-132.8-66.5
				c-25.1,1.7-44,14.2-49.2,32.6c-5.1,17.8,3.7,37,23.6,51.5c13.1,9.6,27.3,17.6,41,25.4c24.2,13.8,47,26.8,57.1,44.4
				c7.4,12.8,5.6,26,2.8,34.7c-4.7,14.8-16.1,28.1-28.8,33.9c-13.3,6.1-36.4,8.5-82.7-40.7c-18.6-19.8-41-35.1-63-42.9
				c-23.5-8.4-44.8-7.7-60.1,1.9c-12.1,7.6-18.5,16.8-19,27.3c-1,19.7,19.4,38.4,39.5,54c10.5,8.2,20.4,15.2,29.8,21.9
				c23,16.4,41.2,29.3,54.2,49c8.1,12.2,10.8,26.6,7.7,40.8c-2.6,12.1-9.3,22.3-18.3,27.9c-10,6.2-26.6,7.4-44.4,3.1
				c-21.2-5-41.5-17.2-57.4-34.1c-11.7-12.5-22.8-29-33.6-44.9c-24-35.5-48.7-72.2-84-70.6c-20.4,0.9-37.2,15.8-44,38.8
				c-9.5,32.1,0.4,84.6,59.3,126.8c4.6,3.3,10.9,2.2,14.2-2.4c1.6-2.2,2.2-4.9,1.8-7.6c-0.4-2.7-1.9-5-4.1-6.6
				c-47.1-33.6-59.8-76.7-51.6-104.4c4.3-14.6,13.8-23.7,25.4-24.2C-1268.7,1654-1268.3,1654-1267.9,1654z"/>
		</g>
		<g>
			<path class="st11" d="M-848.8,1503.8c-6.6,6.2-17,5.9-23.2-0.7c-26.5-28.2-67.3-61.2-111.5-58.2c-15.2,1-23.8,7.5-25.5,13.4
				c-1.9,6.5,3.4,15.1,13.7,22.6c11.9,8.7,25.5,16.4,38.5,23.8c27.4,15.6,53.2,30.3,67,54.2c9.6,16.6,11.4,36.5,5.1,56.2
				c-7,21.9-23.6,41.1-43.1,50c-43.5,19.8-85.3-17.2-113.1-46.7c-32.8-35-72.8-47.2-89.6-36.7c-5.3,3.4-6.5,5.7-6.6,6.1
				c0,0.9,0.4,9.2,29.3,31.7c10.1,7.8,19.6,14.7,28.9,21.2c24.3,17.3,45.3,32.2,61,56c11.9,17.9,16.1,40.2,11.6,61.1
				c-4.1,19.1-15.2,35.4-30.2,44.8c-10.1,6.3-23.4,9.6-38.2,9.6c-31,0-68.5-14.3-97.2-44.9c-13.1-14.1-24.8-31.4-36.2-48.2
				c-19.9-29.4-40.4-59.8-60.7-58.9c-8.8,0.4-16.2,7.8-19.7,19.7c-7.6,25.6,4.7,65.7,49.3,97.6c7.4,5.3,9.1,15.5,3.8,22.9
				c-5.3,7.4-15.5,9.1-22.9,3.8c-28.5-20.4-46-43.2-55.6-65.2c-11.1-25.6-11.6-50.1-6.1-68.4c7.6-25.6,26.6-42.2,49.7-43.2
				c28.9-1.3,50.6,19.6,70,45.6c0.1,0.1,0.1,0.1,0.1,0.2c1.7,2.3,3.4,4.7,5.1,7c0,0,0,0,0,0c4.8,6.7,9.4,13.6,14.1,20.5
				c10.6,15.7,21.6,32,33,44.2c15,16.1,34.3,27.6,54.2,32.3c19.2,4.6,33.1,1.8,39.7-2.4c7.6-4.7,13.3-13.5,15.5-23.9
				c2.7-12.5,0.3-25.3-6.8-36c-12.4-18.7-30.2-31.3-52.7-47.3c-8.8-6.3-17.9-12.8-27.6-20.2c-0.8-0.6-1.6-1.2-2.4-1.9
				c-21.3-16.7-43-36.7-41.9-59.3c0.6-12.7,8-23.5,21.9-32.3c16.9-10.6,40.2-11.5,65.5-2.5c14.7,5.2,29.5,13.6,43.3,24.3
				c7.8,6,15.2,12.8,22.2,20.2c43.5,46.3,63.9,44.6,75.5,39.3c11.3-5.1,21.2-16.9,25.5-30.1c2.4-7.6,4-18.9-2.2-29.7
				c-9.3-16.2-31.4-28.8-54.8-42.1c-11.4-6.5-23.2-13.2-34.6-20.9c-2.4-1.6-4.7-3.2-7-4.9c-22.1-16.1-31.8-37.9-25.9-58.3
				c6-21,27-35.2,54.8-37.1c18-1.2,36.5,1.8,55,9c0.1,0,0.1,0,0.1,0.1c27.8,10.8,55.7,30.8,82.6,59.5
				C-841.8,1487.2-842.2,1497.6-848.8,1503.8z"/>
		</g>
		<g class="st10">
			<path class="st0" d="M-1018.2,1450.8c-7.3,19.2-8.4,37.1,10.6,61.6c-2.4-1.6-4.7-3.2-7-4.9c-22.1-16.1-31.8-37.9-25.9-58.3
				c6-21,27-35.2,54.8-37.1c18-1.2,36.5,1.8,55,9C-969.2,1407.7-1008.5,1425-1018.2,1450.8z"/>
		</g>
		<g class="st10">
			<path class="st0" d="M-1039.2,1575.7C-1039.2,1575.7-1039.2,1575.7-1039.2,1575.7c-45.8-33.8-91.4-26.8-107.4,2.5
				c-12.8,23.4,6.6,40.9,21,69.1c-0.8-0.6-1.6-1.2-2.4-1.9c-21.3-16.7-43-36.7-41.9-59.3c0.6-12.7,8-23.5,21.9-32.3
				c16.9-10.6,40.2-11.5,65.5-2.5C-1067.8,1556.6-1053,1565-1039.2,1575.7z"/>
		</g>
		<g class="st10">
			<path class="st0" d="M-1200.3,1673c-29.2-37.1-68.7-41.2-91-18.6c-16.2,16.4-27.7,47.5-22.7,84.6c-11.1-25.6-11.6-50.1-6.1-68.4
				c7.6-25.6,26.6-42.2,49.7-43.2C-1241.5,1626.1-1219.8,1647-1200.3,1673z"/>
		</g>
		<g>
			<path class="st1" d="M-1263.1,1939.2c-42.6,0-79.4-28.9-89.6-70.3c-5.9-23.9-2.1-48.8,10.6-69.9c12.8-21.1,33-36,56.9-41.9
				c151.5-37.3,272.3-101.5,369.8-293.8c23-45.4,78.7-63.6,124.1-40.6c45.4,23,63.6,78.7,40.6,124.1
				c-58.5,115.4-129,202.7-215.5,267c-75.3,56-162.7,94.9-274.9,122.6C-1248.2,1938.3-1255.7,1939.2-1263.1,1939.2z M-832.8,1425.3
				c-29.2,0-57.3,16-71.4,43.7c-99.7,196.5-223.2,262.1-378,300.3c-20.7,5.1-38.2,18-49.2,36.2c-11,18.3-14.3,39.7-9.2,60.4
				c8.8,35.8,40.7,60.8,77.5,60.8c6.4,0,12.9-0.8,19.2-2.3c110.5-27.2,196.5-65.5,270.4-120.5c84.9-63.1,154.2-149,211.8-262.6
				c19.9-39.3,4.2-87.4-35.1-107.3C-808.4,1428.1-820.7,1425.3-832.8,1425.3z"/>
		</g>
		<g>
			<path class="st9" d="M-756.2,1544.1c-58.1,114.5-128,201.1-213.7,264.8c-74.6,55.5-161.3,94.1-272.6,121.5
				c-6.9,1.7-13.8,2.5-20.7,2.5c-22.2,0-43.3-8.7-59-23.4c-10.2-9.6-18.2-21.8-22.8-36c-0.6-2-1.2-4-1.7-6.1
				c-11.4-46.2,16.8-92.8,63-104.2c153.1-37.7,275.3-102.7,373.9-297c21.5-42.4,73.3-59.3,115.7-37.8c1.5,0.8,3,1.6,4.4,2.4
				c3.2,1.8,6.1,3.8,9,6c0,0,0,0,0,0c0.4,0.3,0.9,0.7,1.3,1C-747.9,1462.8-737.4,1507-756.2,1544.1z"/>
		</g>
		<g class="st3">
			<path d="M-756.2,1544.1c-58.1,114.5-128,201.1-213.7,264.8c-74.6,55.5-161.3,94.1-272.6,121.5c-6.9,1.7-13.8,2.5-20.7,2.5
				c-22.2,0-43.3-8.7-59-23.4c23.5,6,49.5,2.5,80.8-5.8c58.7-15.5,138.2-46.2,223.5-104.4c85.3-58.2,160-152.8,199.9-217.7
				c39.4-64,70.2-117.9,38.6-143.7C-747.9,1462.8-737.4,1507-756.2,1544.1z"/>
		</g>
		<g class="st17">
			<path class="st0" d="M-789.6,1430.8c-35.2-19.8-53.6-6.5-95.4,76.1c-41.8,82.6-135.1,194.6-275,249.7
				c-123.3,48.5-170.3,59.2-184.9,116.9c-0.6-2-1.2-4-1.7-6.1c-11.4-46.2,16.8-92.8,63-104.2c153.1-37.7,275.3-102.7,373.9-297
				c21.5-42.4,73.3-59.3,115.7-37.8C-792.5,1429.2-791,1430-789.6,1430.8z"/>
		</g>
	</g>
	<g>
		<g>
			<path class="st1" d="M-333.3,1951.5c-2.2,0-4.5,0-6.8-0.1c-1.8,0-3.6-0.9-4.7-2.3c-1.2-1.4-1.6-3.3-1.3-5.1l57.7-306l-15.6-160
				c-0.2-2.1,0.7-4.1,2.3-5.5c1.6-1.3,3.8-1.7,5.8-1.1c59.2,19.1,134.6,50.6,157.9,92.3c19.2,34.4,7.5,81-12.8,111.8
				c-17.4,26.6-43.2,39.1-73.1,35.6c-6.1,32.4-35.4,187.1-39.1,206.5C-268.1,1945.2-294.6,1951.5-333.3,1951.5z M-290.7,1486.4
				l14.7,151.4c0.1,0.6,0,1.2-0.1,1.8l-56.5,299.5c43.9-0.2,54.6-9.2,57.4-23.6c4.1-21.6,39.8-210.5,40.2-212.4
				c0.6-3.4,3.9-5.6,7.3-5c19.3,3.6,46.5,1.4,66.6-29.2c18.2-27.7,29-69,12.3-98.9C-164.9,1541.3-215.1,1511.7-290.7,1486.4z"/>
		</g>
		<g>
			<path class="st23" d="M-297.8,1477.5c80.6,26,136.5,57.4,154.4,89.4c17.9,32.1,6.7,75.9-12.5,105.3
				c-19.3,29.4-46.5,36.8-72.9,31.9c0,0-36.1,190.6-40.2,212.4c-4.1,21.8-23.6,29.5-71,28.6l57.9-306.8L-297.8,1477.5z"/>
		</g>
		<g>
			<path class="st1" d="M-339.4,1951.5c-9,0-20.1-0.8-33.9-2.4c-140.1-16.2-225.1-33.7-259.8-53.5c-45.8-26.1-42.8-38.7-30.9-67.1
				c1.3-3.2,2.7-6.5,4.1-10.2c11.9-30.5,61.6-192.8,70.3-221.4c-3.9-3-9.9-8.4-15.2-16.2c-7.9-11.6-15.8-31-8.5-57.5
				c6.7-24.2,30-43.4,67.5-55.7c33.1-10.9,76.6-15.9,122.5-14.3c98,3.5,166.4,23.4,222.1,64.5c48.1,35.5,53.5,79.3,16.1,130.2
				c-23.6,32.1-49.1,32.1-61.8,29.5c-7.6,37.4-45,220.5-49.5,240.6c-0.2,1-0.5,2.1-0.7,3.1c-2.3,10.7-4.5,20.9-16.3,26.4
				C-319.5,1950.1-327.7,1951.5-339.4,1951.5z M-440.2,1465.3c-38.3,0-74,4.9-101.8,14c-23.2,7.6-52.4,22-59.4,47.2
				c-11.5,41.5,20.8,61.7,22.2,62.6c2.4,1.5,3.6,4.4,2.7,7.2c-2.4,7.9-58.7,192.8-72,226.6c-1.5,3.8-3,7.3-4.3,10.4
				c-5.3,12.7-8,19.6-5.8,25.6c2.5,7,11.9,14.7,31.4,25.8c32.8,18.7,118.7,36.2,255.1,51.9c28.2,3.3,45.1,3,53.2-0.7
				c5.9-2.7,7.1-7.4,9.4-17.7c0.2-1,0.4-2.1,0.7-3.1c5-22.2,50.3-244.8,50.8-247c0.4-1.8,1.5-3.4,3.2-4.2c1.6-0.9,3.6-1,5.3-0.3
				c4.8,1.9,29.9,9.9,54.2-23.2c33.4-45.4,29.1-81.3-13.4-112.7c-53.5-39.5-119.8-58.7-215.1-62
				C-429.3,1465.4-434.8,1465.3-440.2,1465.3z"/>
		</g>
		<g>
			<path class="st9" d="M-190.2,1644.1c-23.4,31.8-49.6,30.2-61.6,25.3c0,0-45.8,224.6-50.8,247.1c-4.2,18.9-4.3,29.9-42.7,28.6
				c-7.5-0.2-16.5-1-27.3-2.2c-62.2-7.2-193.8-23.4-248.6-48.3c-3.2-1.4-6.2-2.9-8.8-4.4c-48.1-27.4-37.3-35.6-24-69.6
				c13.3-33.9,71.8-226.2,71.8-226.2s-38-22.8-25-69.6c12.4-44.9,88.1-66.8,172.6-65.7c3.7,0,7.4,0.1,11.2,0.3
				c49.1,1.7,92.8,7.7,132,20c0,0,0,0,0,0c31.8,9.9,60.5,24,86.5,43.3C-146.8,1565.7-166.8,1612.3-190.2,1644.1z"/>
		</g>
		<g class="st17">
			<path class="st0" d="M-557.1,1552.8c-0.8,38.8,25.3,39.6,25.3,39.6l-89.4,302.2c-3.2-1.4-6.2-2.9-8.8-4.4
				c-48.1-27.4-37.3-35.6-24-69.6c13.3-33.9,71.8-226.2,71.8-226.2s-38-22.8-25-69.6c12.4-44.9,88.1-66.8,172.6-65.7
				C-528.4,1458.4-556.3,1514.1-557.1,1552.8z"/>
		</g>
		<g class="st3">
			<path d="M-190.2,1644.1c-23.4,31.8-49.6,30.2-61.6,25.3c0,0-45.8,224.6-50.8,247.1c-4.2,18.9-4.3,29.9-42.7,28.6l63.8-298
				c0,0,50-2.4,60.7-51.1c10.8-48.7-6-94.2-70.7-116.6c31.8,9.9,60.5,24,86.5,43.3C-146.8,1565.7-166.8,1612.3-190.2,1644.1z"/>
		</g>
	</g>
</g>
</svg>
