<?xml version="1.0" encoding="utf-8"?>
<!-- Generator: Adobe Illustrator 23.0.1, SVG Export Plug-In . SVG Version: 6.00 Build 0)  -->
<svg version="1.1" baseProfile="basic" xmlns="http://www.w3.org/2000/svg" xmlns:xlink="http://www.w3.org/1999/xlink" x="0px"
	 y="0px" width="1531.9px" height="1770.4px" viewBox="0 0 1531.9 1770.4" xml:space="preserve">
<style type="text/css">
	.st0{fill:transparent;}
	.st1{fill:#1E1212;}
	.st2{fill:#E03C57;}
	.st3{opacity:0.25;}
	.st4{fill:#FECE60;}
	.st5{fill:#E1E9F4;}
	.st6{fill:#A3B9CE;}
	.st7{fill:#B6405A;}
	.st8{opacity:0.5;}
</style>
<g id="background">
	<rect x="-108.8" y="-165.8" class="st0" width="2000" height="2000"/>
</g>
<g id="object">
	<g>
		<g>
			<path class="st1" d="M679.6,502.7c-11.6,0-22.8-2.5-33.2-7.3c-39-18-55.9-63.8-37.6-102.2L750,97.5c15.9-33.2,44-58.4,79.2-70.8
				c35.2-12.4,73.2-10.6,107,5.1l360.9,168c5.5,2.6,9.3,7.7,10.2,13.6c5.9,39.7-18.1,107.7-69.1,123.8c-4.4,1.4-9.2,1.1-13.4-0.9
				L884.5,177.9L750.4,458.5C737.6,485.4,709.8,502.7,679.6,502.7z M876.5,54.3c-11.8,0-23.6,2-35,6c-26,9.2-46.8,27.8-58.6,52.4
				L641.7,408.4c-9.8,20.5-0.7,45.1,20.2,54.7c5.6,2.6,11.6,3.9,17.7,3.9c16.2,0,31-9.3,37.9-23.7l141.3-295.7
				c0.3-0.6,0.6-1.1,0.9-1.7c2.7-4.6,6.8-6.9,9.9-8.1c5.1-1.9,10.7-1.6,15.5,0.8l348,162.1c23.3-12.1,38.2-47.8,38.6-73L920.6,64.1
				C906.6,57.6,891.6,54.3,876.5,54.3z"/>
		</g>
		<g>
			<path class="st2" d="M1232.7,320.2L876.9,154.6c-0.2-0.1-0.5-0.2-1,0c-0.5,0.2-0.6,0.4-0.7,0.6L734,450.9
				c-10.2,21.4-31.8,33.9-54.4,33.9c-8.6,0-17.2-1.8-25.5-5.6c-30.1-13.8-43-49-28.9-78.4l2.8-5.9l138.5-289.9
				c13.8-28.9,38.3-50.8,68.9-61.6c0.8-0.3,1.6-0.6,2.4-0.8c29.9-9.9,62-8.1,90.6,5.3l360.9,168
				C1294.5,250.7,1271.6,307.9,1232.7,320.2z"/>
		</g>
		<g class="st3">
			<path class="st0" d="M837.8,42.7L671.5,380c0,0-18.7,9.2-43.5,14.9l138.5-289.9c13.8-28.9,38.3-50.8,68.9-61.6
				C836.2,43.2,837,43,837.8,42.7z"/>
		</g>
		<g>
			<path class="st1" d="M752.7,1710.8c-89.8,0-184.9-13.3-282.7-39.5c-82.6-22.1-135.3-45.2-137.5-46.2c-5.7-2.5-9.7-7.8-10.6-13.9
				L174.2,561.2c-0.7-5.1,0.8-10.3,4.3-14.2c3.5-3.9,8.5-6.1,13.7-6.1h1121c5.3,0,10.3,2.2,13.7,6.1c3.5,3.9,5,9.1,4.3,14.2
				l-95.3,676.9l-52.5,373.2c-0.9,6.1-4.9,11.3-10.6,13.9C1164.9,1628.6,975.8,1710.8,752.7,1710.8z M356.6,1596.3
				c18.3,7.4,62.7,24.3,123,40.5c94.6,25.4,186.5,38.2,273.1,38.2c188.3,0,355.8-62.5,396.1-78.7l51.1-363.1l92.4-656.6H213.1
				L356.6,1596.3z"/>
		</g>
		<g>
			<path class="st2" d="M1313.2,558.8l-95.3,676.9l-52.5,373.2c0,0-191,84.1-412.7,84.1c-105.3,0-203.6-19-277.9-38.8
				c-82.1-22-134.8-45.2-134.8-45.2l-44.6-316.7L192.2,558.8H1313.2z"/>
		</g>
		<g>
			<path class="st4" d="M1313.2,558.8l-95.3,676.9c-49.8,40.9-111.5,63.7-193.1,65.5c-138.1,3-288.4-144.2-434.6-31.2
				c-109.4,84.5-118,287.3-115.4,384.1c-82.1-22-134.8-45.2-134.8-45.2l-44.6-316.7c51.4-198.9,144.8-399.4,298.9-480.8
				c189.5-100.3,245.9-121,285.1-252.6H1313.2z"/>
		</g>
		<g>
			<path class="st4" d="M657.9,1315.1c73.8,4.7,125.9,49.2,149.6,125.6c23.7,76.4,57.5,124.3,127.9,95.7
				c70.4-28.6,71.8-126.9-6.1-184.1C851.5,1295.2,724.6,1290.2,657.9,1315.1z"/>
		</g>
		<g class="st3">
			<path class="st0" d="M476,1654.4c-0.4-0.1-0.8-0.2-1.2-0.3c-82.1-22-134.8-45.2-134.8-45.2l-44.6-316.7L192.2,558.8H333
				l103.2,790.8L476,1654.4z"/>
		</g>
		<g class="st3">
			<path d="M1029.4,1654.4c0.4-0.1,0.8-0.2,1.2-0.3c82.1-22,134.8-45.2,134.8-45.2l44.6-316.7l103.2-733.4h-140.8l-103.2,790.8
				L1029.4,1654.4z"/>
		</g>
		<g>
			<path class="st4" d="M591.3,1376.6c28.4,10,39.6,26.3,44.7,47.9c5.1,21.6,26.7,33.9,43,19.6c16.2-14.3,14.5-51.2-21-65.1
				C622.5,1364.9,599.1,1374,591.3,1376.6z"/>
		</g>
		<g>
			<path class="st1" d="M1368,730.8c-2.7,0-5.5-0.6-8-1.8c-40.5-19.5-87.6-37.2-140.1-52.7c-6.2-1.9-12.6-3.7-19-5.5
				c-63.1-17.6-131.4-31.4-203-40.9c-6.5-0.9-13-1.7-19.6-2.5c-69.4-8.4-141.9-12.9-215.8-13.2c-3.4,0-6.6,0-10.1,0
				c-3.2,0-6.4,0-9.6,0c-73.9,0.3-146.5,4.8-215.8,13.2c-6.7,0.8-13.2,1.6-19.7,2.5c-71.6,9.5-139.9,23.3-202.9,40.9
				c-6.4,1.8-12.8,3.6-18.9,5.4c-52.5,15.5-99.6,33.3-140.2,52.8c-4.4,2.1-9.5,2.4-14.1,0.8c-4.6-1.6-8.4-5-10.4-9.3
				c-2-4.2-48.1-104-28.5-221.7c0.7-4.4,3.1-8.3,6.6-11.1c46-36.2,105.1-66.9,175.8-91.2c6.5-2.3,13.5-4.6,22.2-7.3
				c63.3-19.9,135.2-35,213.9-44.9c7.3-0.9,14.7-1.8,22.2-2.6c65.4-7.3,136-11.1,209.7-11.4c6.5-0.1,13.5-0.1,20.3,0
				c73.6,0.3,144.1,4.1,209.5,11.4c7.5,0.8,14.9,1.7,22.2,2.6c78.9,9.9,150.8,25,213.9,44.9c7.2,2.3,14.6,4.7,22.2,7.3
				c70.7,24.3,129.8,55,175.8,91.2c3.5,2.8,5.8,6.7,6.6,11.1c19.6,117.7-26.5,217.5-28.5,221.7c-2.1,4.4-5.8,7.7-10.4,9.3
				C1372.1,730.5,1370.1,730.8,1368,730.8z M127.2,511.3c-11.1,77.5,8.8,146.6,20,177.3c38.1-17.1,81-32.7,127.8-46.6
				c6.3-1.9,12.9-3.8,19.6-5.6c64.7-18.1,134.7-32.2,208-41.9c6.7-0.9,13.4-1.8,20.1-2.6c70.7-8.6,144.7-13.1,219.9-13.5
				c6.5-0.1,13.5-0.1,20.3,0c75.1,0.3,149.1,4.9,219.9,13.5c6.7,0.8,13.4,1.7,20.1,2.5c73.4,9.8,143.4,23.9,208.1,41.9
				c6.6,1.8,13.2,3.7,19.6,5.6c46.8,13.9,89.7,29.5,127.7,46.5c11.1-30.8,31.1-100.1,20-177.3c-41.9-31.8-95.5-59.1-159.5-81.1
				c-7.2-2.5-14.4-4.8-21.2-7c-61-19.2-130.7-33.8-207.4-43.5c-7.1-0.9-14.4-1.7-21.7-2.6c-64.1-7.1-133.3-10.9-205.7-11.2
				c-3.5,0-6.6,0-10.2,0c-3.2,0-6.4,0-9.6,0c-72.6,0.3-141.8,4.1-205.9,11.2c-7.3,0.8-14.5,1.7-21.7,2.6
				c-76.4,9.6-146.2,24.2-207.4,43.5c-8.3,2.6-15,4.8-21.2,7C222.8,452.2,169.2,479.5,127.2,511.3z"/>
		</g>
		<g>
			<path class="st5" d="M1368,713c-38.3-18.4-86.1-37-142.8-53.8c-6.3-1.9-12.7-3.7-19.3-5.5c-59.6-16.6-128.3-31.1-205.5-41.4
				c-6.6-0.9-13.2-1.7-19.9-2.5c-66.6-8.1-139.4-13-217.8-13.3c-3.3,0-6.6,0-10,0c-3.4,0-6.7,0-10,0c-78.5,0.4-151.2,5.2-217.8,13.3
				c-6.7,0.8-13.3,1.7-19.9,2.5c-77.2,10.3-146,24.8-205.5,41.4c-6.5,1.8-13,3.7-19.3,5.5C223.5,676,175.7,694.6,137.3,713
				c0,0-46-97.7-27.1-211.3c43.9-34.5,100.8-64.3,170.4-88.3c7.1-2.5,14.3-4.8,21.7-7.2C363.7,386.9,434,371.9,513,362
				c7.2-0.9,14.5-1.8,21.9-2.6c63.8-7.1,133.1-11,207.7-11.3c3.3,0,6.6,0,10,0c3.4,0,6.7,0,10,0c74.6,0.3,143.9,4.2,207.7,11.3
				c7.4,0.8,14.7,1.7,21.9,2.6c79,9.9,149.4,24.9,210.6,44.2c7.4,2.3,14.6,4.7,21.7,7.2c69.6,23.9,126.6,53.8,170.4,88.3
				C1414,615.3,1368,713,1368,713z"/>
		</g>
		<g>
			<path class="st6" d="M762.7,348.1v248.2c-3.3,0-6.6,0-10,0c-3.4,0-6.7,0-10,0V348.1c3.3,0,6.6,0,10,0
				C756.1,348.1,759.4,348.1,762.7,348.1z"/>
		</g>
		<g>
			<path class="st6" d="M533.7,365.6c-19.6,32.7-28,148.6-9,243.5c0,0.2,0.1,0.4,0.1,0.7c-6.7,0.8-13.3,1.7-19.9,2.5
				c-17.7-88.9-13.6-204,8.1-250.2c7.2-0.9,14.5-1.8,21.9-2.6C535.3,361.5,534.9,363.6,533.7,365.6z"/>
		</g>
		<g>
			<path class="st6" d="M302.2,412.8c-31.7,80.9-22.2,191.4-3,240c0.1,0.3,0.2,0.6,0.3,0.8c-6.5,1.8-13,3.7-19.3,5.5
				c-19.5-50.4-29.4-161.5,0.5-245.8c7.1-2.5,14.3-4.8,21.7-7.2C303.1,408.3,303.1,410.6,302.2,412.8z"/>
		</g>
		<g>
			<path class="st6" d="M1000.4,612.2c-6.6-0.9-13.2-1.7-19.9-2.5c0-0.2,0.1-0.4,0.1-0.7c19-94.9,10.7-210.8-9-243.5
				c-1.2-1.9-1.6-4.1-1.3-6.1c7.4,0.8,14.7,1.7,21.9,2.6C1014,408.2,1018.1,523.3,1000.4,612.2z"/>
		</g>
		<g>
			<path class="st6" d="M1225.2,659.2c-6.3-1.9-12.7-3.7-19.3-5.5c0.1-0.3,0.2-0.6,0.3-0.8c19.1-48.6,28.7-159.1-3-240
				c-0.9-2.2-0.9-4.5-0.2-6.6c7.4,2.3,14.6,4.7,21.7,7.2C1254.6,497.7,1244.7,608.8,1225.2,659.2z"/>
		</g>
		<g>
			<path class="st1" d="M1232.7,338.1c-3.4,0-6.8-0.9-9.7-2.8c-4.6-2.8-7.6-7.5-8.3-12.8c-6.3-46.8,23.6-112.6,70.3-123.9
				c5-1.2,10.3-0.3,14.5,2.5c4.3,2.8,7.1,7.3,7.9,12.3c5.9,39.7-18.1,107.7-69.1,123.8C1236.4,337.8,1234.5,338.1,1232.7,338.1z
				 M1266.4,256.2c-4.3,6.7-8,14.4-10.7,22.4C1260.1,271.7,1263.7,264,1266.4,256.2z"/>
		</g>
		<g>
			<path class="st7" d="M1232.7,320.2c-5.1-37.6,18.9-95,56.6-104.2C1294.5,250.7,1271.6,307.9,1232.7,320.2z"/>
		</g>
		<g class="st8">
			<path class="st0" d="M806.9,348.8c-58,1.4-112.5,5-163.6,10.7c-7.4,0.8-14.7,1.7-21.9,2.6c-79,9.9-149.4,24.9-210.6,44.2
				c-7.4,2.3-14.6,4.7-21.7,7.2c-69.6,23.9-126.6,53.8-170.4,88.3c-11.7,70.2,1.4,134.3,13.1,173.1c-36,12.4-67.5,25.4-94.3,38.3
				c0,0-46-97.7-27.1-211.3c43.9-34.5,100.8-64.3,170.4-88.3c7.1-2.5,14.3-4.8,21.7-7.2C363.7,386.9,434,371.9,513,362
				c7.2-0.9,14.5-1.8,21.9-2.6c63.8-7.1,133.1-11,207.7-11.3c3.3,0,6.6,0,10,0c3.4,0,6.7,0,10,0
				C777.7,348.2,792.4,348.4,806.9,348.8z"/>
		</g>
		<g class="st3">
			<path d="M698.6,348.8c58,1.4,112.5,5,163.6,10.7c7.4,0.8,14.7,1.7,21.9,2.6c79,9.9,149.4,24.9,210.6,44.2
				c7.4,2.3,14.6,4.7,21.7,7.2c69.6,23.9,126.6,53.8,170.4,88.3c11.7,70.2-1.4,134.3-13.1,173.1c36,12.4,67.5,25.4,94.3,38.3
				c0,0,46-97.7,27.1-211.3c-43.9-34.5-100.8-64.3-170.4-88.3c-7.1-2.5-14.3-4.8-21.7-7.2c-61.3-19.3-131.6-34.3-210.6-44.2
				c-7.2-0.9-14.5-1.8-21.9-2.6c-63.8-7.1-133.1-11-207.7-11.3c-3.3,0-6.6,0-10,0c-3.4,0-6.7,0-10,0
				C727.8,348.2,713.1,348.4,698.6,348.8z"/>
		</g>
	</g>
</g>
</svg>
