<?xml version="1.0" encoding="utf-8"?>
<!-- Generator: Adobe Illustrator 23.0.1, SVG Export Plug-In . SVG Version: 6.00 Build 0)  -->
<svg version="1.1" id="Capa_1" xmlns="http://www.w3.org/2000/svg" xmlns:xlink="http://www.w3.org/1999/xlink" x="0px" y="0px"
	 viewBox="0 0 193 337" style="enable-background:new 0 0 193 337;" xml:space="preserve">
<style type="text/css">
	.st0{fill:#FDFDFD;}
	.st1{fill:#363636;}
	.st2{fill:#FFFFFF;}
	.st3{fill:#FBFBFB;}
	.st4{fill:#FAF9F9;}
	.st5{fill:#F8F8F7;}
	.st6{fill:#F6F6F5;}
	.st7{fill:#F4F4F4;}
	.st8{fill:#F2F2F2;}
	.st9{fill:#F1F0F0;}
	.st10{fill:#EFEEEE;}
	.st11{fill:#EDECEC;}
	.st12{fill:#EBEBEA;}
	.st13{fill:#E9E9E8;}
	.st14{fill:#E7E7E6;}
	.st15{fill:#E6E5E4;}
	.st16{fill:#E4E3E2;}
	.st17{fill:#E2E1E0;}
	.st18{fill:#E0E0DF;}
	.st19{fill:#DEDEDD;}
	.st20{fill:#DDDCDB;}
	.st21{fill:#DBDAD9;}
	.st22{fill:#D9D8D7;}
	.st23{fill:#D7D6D5;}
	.st24{fill:#D5D4D3;}
	.st25{fill:#D4D3D1;}
	.st26{fill:#D2D1CF;}
	.st27{fill:#D0CFCD;}
	.st28{fill:#CECDCB;}
	.st29{fill:#CCCBC9;}
	.st30{fill:#CAC9C8;}
	.st31{fill:#C9C7C6;}
	.st32{fill:#C7C6C4;}
	.st33{fill:#C5C4C2;}
	.st34{fill:#C3C2C0;}
	.st35{fill:#C1C0BE;}
	.st36{fill:#C0BEBC;}
	.st37{fill:#BEBCBA;}
	.st38{fill:#BCBAB8;}
	.st39{fill:#BAB9B6;}
	.st40{fill:#B8B7B4;}
	.st41{fill:#B7B5B3;}
	.st42{fill:#B5B3B1;}
	.st43{fill:#B3B1AF;}
	.st44{fill:#B1AFAD;}
	.st45{fill:#AFAEAB;}
	.st46{fill:#ADACA9;}
	.st47{fill:#ACAAA7;}
	.st48{fill:#AAA8A5;}
	.st49{fill:#A8A6A3;}
	.st50{fill:#A6A4A1;}
	.st51{fill:#A4A29F;}
	.st52{fill:#A3A19E;}
	.st53{fill:#A19F9C;}
	.st54{fill:#9F9D9A;}
	.st55{fill:#9D9B98;}
	.st56{fill:#9B9996;}
	.st57{fill:#9A9794;}
	.st58{fill:#989592;}
	.st59{fill:#969490;}
	.st60{fill:#94928E;}
	.st61{fill:#92908C;}
	.st62{fill:#908E8A;}
	.st63{fill:#8F8C89;}
	.st64{fill:#8D8A87;}
	.st65{fill:#8B8985;}
	.st66{fill:#898783;}
	.st67{fill:#878581;}
	.st68{fill:#86837F;}
	.st69{fill:#84817D;}
	.st70{fill:#827F7B;}
	.st71{fill:#807D79;}
	.st72{fill:#7E7C77;}
	.st73{fill:#7D7A75;}
	.st74{fill:#7B7874;}
	.st75{fill:#797672;}
	.st76{fill:#777470;}
	.st77{fill:#75726E;}
	.st78{fill:#73706C;}
	.st79{fill:#726F6A;}
	.st80{fill:#706D68;}
	.st81{fill:#6E6B66;}
	.st82{fill:#6C6964;}
	.st83{fill:#6A6762;}
	.st84{fill:#696560;}
	.st85{fill:#67635E;}
	.st86{fill:#65625D;}
	.st87{fill:#63605B;}
	.st88{fill:#615E59;}
	.st89{fill:#605C57;}
	.st90{fill:#5E5A55;}
	.st91{fill:#5C5853;}
	.st92{fill:#5A5751;}
	.st93{fill:#58554F;}
	.st94{fill:#56534D;}
	.st95{fill:#55514B;}
	.st96{fill:#534F49;}
	.st97{fill:#514D48;}
	.st98{fill:#4F4B46;}
	.st99{fill:#4D4A44;}
	.st100{fill:#4C4842;}
	.st101{fill:#4A4640;}
	.st102{fill:#48443E;}
	.st103{fill:url(#SVGID_1_);}
	.st104{fill:url(#SVGID_2_);}
	.st105{opacity:0.3;}
	.st106{fill:#FCFCFC;}
	.st107{fill:#FAFAFA;}
	.st108{fill:#F8F8F8;}
	.st109{fill:#F7F7F6;}
	.st110{fill:#F5F5F5;}
	.st111{fill:#F3F3F3;}
	.st112{fill:#F2F2F1;}
	.st113{fill:#F0F0EF;}
	.st114{fill:#EDEDEC;}
	.st115{fill:#EAE9E9;}
	.st116{fill:#E8E8E7;}
	.st117{fill:#E6E6E5;}
	.st118{fill:#E5E4E3;}
	.st119{fill:#E3E3E2;}
	.st120{fill:#E1E1E0;}
	.st121{fill:#E0DFDE;}
	.st122{fill:#DCDCDB;}
	.st123{fill:#D9D9D7;}
	.st124{fill:#D8D7D6;}
	.st125{fill:#D6D5D4;}
	.st126{fill:#D4D3D2;}
	.st127{fill:#D3D2D0;}
	.st128{fill:#D1D0CF;}
	.st129{fill:#CFCECD;}
	.st130{fill:#CCCBCA;}
	.st131{fill:#C9C8C6;}
	.st132{fill:#C5C4C3;}
	.st133{fill:#C4C3C1;}
	.st134{fill:#C2C1BF;}
	.st135{fill:#C1BFBE;}
	.st136{fill:#BFBEBC;}
	.st137{fill:#BDBCBA;}
	.st138{fill:#BAB9B7;}
	.st139{fill:#B8B7B5;}
	.st140{fill:#B5B4B1;}
	.st141{fill:#B3B2B0;}
	.st142{fill:#B2B0AE;}
	.st143{fill:#B0AFAC;}
	.st144{fill:#AEADAB;}
	.st145{fill:#ADABA9;}
	.st146{fill:#ABAAA7;}
	.st147{fill:#A8A6A4;}
	.st148{fill:#A6A5A2;}
	.st149{fill:#A5A3A0;}
	.st150{fill:#A3A19F;}
	.st151{fill:#A1A09D;}
	.st152{fill:#A09E9B;}
	.st153{fill:#9E9C99;}
	.st154{fill:#9C9B98;}
	.st155{fill:#999794;}
	.st156{fill:#979692;}
	.st157{fill:#969491;}
	.st158{fill:#94928F;}
	.st159{fill:#93918D;}
	.st160{fill:#918F8C;}
	.st161{fill:#8F8D8A;}
	.st162{fill:#8E8C88;}
	.st163{fill:#8C8A86;}
	.st164{fill:#8A8885;}
	.st165{fill:#858380;}
	.st166{fill:#84827E;}
	.st167{fill:#82807C;}
	.st168{fill:#807E7A;}
	.st169{fill:#7F7C79;}
	.st170{fill:#7D7B77;}
	.st171{fill:#7C7975;}
	.st172{fill:#7A7773;}
	.st173{fill:#787672;}
	.st174{fill:#73716D;}
	.st175{fill:#726F6B;}
	.st176{fill:#706D69;}
	.st177{fill:#6E6C67;}
	.st178{fill:#6D6A66;}
	.st179{fill:#6B6864;}
	.st180{fill:#696762;}
	.st181{fill:#686561;}
	.st182{fill:#66635F;}
	.st183{fill:#615E5A;}
	.st184{fill:#605D58;}
	.st185{fill:#5E5B56;}
	.st186{fill:#5C5954;}
	.st187{fill:#5B5853;}
	.st188{fill:#595651;}
	.st189{fill:url(#SVGID_3_);}
	.st190{fill:url(#SVGID_4_);}
	.st191{fill:url(#SVGID_5_);}
	.st192{fill:url(#SVGID_6_);}
	.st193{fill:url(#SVGID_7_);}
	.st194{fill:url(#SVGID_8_);}
	.st195{fill:url(#SVGID_9_);}
	.st196{fill:url(#SVGID_10_);}
	.st197{fill:url(#SVGID_11_);}
	.st198{fill:url(#SVGID_12_);}
	.st199{fill:url(#SVGID_13_);}
	.st200{fill:url(#SVGID_14_);}
	.st201{fill:url(#SVGID_15_);}
	.st202{fill:url(#SVGID_16_);}
	.st203{fill:url(#SVGID_17_);}
	.st204{fill:url(#SVGID_18_);}
</style>
<g id="background">
	<rect x="1234.2" y="-101.9" class="st0" width="800" height="800"/>
</g>
<g id="objects">
	<g>
		<path class="st1" d="M1068.8,400.7v-0.1c-0.3,0.2-0.6,0.4-0.9,0.6c-0.3,0.1-0.6,0.3-1,0.3c-0.4,0.1-0.7,0.1-1.2,0.1
			c-0.5,0-1.1-0.1-1.5-0.2c-0.4-0.1-0.9-0.3-1.2-0.6c-0.4-0.3-0.6-0.6-0.8-1c-0.2-0.3-0.3-0.8-0.3-1.3c0-0.9,0.4-1.7,1.1-2.2
			c0.7-0.5,1.6-0.8,2.8-0.8c0.6,0,1.2,0.1,1.7,0.2c0.4,0.1,0.9,0.3,1.3,0.7v-2.2c0-0.3,0.1-0.6,0.3-0.7c0.2-0.1,0.4-0.2,0.8-0.2
			c0.4,0,0.6,0.1,0.8,0.2c0.2,0.1,0.3,0.3,0.3,0.6v6.6c0,0.3-0.1,0.5-0.3,0.6s-0.4,0.2-0.8,0.2c-0.3,0-0.5-0.1-0.8-0.2
			C1068.9,401.2,1068.8,400.9,1068.8,400.7z M1064.4,398.4c0,0.4,0.1,0.8,0.3,1c0.2,0.3,0.4,0.5,0.8,0.6c0.4,0.1,0.7,0.2,1.1,0.2
			c0.4,0,0.8-0.1,1.1-0.2c0.4-0.1,0.6-0.3,0.8-0.6c0.2-0.3,0.3-0.6,0.3-1c0-0.4-0.1-0.8-0.3-1c-0.2-0.3-0.4-0.5-0.8-0.6
			c-0.4-0.1-0.7-0.2-1.1-0.2c-0.4,0-0.8,0.1-1.2,0.2c-0.4,0.1-0.6,0.3-0.8,0.7C1064.5,397.7,1064.4,398.1,1064.4,398.4z"/>
		<path class="st1" d="M1079.6,398.9h-4.5c0,0.3,0.1,0.6,0.4,0.9c0.2,0.3,0.4,0.5,0.8,0.6c0.4,0.1,0.7,0.2,1.1,0.2
			c0.3,0,0.5,0,0.7-0.1c0.2-0.1,0.4-0.1,0.6-0.2c0.2-0.1,0.4-0.2,0.6-0.3c0.2-0.1,0.4-0.2,0.7-0.4c0.1-0.1,0.3-0.1,0.5-0.1
			s0.4,0.1,0.5,0.1c0.2,0.1,0.2,0.2,0.2,0.3s-0.1,0.3-0.3,0.5c-0.2,0.2-0.4,0.3-0.7,0.5c-0.4,0.1-0.7,0.3-1.2,0.4
			c-0.4,0.1-1.1,0.1-1.7,0.1c-1.4,0-2.6-0.3-3.4-0.8s-1.2-1.3-1.2-2.2c0-0.4,0.1-0.8,0.3-1.3c0.2-0.3,0.4-0.7,0.9-1
			c0.4-0.3,0.9-0.5,1.4-0.6c0.5-0.1,1.2-0.2,1.9-0.2c0.9,0,1.6,0.1,2.2,0.3s1.2,0.6,1.4,1c0.4,0.4,0.4,0.8,0.4,1.2
			c0,0.3-0.2,0.6-0.4,0.7C1080.6,398.8,1080.2,398.9,1079.6,398.9z M1075.2,398h4.1c-0.1-0.5-0.3-0.9-0.6-1.1
			c-0.4-0.2-0.8-0.3-1.4-0.3c-0.5,0-1.1,0.1-1.4,0.3C1075.4,397.1,1075.3,397.5,1075.2,398z"/>
		<path class="st1" d="M1090.7,399.5c0,0.4-0.2,0.8-0.4,1c-0.3,0.3-0.7,0.5-1.3,0.7c-0.6,0.1-1.3,0.2-2.1,0.2
			c-0.8,0-1.5-0.1-2.1-0.2c-0.6-0.1-1-0.3-1.2-0.6c-0.3-0.3-0.4-0.5-0.4-0.8c0-0.1,0.1-0.3,0.3-0.4c0.2-0.1,0.4-0.2,0.7-0.2
			c0.3,0,0.4,0.1,0.5,0.1c0.1,0.1,0.3,0.2,0.4,0.3c0.3,0.3,0.5,0.5,0.8,0.6c0.4,0.1,0.8,0.2,1.3,0.2c0.4,0,0.8-0.1,1.2-0.2
			c0.3-0.1,0.4-0.3,0.4-0.4c0-0.3-0.2-0.5-0.4-0.6c-0.3-0.1-0.8-0.2-1.5-0.3c-0.8-0.1-1.4-0.3-1.9-0.4c-0.4-0.1-0.9-0.3-1.2-0.6
			c-0.3-0.2-0.4-0.5-0.4-0.8c0-0.3,0.1-0.6,0.4-0.8c0.3-0.3,0.6-0.5,1.2-0.6s1.2-0.2,2-0.2c0.6,0,1.2,0.1,1.6,0.1
			c0.4,0.1,0.9,0.2,1.2,0.3c0.4,0.1,0.5,0.3,0.7,0.4c0.2,0.1,0.3,0.3,0.3,0.5s-0.1,0.3-0.3,0.4c-0.2,0.1-0.4,0.1-0.7,0.1
			c-0.3,0-0.4-0.1-0.6-0.1s-0.4-0.2-0.5-0.4c-0.2-0.1-0.4-0.3-0.6-0.3c-0.3-0.1-0.5-0.1-1-0.1c-0.4,0-0.7,0.1-1,0.2
			c-0.3,0.1-0.4,0.3-0.4,0.4c0,0.1,0.1,0.3,0.3,0.3c0.2,0.1,0.4,0.2,0.8,0.3c0.4,0.1,0.8,0.1,1.4,0.2c0.7,0.1,1.2,0.3,1.7,0.4
			c0.4,0.1,0.8,0.3,1,0.6C1090.6,399,1090.7,399.3,1090.7,399.5z"/>
		<path class="st1" d="M1093.7,394.7c-0.4,0-0.6-0.1-0.8-0.2c-0.3-0.1-0.4-0.3-0.4-0.6c0-0.2,0.1-0.4,0.4-0.5
			c0.3-0.1,0.4-0.2,0.8-0.2c0.3,0,0.5,0.1,0.8,0.2c0.3,0.1,0.4,0.3,0.4,0.6c0,0.2-0.1,0.4-0.4,0.6
			C1094.4,394.7,1094.1,394.7,1093.7,394.7z M1094.9,396.3v4.3c0,0.3-0.1,0.5-0.4,0.7c-0.2,0.1-0.4,0.2-0.8,0.2s-0.6-0.1-0.8-0.2
			c-0.2-0.1-0.4-0.3-0.4-0.7v-4.3c0-0.3,0.1-0.5,0.4-0.6c0.2-0.1,0.4-0.2,0.8-0.2s0.6,0.1,0.8,0.2
			C1094.8,395.8,1094.9,396,1094.9,396.3z"/>
		<path class="st1" d="M1105.6,396.5v4.3c0,0.5-0.1,0.9-0.3,1.3s-0.4,0.6-0.8,0.9c-0.4,0.2-0.8,0.4-1.4,0.5
			c-0.5,0.1-1.3,0.1-2.1,0.1s-1.5-0.1-2.1-0.2c-0.6-0.1-1.1-0.3-1.4-0.6c-0.4-0.2-0.4-0.5-0.4-0.7s0.1-0.3,0.3-0.4
			c0.2-0.1,0.4-0.2,0.7-0.2c0.4,0,0.6,0.1,0.9,0.3c0.1,0.1,0.3,0.2,0.4,0.3c0.2,0.1,0.3,0.2,0.4,0.3c0.2,0.1,0.4,0.1,0.5,0.1
			c0.3,0,0.4,0.1,0.8,0.1c0.6,0,1.1-0.1,1.3-0.1c0.3-0.1,0.5-0.3,0.7-0.4c0.1-0.2,0.2-0.4,0.2-0.6c0-0.2,0-0.6,0.1-1
			c-0.4,0.3-0.7,0.6-1.2,0.7c-0.4,0.1-1,0.3-1.6,0.3c-0.8,0-1.4-0.1-2-0.3c-0.5-0.3-1-0.6-1.3-1c-0.4-0.5-0.4-1-0.4-1.6
			c0-0.4,0.1-0.8,0.3-1.2c0.2-0.3,0.4-0.7,0.8-0.9c0.4-0.3,0.7-0.4,1.2-0.6c0.4-0.1,1-0.2,1.4-0.2c0.6,0,1.2,0.1,1.7,0.2
			c0.4,0.1,0.9,0.4,1.3,0.8v-0.2c0-0.3,0.1-0.5,0.3-0.6s0.4-0.2,0.7-0.2c0.4,0,0.7,0.1,0.9,0.3
			C1105.5,395.9,1105.6,396.1,1105.6,396.5z M1099,398.4c0,0.6,0.2,1,0.6,1.4c0.4,0.3,0.9,0.5,1.5,0.5c0.4,0,0.7-0.1,1.1-0.2
			c0.4-0.1,0.6-0.3,0.8-0.6c0.2-0.3,0.4-0.6,0.4-1c0-0.6-0.2-1-0.6-1.4c-0.4-0.3-1-0.5-1.6-0.5c-0.6,0-1.2,0.1-1.5,0.5
			C1099.2,397.4,1099,397.8,1099,398.4z"/>
		<path class="st1" d="M1109.9,396.3v0.2c0.4-0.3,0.8-0.6,1.3-0.8c0.4-0.1,1-0.2,1.6-0.2c0.6,0,1.2,0.1,1.6,0.3
			c0.4,0.1,0.8,0.4,1.1,0.7c0.2,0.2,0.3,0.3,0.3,0.6s0.1,0.5,0.1,0.8v2.8c0,0.3-0.1,0.5-0.4,0.7c-0.2,0.1-0.4,0.2-0.8,0.2
			c-0.4,0-0.6-0.1-0.8-0.2s-0.4-0.3-0.4-0.7v-2.5c0-0.5-0.1-0.8-0.4-1.1c-0.2-0.3-0.6-0.4-1.2-0.4c-0.4,0-0.8,0.1-1.1,0.2
			c-0.4,0.1-0.5,0.3-0.7,0.6c-0.1,0.2-0.2,0.6-0.2,1.3v1.9c0,0.3-0.1,0.6-0.4,0.7c-0.2,0.1-0.4,0.2-0.8,0.2c-0.4,0-0.6-0.1-0.8-0.2
			c-0.2-0.1-0.4-0.3-0.4-0.7v-4.3c0-0.3,0.1-0.5,0.3-0.6c0.2-0.1,0.4-0.2,0.8-0.2c0.2,0,0.4,0,0.5,0.1c0.2,0.1,0.3,0.1,0.4,0.3
			C1109.9,395.9,1109.9,396.1,1109.9,396.3z"/>
		<path class="st1" d="M1124.5,398.9h-4.5c0,0.3,0.1,0.6,0.4,0.9c0.2,0.3,0.4,0.5,0.8,0.6c0.4,0.1,0.7,0.2,1.1,0.2
			c0.3,0,0.5,0,0.7-0.1c0.3-0.1,0.4-0.1,0.6-0.2c0.2-0.1,0.4-0.2,0.5-0.3c0.2-0.1,0.4-0.2,0.7-0.4c0.1-0.1,0.3-0.1,0.5-0.1
			c0.3,0,0.4,0.1,0.5,0.1c0.2,0.1,0.2,0.2,0.2,0.3s-0.1,0.3-0.3,0.5s-0.4,0.3-0.7,0.5c-0.4,0.1-0.7,0.3-1.2,0.4
			c-0.4,0.1-1.1,0.1-1.7,0.1c-1.4,0-2.6-0.3-3.4-0.8c-0.8-0.6-1.2-1.3-1.2-2.2c0-0.4,0.1-0.8,0.3-1.3c0.2-0.3,0.4-0.7,0.9-1
			c0.4-0.3,0.9-0.5,1.4-0.6c0.5-0.1,1.2-0.2,1.9-0.2c0.9,0,1.6,0.1,2.3,0.3c0.6,0.2,1.1,0.6,1.4,1c0.4,0.4,0.4,0.8,0.4,1.2
			c0,0.3-0.2,0.6-0.4,0.7C1125.5,398.8,1125.1,398.9,1124.5,398.9z M1120.1,398h4.1c-0.1-0.5-0.3-0.9-0.6-1.1
			c-0.4-0.3-0.8-0.3-1.4-0.3c-0.5,0-1,0.1-1.4,0.3C1120.3,397.1,1120.2,397.5,1120.1,398z"/>
		<path class="st1" d="M1134.5,400.7v-0.1c-0.4,0.2-0.6,0.4-0.9,0.6c-0.3,0.1-0.6,0.3-1,0.3c-0.4,0.1-0.7,0.1-1.2,0.1
			c-0.5,0-1.1-0.1-1.5-0.2c-0.4-0.1-0.9-0.3-1.2-0.6c-0.4-0.3-0.6-0.6-0.8-1c-0.2-0.3-0.3-0.8-0.3-1.3c0-0.9,0.4-1.7,1.1-2.2
			c0.7-0.5,1.6-0.8,2.8-0.8c0.6,0,1.2,0.1,1.6,0.2c0.4,0.1,0.9,0.3,1.3,0.7v-2.2c0-0.3,0.1-0.6,0.3-0.7c0.2-0.1,0.4-0.2,0.8-0.2
			c0.4,0,0.6,0.1,0.8,0.2c0.2,0.1,0.3,0.3,0.3,0.6v6.6c0,0.3-0.1,0.5-0.3,0.6s-0.4,0.2-0.8,0.2c-0.4,0-0.5-0.1-0.8-0.2
			C1134.6,401.2,1134.5,400.9,1134.5,400.7z M1130.1,398.4c0,0.4,0.1,0.8,0.3,1c0.2,0.3,0.4,0.5,0.8,0.6c0.4,0.1,0.7,0.2,1.1,0.2
			s0.8-0.1,1.1-0.2c0.4-0.1,0.6-0.3,0.8-0.6c0.2-0.3,0.3-0.6,0.3-1c0-0.4-0.1-0.8-0.3-1c-0.2-0.3-0.4-0.5-0.8-0.6
			c-0.4-0.1-0.7-0.2-1.1-0.2c-0.4,0-0.8,0.1-1.2,0.2c-0.4,0.1-0.5,0.3-0.7,0.7C1130.2,397.7,1130.1,398.1,1130.1,398.4z"/>
		<path class="st1" d="M1145.2,394v2.3c0.4-0.3,0.9-0.5,1.3-0.7c0.4-0.1,1-0.2,1.6-0.2c0.7,0,1.4,0.1,2,0.3s1,0.6,1.3,1
			c0.4,0.4,0.4,1,0.4,1.6c0,0.4-0.1,0.8-0.3,1.3c-0.2,0.3-0.4,0.7-0.8,1c-0.4,0.3-0.7,0.5-1.2,0.6c-0.4,0.1-1,0.2-1.6,0.2
			c-0.4,0-0.7,0-1-0.1c-0.3-0.1-0.5-0.1-0.8-0.2c-0.2-0.1-0.4-0.2-0.5-0.3c-0.2-0.1-0.4-0.2-0.6-0.4v0.1c0,0.3-0.1,0.5-0.4,0.6
			c-0.2,0.1-0.4,0.2-0.8,0.2c-0.4,0-0.5-0.1-0.8-0.2c-0.2-0.1-0.3-0.3-0.3-0.6v-6.5c0-0.3,0.1-0.6,0.3-0.7c0.2-0.1,0.4-0.2,0.8-0.2
			c0.4,0,0.6,0.1,0.8,0.2C1145.1,393.5,1145.2,393.8,1145.2,394z M1145.4,398.5c0,0.6,0.2,1,0.6,1.4s1,0.5,1.6,0.5
			c0.5,0,1.1-0.1,1.4-0.5c0.4-0.3,0.6-0.8,0.6-1.4c0-0.4-0.1-0.7-0.3-1c-0.2-0.3-0.4-0.5-0.7-0.6c-0.4-0.1-0.7-0.2-1.1-0.2
			c-0.4,0-0.8,0.1-1.2,0.2c-0.4,0.1-0.6,0.3-0.8,0.7C1145.5,397.7,1145.4,398.1,1145.4,398.5z"/>
		<path class="st1" d="M1155.7,401.6l0.2-0.3l-2.8-4.6c-0.2-0.3-0.3-0.5-0.3-0.6c0-0.1,0.1-0.2,0.2-0.3s0.3-0.2,0.4-0.3
			c0.2-0.1,0.4-0.1,0.5-0.1c0.4,0,0.5,0.1,0.7,0.2c0.2,0.1,0.4,0.3,0.4,0.6l2,3.7l1.8-3.4c0.2-0.3,0.3-0.5,0.4-0.6s0.3-0.3,0.4-0.3
			s0.4-0.1,0.5-0.1s0.4,0,0.4,0.1c0.2,0.1,0.3,0.1,0.4,0.2s0.2,0.2,0.2,0.3c0,0.1-0.1,0.1-0.1,0.3c-0.1,0.1-0.1,0.3-0.2,0.4
			l-2.9,5.1c-0.3,0.4-0.5,0.8-0.7,1c-0.3,0.3-0.5,0.4-1,0.6s-1,0.2-1.6,0.2c-0.6,0-1.2-0.1-1.5-0.1c-0.4-0.1-0.5-0.3-0.5-0.5
			c0-0.1,0.1-0.3,0.3-0.4c0.2-0.1,0.4-0.1,0.7-0.1c0.1,0,0.3,0,0.4,0c0.2,0,0.3,0,0.4,0c0.3,0,0.4,0,0.6-0.1
			c0.2-0.1,0.3-0.1,0.4-0.3C1155.4,402.1,1155.5,401.9,1155.7,401.6z"/>
		<path class="st1" d="M1197.7,395.6h0.5v-0.4c0-0.5,0.1-0.8,0.3-1.1c0.2-0.3,0.4-0.5,0.9-0.6c0.4-0.1,1-0.2,1.8-0.2
			c1.3,0,2,0.2,2,0.6c0,0.1-0.1,0.3-0.2,0.3c-0.2,0.1-0.3,0.1-0.4,0.1c-0.1,0-0.3,0-0.4,0c-0.2,0-0.4,0-0.5,0
			c-0.4,0-0.7,0.1-0.8,0.2c-0.1,0.1-0.2,0.4-0.2,0.7v0.3h0.5c0.9,0,1.3,0.1,1.3,0.5c0,0.2-0.1,0.4-0.4,0.5c-0.3,0.1-0.5,0.1-1,0.1
			h-0.5v4c0,0.3-0.1,0.5-0.4,0.7c-0.2,0.1-0.4,0.2-0.8,0.2c-0.4,0-0.6-0.1-0.8-0.2s-0.4-0.3-0.4-0.7v-4h-0.6c-0.4,0-0.6-0.1-0.8-0.1
			c-0.2-0.1-0.3-0.2-0.3-0.4C1196.5,395.7,1196.9,395.6,1197.7,395.6z"/>
		<path class="st1" d="M1205.7,399.3v1.3c0,0.3-0.1,0.6-0.4,0.7c-0.2,0.1-0.4,0.2-0.8,0.2c-0.4,0-0.6-0.1-0.8-0.2
			c-0.2-0.1-0.4-0.3-0.4-0.7v-4.1c0-0.7,0.4-1,1.1-1c0.4,0,0.6,0.1,0.8,0.2c0.2,0.1,0.3,0.4,0.3,0.7c0.3-0.3,0.5-0.6,0.8-0.7
			c0.3-0.1,0.6-0.2,1.2-0.2c0.4,0,1,0.1,1.4,0.2c0.4,0.1,0.6,0.3,0.6,0.6c0,0.2-0.1,0.3-0.3,0.5s-0.4,0.1-0.6,0.1
			c-0.1,0-0.3,0-0.6-0.1c-0.4-0.1-0.6-0.1-0.9-0.1c-0.4,0-0.6,0.1-0.8,0.2c-0.2,0.1-0.4,0.3-0.4,0.5c-0.1,0.2-0.2,0.5-0.3,0.8
			C1205.8,398.5,1205.7,398.9,1205.7,399.3z"/>
		<path class="st1" d="M1216.9,398.9h-4.5c0,0.3,0.1,0.6,0.4,0.9c0.2,0.3,0.4,0.5,0.8,0.6c0.4,0.1,0.7,0.2,1.1,0.2
			c0.3,0,0.5,0,0.7-0.1c0.3-0.1,0.4-0.1,0.6-0.2c0.2-0.1,0.4-0.2,0.6-0.3c0.2-0.1,0.4-0.2,0.7-0.4c0.1-0.1,0.3-0.1,0.5-0.1
			s0.4,0.1,0.5,0.1c0.2,0.1,0.2,0.2,0.2,0.3s-0.1,0.3-0.3,0.5c-0.2,0.2-0.4,0.3-0.7,0.5c-0.4,0.1-0.7,0.3-1.2,0.4
			c-0.4,0.1-1.1,0.1-1.7,0.1c-1.4,0-2.6-0.3-3.4-0.8s-1.2-1.3-1.2-2.2c0-0.4,0.1-0.8,0.3-1.3c0.2-0.3,0.4-0.7,0.9-1
			c0.4-0.3,0.9-0.5,1.4-0.6c0.5-0.1,1.2-0.2,1.9-0.2c0.9,0,1.6,0.1,2.3,0.3c0.6,0.2,1.2,0.6,1.4,1c0.3,0.4,0.4,0.8,0.4,1.2
			c0,0.3-0.2,0.6-0.4,0.7C1218,398.8,1217.5,398.9,1216.9,398.9z M1212.4,398h4.1c-0.1-0.5-0.3-0.9-0.6-1.1
			c-0.4-0.3-0.8-0.3-1.4-0.3c-0.5,0-1,0.1-1.4,0.3C1212.8,397.1,1212.5,397.5,1212.4,398z"/>
		<path class="st1" d="M1227,398.9h-4.5c0,0.3,0.1,0.6,0.4,0.9c0.2,0.3,0.4,0.5,0.8,0.6c0.4,0.1,0.7,0.2,1.1,0.2
			c0.3,0,0.5,0,0.7-0.1c0.3-0.1,0.4-0.1,0.6-0.2c0.2-0.1,0.4-0.2,0.6-0.3c0.2-0.1,0.4-0.2,0.7-0.4c0.1-0.1,0.3-0.1,0.5-0.1
			s0.4,0.1,0.5,0.1c0.1,0.1,0.2,0.2,0.2,0.3s-0.1,0.3-0.3,0.5c-0.2,0.2-0.4,0.3-0.7,0.5c-0.4,0.1-0.7,0.3-1.2,0.4
			c-0.4,0.1-1.1,0.1-1.7,0.1c-1.4,0-2.6-0.3-3.4-0.8c-0.8-0.6-1.2-1.3-1.2-2.2c0-0.4,0.1-0.8,0.3-1.3c0.2-0.3,0.4-0.7,0.9-1
			c0.4-0.3,0.9-0.5,1.4-0.6c0.5-0.1,1.2-0.2,1.9-0.2c0.9,0,1.6,0.1,2.3,0.3c0.6,0.2,1.1,0.6,1.4,1c0.4,0.4,0.4,0.8,0.4,1.2
			c0,0.3-0.2,0.6-0.4,0.7C1228.1,398.8,1227.6,398.9,1227,398.9z M1222.6,398h4.1c-0.1-0.5-0.3-0.9-0.6-1.1
			c-0.4-0.2-0.8-0.3-1.4-0.3c-0.5,0-1.1,0.1-1.4,0.3C1222.9,397.1,1222.6,397.5,1222.6,398z"/>
		<path class="st1" d="M1232.7,396.3v0.1c0.4-0.3,0.9-0.6,1.3-0.8c0.4-0.1,1-0.2,1.6-0.2c0.7,0,1.3,0.1,2,0.3s1.1,0.6,1.4,1
			c0.4,0.5,0.5,1,0.5,1.6c0,0.5-0.1,0.9-0.3,1.3c-0.2,0.3-0.4,0.7-0.8,1c-0.4,0.3-0.7,0.5-1.2,0.6c-0.4,0.1-1,0.2-1.5,0.2
			c-0.6,0-1.2-0.1-1.6-0.3c-0.4-0.1-0.9-0.4-1.2-0.8v2.2c0,0.6-0.4,1-1.1,1c-0.4,0-0.7-0.1-0.9-0.3c-0.2-0.1-0.2-0.4-0.2-0.8v-6.4
			c0-0.3,0.1-0.5,0.3-0.6c0.2-0.1,0.4-0.2,0.8-0.2c0.4,0,0.5,0.1,0.8,0.2C1232.6,395.8,1232.7,396,1232.7,396.3z M1237.2,398.4
			c0-0.4-0.1-0.7-0.3-1c-0.2-0.3-0.4-0.5-0.8-0.6c-0.4-0.1-0.7-0.2-1.1-0.2c-0.6,0-1.2,0.1-1.6,0.5c-0.4,0.3-0.6,0.8-0.6,1.4
			c0,0.6,0.2,1,0.6,1.4c0.4,0.3,1,0.5,1.6,0.5c0.4,0,0.7-0.1,1.1-0.2c0.4-0.1,0.6-0.3,0.8-0.6C1237,399.2,1237.2,398.9,1237.2,398.4
			z"/>
		<path class="st1" d="M1242.3,394.7c-0.4,0-0.6-0.1-0.8-0.2c-0.2-0.1-0.4-0.3-0.4-0.6c0-0.2,0.1-0.4,0.4-0.5
			c0.2-0.1,0.4-0.2,0.8-0.2c0.3,0,0.5,0.1,0.8,0.2c0.3,0.1,0.4,0.3,0.4,0.6c0,0.2-0.1,0.4-0.4,0.6
			C1243,394.7,1242.7,394.7,1242.3,394.7z M1243.5,396.3v4.3c0,0.3-0.1,0.5-0.4,0.7c-0.2,0.1-0.4,0.2-0.8,0.2
			c-0.4,0-0.6-0.1-0.8-0.2c-0.2-0.1-0.4-0.3-0.4-0.7v-4.3c0-0.3,0.1-0.5,0.4-0.6c0.2-0.1,0.4-0.2,0.8-0.2c0.4,0,0.6,0.1,0.8,0.2
			C1243.4,395.8,1243.5,396,1243.5,396.3z"/>
		<path class="st1" d="M1251.4,400.8l-2-2.2l-1.2,0.8v1.2c0,0.3-0.1,0.5-0.4,0.6c-0.3,0.1-0.5,0.2-0.8,0.2c-0.4,0-0.6-0.1-0.8-0.2
			c-0.2-0.1-0.3-0.3-0.3-0.7v-6.4c0-0.3,0.1-0.6,0.3-0.8c0.2-0.2,0.4-0.3,0.8-0.3c0.4,0,0.6,0.1,0.8,0.2s0.3,0.4,0.3,0.7v3.6
			l2.6-1.7c0.4-0.2,0.5-0.3,0.7-0.4c0.2-0.1,0.4-0.1,0.6-0.1c0.3,0,0.5,0.1,0.7,0.2c0.2,0.1,0.3,0.3,0.3,0.4c0,0.2-0.3,0.5-0.9,0.8
			l-1.2,0.7l2.3,2.4c0.2,0.2,0.3,0.3,0.4,0.4s0.1,0.2,0.1,0.3c0,0.2-0.1,0.4-0.3,0.6c-0.2,0.1-0.4,0.2-0.8,0.2
			c-0.3,0-0.4-0.1-0.6-0.1C1251.9,401.2,1251.7,401.1,1251.4,400.8z"/>
		<path class="st1" d="M1257.1,401.5c-0.4,0-0.6-0.1-0.9-0.2s-0.4-0.3-0.4-0.6c0-0.2,0.1-0.4,0.4-0.6s0.5-0.2,0.9-0.2
			c0.4,0,0.6,0.1,0.9,0.2c0.3,0.1,0.4,0.3,0.4,0.6c0,0.3-0.1,0.5-0.4,0.6C1257.7,401.4,1257.4,401.5,1257.1,401.5z"/>
		<path class="st1" d="M1269,399.6c0,0.2-0.1,0.3-0.3,0.6c-0.2,0.2-0.4,0.4-0.8,0.6c-0.4,0.2-0.8,0.3-1.3,0.5
			c-0.5,0.1-1.2,0.2-1.8,0.2c-1.4,0-2.5-0.3-3.3-0.8c-0.8-0.6-1.2-1.3-1.2-2.2c0-0.6,0.2-1.2,0.5-1.6c0.4-0.5,0.9-0.8,1.6-1.1
			c0.7-0.3,1.5-0.3,2.4-0.3c0.6,0,1.2,0.1,1.6,0.1c0.4,0.1,0.9,0.3,1.2,0.4c0.4,0.2,0.6,0.3,0.8,0.6s0.3,0.4,0.3,0.6
			c0,0.2-0.1,0.3-0.3,0.4c-0.2,0.1-0.4,0.2-0.7,0.2c-0.2,0-0.4,0-0.4-0.1c-0.1-0.1-0.3-0.1-0.4-0.3c-0.3-0.3-0.5-0.5-0.9-0.6
			c-0.3-0.1-0.7-0.2-1.2-0.2c-0.6,0-1.2,0.1-1.6,0.5c-0.4,0.3-0.6,0.8-0.6,1.4c0,0.3,0.1,0.6,0.2,0.8s0.3,0.4,0.4,0.6
			c0.2,0.1,0.4,0.3,0.7,0.3c0.3,0.1,0.6,0.1,0.9,0.1c0.4,0,0.8-0.1,1.2-0.2c0.4-0.1,0.6-0.3,0.9-0.6c0.2-0.1,0.3-0.3,0.4-0.4
			c0.2-0.1,0.4-0.1,0.6-0.1c0.3,0,0.5,0.1,0.7,0.2C1268.9,399.3,1269,399.5,1269,399.6z"/>
		<path class="st1" d="M1279.5,398.4c0,0.4-0.1,0.8-0.4,1.3c-0.2,0.3-0.5,0.7-0.9,1c-0.4,0.3-0.9,0.5-1.4,0.6
			c-0.5,0.1-1.2,0.2-1.9,0.2c-0.7,0-1.3-0.1-1.9-0.2c-0.5-0.1-1-0.3-1.4-0.6c-0.4-0.3-0.7-0.6-0.9-1s-0.4-0.8-0.4-1.3
			s0.1-0.8,0.4-1.3c0.2-0.3,0.5-0.7,0.9-1c0.4-0.3,0.9-0.5,1.4-0.6c0.5-0.1,1.2-0.2,1.9-0.2s1.3,0.1,1.9,0.2
			c0.5,0.1,1.1,0.3,1.4,0.6c0.4,0.3,0.7,0.6,0.9,1C1279.5,397.6,1279.5,398,1279.5,398.4z M1277.2,398.4c0-0.6-0.2-1-0.6-1.4
			s-1-0.5-1.6-0.5c-0.4,0-0.8,0.1-1.2,0.2c-0.4,0.1-0.6,0.3-0.8,0.7c-0.2,0.3-0.3,0.6-0.3,1c0,0.4,0.1,0.7,0.3,1
			c0.2,0.3,0.4,0.5,0.8,0.7c0.4,0.1,0.7,0.2,1.2,0.2c0.7,0,1.2-0.1,1.6-0.5C1277,399.5,1277.2,399.1,1277.2,398.4z"/>
		<path class="st1" d="M1288.8,398.6v2c0,0.3-0.1,0.6-0.4,0.7c-0.2,0.1-0.5,0.2-0.9,0.2c-0.4,0-0.6-0.1-0.8-0.2
			c-0.2-0.1-0.4-0.4-0.4-0.7v-2.4c0-0.3,0-0.6-0.1-0.9c0-0.2-0.2-0.3-0.4-0.5c-0.2-0.1-0.4-0.2-0.8-0.2c-0.7,0-1.2,0.1-1.4,0.5
			c-0.3,0.3-0.4,0.8-0.4,1.5v2c0,0.3-0.1,0.6-0.4,0.7c-0.2,0.1-0.5,0.2-0.8,0.2c-0.4,0-0.6-0.1-0.8-0.2c-0.2-0.1-0.4-0.4-0.4-0.7
			v-4.3c0-0.3,0.1-0.5,0.3-0.6s0.4-0.2,0.8-0.2s0.5,0.1,0.8,0.2c0.2,0.1,0.4,0.3,0.4,0.6v0.1c0.4-0.3,0.8-0.6,1.2-0.7
			c0.4-0.1,1-0.2,1.5-0.2s1.1,0.1,1.4,0.2c0.4,0.1,0.7,0.3,1,0.7c0.4-0.3,0.8-0.6,1.2-0.7c0.4-0.1,0.9-0.2,1.4-0.2
			c0.6,0,1.2,0.1,1.6,0.2s0.8,0.4,1,0.7c0.2,0.3,0.3,0.7,0.3,1.3v2.9c0,0.3-0.1,0.6-0.4,0.7c-0.2,0.1-0.4,0.2-0.8,0.2
			c-0.4,0-0.6-0.1-0.8-0.2c-0.3-0.1-0.4-0.4-0.4-0.7V398c0-0.3,0-0.6-0.1-0.8s-0.2-0.3-0.4-0.5c-0.2-0.1-0.4-0.2-0.8-0.2
			c-0.3,0-0.5,0.1-0.8,0.1c-0.3,0.1-0.4,0.3-0.6,0.5C1288.9,397.5,1288.8,397.9,1288.8,398.6z"/>
		<path class="st1" d="M1179.8,391.6c0-0.1-0.1-0.2-0.2-0.3c0.7-0.1,1.2-0.6,0.9-1.1c-0.4-0.5-1.5-0.6-2-0.1c-0.4,0.4-0.1,1,0.6,1.2
			c0.1,0.1,0.1,0.2,0.2,0.3c-1.2,0.1-2.3,0.2-3.3,0.6c0.1,0.2,0.2,0.3,0.3,0.6c2-0.6,4.1-0.4,6.2-0.3c0.1-0.2,0.2-0.3,0.2-0.6
			C1181.8,391.7,1180.8,391.6,1179.8,391.6z"/>
		<path class="st1" d="M1191.3,393.6c-0.3,0.1-0.4,0.3-0.4,0.6c-0.4,0.2-0.2,0.6-0.2,0.8c-0.1,0.1-0.4,0.1-0.5,0.2
			c-0.3-0.3-0.5-0.6-0.9-0.8l0,0c-0.4-0.2-0.8-0.5-1.2-0.6c-0.4,0.3-0.7,0.5-1.1,0.8c0.7,0.5,1.3,1,1.9,1.6c0.4,0.4,0.7,0.8,1,1.3
			c0.5-0.2,1.2-0.4,1.7-0.6c-0.3-0.5-0.6-0.9-1-1.3c0.3-0.1,0.6-0.2,0.6-0.4s0-0.5,0.2-0.7c0.4,0.2,1.2,0,1.2-0.3
			C1192.4,393.7,1191.7,393.4,1191.3,393.6z"/>
		<path class="st1" d="M1188.2,396.4c-0.7-0.8-1.5-1.6-2.7-2.2c-1.2-0.8-2.9-1.3-4.6-1.3c-2.1,0-4.4,0.2-6.3,0.8
			c-1.9,0.6-3.5,1.5-4.4,2.8c-0.8,1.1-0.8,2.4-0.4,3.6c2,0.3,4,0.6,6.1,0.7s4.1,0.1,6.1-0.1c2.8-0.2,5.5-0.8,7.9-1.7
			C1189.9,398.9,1189.5,397.7,1188.2,396.4z M1178.3,398c-0.4,0.3-0.9,0.6-1.5,0.8c-1.2,0.3-2.6,0.1-3.4-0.5c-0.6-0.4-0.9-1-0.9-1.5
			c0.1-0.7,0.7-1.4,1.7-1.7c0.7-0.3,1.6-0.3,2.4-0.1c0.4,0.1,0.6,0.1,0.9,0.3c0.6,0.3,1.1,0.7,1.2,1.1
			C1179.1,396.8,1178.9,397.5,1178.3,398z M1186.8,396.7c-0.2,0.6-1.1,1.1-2,1.1c-0.5,0-1.1-0.1-1.4-0.4c-0.3-0.2-0.4-0.5-0.5-0.8
			c-0.2-0.6,0.5-1.3,1.4-1.4c0.4-0.1,0.8,0,1.2,0C1186.4,395.4,1187,396.1,1186.8,396.7z"/>
		<path class="st1" d="M1170.2,394.5c-0.8,0.3-1.5,0.8-2.1,1.3c-0.2-0.2-0.2-0.4-0.4-0.6c-0.1-0.1-0.4-0.1-0.5-0.1s-0.4,0-0.6-0.1
			c0.3-0.2,0.2-0.6-0.2-0.7c-0.4-0.2-1,0-1.1,0.3c-0.2,0.3,0.4,0.7,0.9,0.6c0.3,0.3,0.7,0.2,1.2,0.2c0.2,0.2,0.4,0.4,0.5,0.6
			c-0.4,0.6-0.7,1.2-0.7,1.8c0.5,0.1,1.2,0.3,1.7,0.5c0-0.4,0.1-0.8,0.2-1.2c0.2-0.8,1-1.6,1.9-2.2
			C1170.7,394.8,1170.4,394.7,1170.2,394.5z"/>
		<path class="st1" d="M1183.3,401c-2.1,0.3-4.2,0.3-6.2,0.3c-1.4-0.1-2.9-0.1-4.2-0.3c-1-0.1-2-0.3-2.9-0.5
			c0.2,0.8,0.6,1.6,1.3,2.2c0.8,0.8,2,1.5,3.4,1.8c1.1,0.2,2.4,0.4,4.6,0.4c1.9,0,3.7-0.2,5.4-0.6c1.1-0.3,2.1-0.7,2.9-1.2
			c0.7-0.5,1.3-1,1.7-1.6c0.4-0.6,0.7-1.6,0.7-2.2C1187.8,400.1,1185.6,400.7,1183.3,401z"/>
	</g>
	<g>
		<g>
			<path class="st2" d="M155.1,308.6c0.1,7.1-24.7,13-60.1,13.3c-35.3,0.3-61.2-6.1-61.3-13.1c-0.1-7.1,25.6-12.1,60.9-12.4
				C129.8,296.1,154.9,301.5,155.1,308.6z"/>
			<path class="st0" d="M155,308.6c0.1,7.1-24.7,13-60,13.3s-61.1-6-61.2-13.1s25.5-12.1,60.8-12.4S154.9,301.5,155,308.6z"/>
			<path class="st3" d="M154.9,308.6c0.1,7.1-24.7,13-59.9,13.3c-35.2,0.3-61-6-61.2-13.1c-0.1-7.1,25.5-12.1,60.7-12.4
				C129.8,296.1,154.8,301.5,154.9,308.6z"/>
			<path class="st4" d="M154.8,308.5c0.1,7-24.7,12.9-59.8,13.3s-61-6-61.1-13c-0.1-7,25.5-12.1,60.6-12.4
				C129.7,296.1,154.7,301.5,154.8,308.5z"/>
			<path class="st5" d="M154.8,308.5c0.1,7-24.7,12.9-59.7,13.3c-35.1,0.3-60.9-6-61-13c-0.1-7,25.5-12.1,60.5-12.4
				C129.7,296.1,154.7,301.5,154.8,308.5z"/>
			<path class="st6" d="M154.7,308.5c0.1,7-24.7,12.9-59.7,13.2c-35,0.3-60.8-5.9-61-12.9c-0.2-7,25.5-12,60.5-12.4
				C129.6,296.1,154.6,301.5,154.7,308.5z"/>
			<path class="st7" d="M154.7,308.5c0.1,7-24.7,12.9-59.6,13.2s-60.7-5.9-60.9-12.9c-0.1-7,25.4-12,60.4-12.4
				C129.5,296.1,154.6,301.5,154.7,308.5z"/>
			<path class="st8" d="M154.6,308.4c0.1,7-24.6,12.9-59.5,13.2s-60.6-5.9-60.8-12.9c-0.1-7,25.4-12,60.3-12.4
				C129.5,296.1,154.5,301.4,154.6,308.4z"/>
			<path class="st9" d="M154.5,308.4c0.1,7-24.6,12.9-59.4,13.2s-60.6-5.9-60.7-12.9c-0.1-7,25.4-12,60.2-12.4
				C129.4,296.1,154.4,301.4,154.5,308.4z"/>
			<path class="st10" d="M154.5,308.4c0.1,6.9-24.6,12.8-59.3,13.1s-60.5-5.9-60.6-12.9c-0.1-6.9,25.4-12,60.1-12.3
				C129.3,296.1,154.3,301.4,154.5,308.4z"/>
			<path class="st11" d="M154.4,308.4c0.1,6.9-24.6,12.8-59.3,13.1s-60.4-5.9-60.5-12.8c-0.1-6.9,25.3-12,60.1-12.3
				C129.3,296.1,154.2,301.4,154.4,308.4z"/>
			<path class="st12" d="M154.3,308.4c0.1,6.9-24.6,12.8-59.3,13.1s-60.3-5.9-60.4-12.8c-0.1-6.9,25.3-11.9,60-12.3
				C129.2,296.1,154.1,301.4,154.3,308.4z"/>
			<path class="st13" d="M154.2,308.4c0.1,6.9-24.6,12.8-59.2,13.1c-34.5,0.3-60.2-5.8-60.3-12.7c-0.1-6.9,25.3-11.9,59.9-12.3
				C129.1,296.1,154.1,301.4,154.2,308.4z"/>
			<path class="st14" d="M154.1,308.3c0.1,6.9-24.6,12.7-59.1,13.1c-34.5,0.3-60.1-5.8-60.2-12.7s25.3-11.9,59.8-12.3
				C129.1,296.1,154,301.4,154.1,308.3z"/>
			<path class="st15" d="M154,308.3c0.1,6.9-24.6,12.7-59,13.1c-34.4,0.3-60.1-5.8-60.2-12.7c-0.2-6.9,25.3-11.9,59.7-12.2
				C129,296.1,153.9,301.4,154,308.3z"/>
			<path class="st16" d="M154,308.3c0.1,6.8-24.5,12.7-59,13c-34.4,0.3-60-5.8-60.1-12.6c-0.1-6.8,25.3-11.9,59.6-12.2
				C129,296.1,153.9,301.4,154,308.3z"/>
			<path class="st17" d="M153.9,308.3c0.1,6.8-24.5,12.6-58.9,13s-59.9-5.7-60.1-12.6c-0.1-6.8,25.3-11.9,59.6-12.2
				C128.9,296.1,153.8,301.4,153.9,308.3z"/>
			<path class="st18" d="M153.9,308.2c0.1,6.8-24.5,12.6-58.8,13s-59.8-5.7-60-12.6c-0.1-6.8,25.3-11.9,59.5-12.2
				S153.8,301.4,153.9,308.2z"/>
			<path class="st19" d="M153.8,308.2c0.1,6.8-24.5,12.6-58.7,12.9c-34.2,0.3-59.7-5.7-59.9-12.6c-0.2-6.8,25.3-11.9,59.4-12.2
				C128.8,296.1,153.7,301.4,153.8,308.2z"/>
			<path class="st20" d="M153.7,308.2c0.1,6.8-24.5,12.6-58.6,12.9c-34.2,0.3-59.7-5.7-59.8-12.5c-0.1-6.8,25.2-11.9,59.3-12.2
				C128.7,296.1,153.6,301.4,153.7,308.2z"/>
			<path class="st21" d="M153.6,308.1c0.1,6.8-24.5,12.6-58.6,12.9s-59.6-5.7-59.7-12.5c-0.1-6.8,25.2-11.9,59.3-12.2
				C128.7,296.1,153.5,301.4,153.6,308.1z"/>
			<path class="st22" d="M153.6,308.1c0.1,6.8-24.5,12.6-58.5,12.9c-34,0.3-59.5-5.7-59.6-12.5c-0.1-6.8,25.2-11.9,59.2-12.2
				S153.4,301.4,153.6,308.1z"/>
			<path class="st23" d="M153.5,308.1c0.1,6.8-24.5,12.5-58.5,12.9s-59.4-5.7-59.5-12.4c-0.1-6.8,25.2-11.8,59.1-12.2
				S153.3,301.3,153.5,308.1z"/>
			<path class="st24" d="M153.4,308.1c0.1,6.8-24.5,12.5-58.4,12.9s-59.3-5.7-59.4-12.4c-0.1-6.8,25.1-11.8,59-12.2
				S153.3,301.3,153.4,308.1z"/>
			<path class="st25" d="M153.3,308.1c0.1,6.8-24.5,12.5-58.3,12.8c-33.8,0.3-59.3-5.6-59.3-12.4c-0.1-6.8,25.1-11.8,58.9-12.2
				C128.4,296.1,153.2,301.3,153.3,308.1z"/>
			<path class="st26" d="M153.2,308.1c0.1,6.8-24.5,12.5-58.2,12.8c-33.8,0.3-59.2-5.6-59.3-12.4c-0.1-6.8,25.1-11.8,58.8-12.1
				S153.1,301.3,153.2,308.1z"/>
			<path class="st27" d="M153.2,308.1c0.1,6.8-24.5,12.4-58.2,12.8s-59.1-5.6-59.3-12.3c-0.1-6.8,25.1-11.8,58.8-12.1
				C128.3,296.1,153,301.3,153.2,308.1z"/>
			<path class="st28" d="M153.1,308c0.1,6.7-24.5,12.4-58.1,12.7c-33.6,0.3-59-5.6-59.2-12.3s25.1-11.7,58.7-12.1
				C128.2,296.1,153,301.3,153.1,308z"/>
			<path class="st29" d="M153,308c0.1,6.7-24.5,12.4-58,12.7c-33.6,0.3-58.9-5.5-59.1-12.3c-0.1-6.7,25-11.7,58.6-12.1
				C128.2,296.1,153,301.3,153,308z"/>
			<path class="st30" d="M153,308c0.1,6.7-24.4,12.4-57.9,12.7s-58.8-5.5-59-12.2c-0.1-6.7,25-11.7,58.5-12.1S152.9,301.3,153,308z"
				/>
			<path class="st31" d="M152.9,307.9c0.1,6.7-24.4,12.4-57.8,12.6c-33.5,0.3-58.8-5.5-58.9-12.2c-0.1-6.7,25-11.7,58.5-12
				C128.1,296.1,152.8,301.2,152.9,307.9z"/>
			<path class="st32" d="M152.8,307.9c0.1,6.7-24.4,12.4-57.8,12.6c-33.5,0.3-58.7-5.5-58.8-12.2c-0.1-6.7,25-11.7,58.4-12
				C128,296.1,152.7,301.2,152.8,307.9z"/>
			<path class="st33" d="M152.8,307.9c0.1,6.6-24.4,12.3-57.7,12.6c-33.4,0.3-58.6-5.5-58.7-12.2c-0.1-6.6,24.9-11.7,58.3-12
				S152.6,301.2,152.8,307.9z"/>
			<path class="st34" d="M152.7,307.9c0.1,6.6-24.4,12.3-57.6,12.6c-33.3,0.3-58.5-5.5-58.6-12.1c-0.1-6.6,24.9-11.7,58.2-12
				S152.5,301.2,152.7,307.9z"/>
			<path class="st35" d="M152.6,307.9c0.1,6.6-24.4,12.3-57.6,12.6s-58.5-5.5-58.5-12.1c-0.1-6.6,24.9-11.7,58.1-12
				S152.5,301.2,152.6,307.9z"/>
			<path class="st36" d="M152.5,307.9c0.1,6.6-24.4,12.2-57.5,12.6c-33.2,0.3-58.4-5.5-58.5-12.1c-0.1-6.6,24.9-11.7,58-11.9
				C127.8,296.1,152.4,301.2,152.5,307.9z"/>
			<path class="st37" d="M152.4,307.9c0.1,6.6-24.3,12.2-57.4,12.6s-58.3-5.4-58.4-12c-0.1-6.6,24.8-11.7,58-11.9
				C127.7,296.1,152.3,301.2,152.4,307.9z"/>
			<path class="st38" d="M152.4,307.8c0.1,6.6-24.3,12.2-57.4,12.5c-33,0.3-58.2-5.4-58.3-12c-0.1-6.6,24.8-11.7,57.9-11.9
				C127.6,296.1,152.2,301.2,152.4,307.8z"/>
			<path class="st39" d="M152.3,307.8c0.1,6.6-24.3,12.2-57.3,12.5c-33,0.3-58.1-5.4-58.3-11.9c-0.1-6.6,24.8-11.6,57.8-11.9
				C127.6,296.1,152.2,301.2,152.3,307.8z"/>
			<path class="st40" d="M152.2,307.8c0.1,6.6-24.3,12.2-57.2,12.5c-32.9,0.3-58-5.4-58.2-11.9c-0.1-6.6,24.8-11.6,57.7-11.9
				C127.5,296.1,152.2,301.2,152.2,307.8z"/>
			<path class="st41" d="M152.2,307.7c0.1,6.6-24.3,12.2-57.1,12.4s-57.9-5.3-58.1-11.9c-0.1-6.6,24.7-11.6,57.6-11.9
				C127.4,296.1,152.1,301.2,152.2,307.7z"/>
			<path class="st42" d="M152.1,307.7c0.1,6.6-24.3,12.1-57,12.4c-32.8,0.3-57.8-5.3-58-11.9c-0.1-6.6,24.7-11.6,57.6-11.9
				C127.4,296.1,152,301.2,152.1,307.7z"/>
			<path class="st43" d="M152,307.7c0.1,6.6-24.3,12.1-57,12.4s-57.8-5.3-57.9-11.9c-0.1-6.6,24.7-11.6,57.5-11.9
				C127.3,296.1,151.9,301.2,152,307.7z"/>
			<path class="st44" d="M152,307.7c0.1,6.6-24.2,12.1-56.9,12.4c-32.7,0.3-57.7-5.3-57.8-11.8c-0.1-6.6,24.7-11.5,57.4-11.9
				S151.8,301.2,152,307.7z"/>
			<path class="st45" d="M151.9,307.7c0.1,6.5-24.2,12.1-56.8,12.4c-32.7,0.3-57.6-5.2-57.7-11.8c-0.1-6.5,24.6-11.5,57.3-11.9
				C127.3,296.1,151.7,301.2,151.9,307.7z"/>
			<path class="st46" d="M151.8,307.7c0.1,6.5-24.2,12-56.8,12.4c-32.6,0.3-57.6-5.2-57.6-11.7c-0.1-6.5,24.6-11.5,57.2-11.9
				S151.7,301.1,151.8,307.7z"/>
			<path class="st47" d="M151.7,307.6c0.1,6.5-24.2,12-56.7,12.3c-32.5,0.3-57.5-5.2-57.6-11.7c-0.1-6.5,24.6-11.5,57.1-11.8
				C127.1,296.1,151.6,301.1,151.7,307.6z"/>
			<path class="st48" d="M151.6,307.6c0.1,6.5-24.2,12-56.7,12.3c-32.5,0.3-57.4-5.2-57.5-11.7s24.6-11.5,57.1-11.8
				C127.1,296.1,151.5,301.1,151.6,307.6z"/>
			<path class="st49" d="M151.6,307.6c0.1,6.5-24.2,11.9-56.6,12.3c-32.4,0.3-57.3-5.2-57.4-11.7c-0.1-6.5,24.6-11.5,57-11.8
				C127,296.1,151.4,301.1,151.6,307.6z"/>
			<path class="st50" d="M151.5,307.6c0.1,6.5-24.2,11.9-56.5,12.2c-32.3,0.3-57.2-5.2-57.4-11.7c-0.1-6.5,24.5-11.5,56.9-11.8
				C126.9,296.1,151.4,301.1,151.5,307.6z"/>
			<path class="st51" d="M151.4,307.5c0.1,6.4-24.1,11.9-56.4,12.2c-32.3,0.3-57.1-5.2-57.3-11.6c-0.1-6.4,24.5-11.5,56.8-11.8
				C126.9,296.1,151.4,301.1,151.4,307.5z"/>
			<path class="st52" d="M151.4,307.5c0.1,6.4-24.1,11.9-56.3,12.2s-57-5.2-57.2-11.6c-0.1-6.4,24.5-11.5,56.8-11.7
				S151.3,301.1,151.4,307.5z"/>
			<path class="st53" d="M151.3,307.5c0.1,6.4-24.1,11.9-56.3,12.2s-56.9-5.1-57.1-11.5c-0.1-6.4,24.5-11.5,56.7-11.7
				S151.2,301.1,151.3,307.5z"/>
			<path class="st54" d="M151.2,307.4c0.1,6.4-24.1,11.9-56.2,12.2s-56.9-5.1-57-11.5c-0.1-6.4,24.5-11.5,56.6-11.7
				C126.7,296.1,151.1,301,151.2,307.4z"/>
			<path class="st55" d="M151.2,307.4c0.1,6.4-24.1,11.8-56.1,12.2c-32,0.3-56.8-5.1-56.9-11.5c-0.1-6.4,24.5-11.4,56.5-11.7
				S151,301,151.2,307.4z"/>
			<path class="st56" d="M151.1,307.4c0.1,6.4-24.1,11.8-56,12.1s-56.8-5-56.8-11.5c-0.1-6.4,24.5-11.4,56.4-11.7
				C126.5,296.1,150.9,301,151.1,307.4z"/>
			<path class="st57" d="M151,307.4c0.1,6.4-24.1,11.8-56,12.1c-31.9,0.3-56.7-5-56.8-11.5c-0.1-6.4,24.5-11.4,56.3-11.7
				C126.5,296.1,150.9,301,151,307.4z"/>
			<path class="st58" d="M150.9,307.4c0.1,6.4-24,11.7-55.9,12.1c-31.9,0.3-56.6-5-56.7-11.4c-0.1-6.4,24.5-11.4,56.3-11.7
				C126.5,296.1,150.8,301,150.9,307.4z"/>
			<path class="st59" d="M150.8,307.4c0.1,6.4-24,11.7-55.9,12c-31.9,0.3-56.5-5-56.6-11.4c-0.1-6.4,24.4-11.4,56.2-11.7
				C126.4,296.1,150.7,301,150.8,307.4z"/>
			<path class="st60" d="M150.7,307.4c0.1,6.4-24,11.7-55.8,12c-31.8,0.3-56.4-5-56.5-11.3c-0.1-6.4,24.4-11.3,56.1-11.7
				C126.4,296.1,150.6,301,150.7,307.4z"/>
			<path class="st61" d="M150.7,307.3c0.1,6.4-24,11.7-55.7,12c-31.7,0.3-56.3-5-56.5-11.3c-0.1-6.4,24.4-11.3,56-11.7
				C126.3,296.1,150.6,301,150.7,307.3z"/>
			<path class="st62" d="M150.6,307.3c0.1,6.4-24,11.7-55.6,12s-56.2-5-56.4-11.3c-0.1-6.4,24.4-11.3,56-11.6
				C126.2,296.1,150.6,300.9,150.6,307.3z"/>
			<path class="st63" d="M150.6,307.3c0.1,6.3-24,11.7-55.5,11.9c-31.6,0.3-56.1-5-56.3-11.3c-0.1-6.3,24.3-11.3,55.9-11.6
				C126.2,296.1,150.5,300.9,150.6,307.3z"/>
			<path class="st64" d="M150.5,307.2c0.1,6.3-24,11.7-55.5,11.9s-56-4.9-56.2-11.3c-0.1-6.3,24.3-11.3,55.8-11.6
				C126.1,296.1,150.4,300.9,150.5,307.2z"/>
			<path class="st65" d="M150.4,307.2c0.1,6.3-23.9,11.6-55.4,11.9c-31.4,0.3-56-4.9-56.1-11.2c-0.1-6.3,24.3-11.3,55.7-11.6
				C126,296.1,150.3,300.9,150.4,307.2z"/>
			<path class="st66" d="M150.4,307.2c0.1,6.3-23.9,11.6-55.3,11.9c-31.4,0.3-56-4.9-56-11.2c-0.1-6.3,24.3-11.3,55.6-11.6
				C126,296.1,150.2,300.9,150.4,307.2z"/>
			<path class="st67" d="M150.3,307.2c0.1,6.3-23.9,11.6-55.2,11.9c-31.3,0.3-55.9-4.9-56-11.1c-0.1-6.3,24.2-11.3,55.5-11.5
				C125.9,296.1,150.1,300.9,150.3,307.2z"/>
			<path class="st68" d="M150.2,307.2c0.1,6.3-23.9,11.5-55.2,11.9c-31.2,0.3-55.8-4.8-55.9-11.1c-0.1-6.3,24.2-11.3,55.4-11.5
				C125.8,296.1,150.1,300.9,150.2,307.2z"/>
			<path class="st69" d="M150.1,307.2c0.1,6.2-23.9,11.5-55.2,11.8s-55.7-4.8-55.8-11c-0.1-6.2,24.2-11.3,55.4-11.5
				C125.8,296.1,150,300.9,150.1,307.2z"/>
			<path class="st70" d="M150,307.2c0.1,6.2-23.9,11.5-55.1,11.8s-55.6-4.8-55.7-11c-0.1-6.2,24.2-11.3,55.3-11.5
				C125.7,296.1,149.9,300.9,150,307.2z"/>
			<path class="st71" d="M149.9,307.1c0.1,6.2-23.9,11.5-55,11.8c-31.1,0.3-55.5-4.8-55.6-11c-0.1-6.2,24.2-11.2,55.2-11.5
				C125.7,296.1,149.8,300.9,149.9,307.1z"/>
			<path class="st72" d="M149.9,307.1c0.1,6.2-23.8,11.5-54.9,11.7s-55.4-4.8-55.5-11c-0.1-6.2,24.1-11.2,55.2-11.5
				C125.7,296.1,149.7,300.9,149.9,307.1z"/>
			<path class="st73" d="M149.8,307.1c0.1,6.2-23.8,11.5-54.8,11.7s-55.3-4.8-55.5-11c-0.1-6.2,24.1-11.2,55.1-11.5
				C125.6,296.1,149.7,300.9,149.8,307.1z"/>
			<path class="st74" d="M149.7,307c0.1,6.1-23.8,11.4-54.7,11.7c-30.9,0.3-55.2-4.8-55.4-10.9c-0.2-6.1,24.1-11.2,55-11.5
				C125.5,296.1,149.7,300.9,149.7,307z"/>
			<path class="st75" d="M149.7,307c0.1,6.1-23.8,11.4-54.7,11.7c-30.9,0.3-55.2-4.8-55.3-10.9c-0.1-6.1,24.1-11.2,54.9-11.5
				C125.5,296.1,149.6,300.9,149.7,307z"/>
			<path class="st76" d="M149.6,307c0.1,6.1-23.8,11.4-54.6,11.7c-30.8,0.3-55.2-4.7-55.2-10.8c-0.1-6.1,24-11.2,54.8-11.5
				C125.4,296.1,149.5,300.9,149.6,307z"/>
			<path class="st77" d="M149.5,307c0.1,6.1-23.8,11.4-54.5,11.7c-30.7,0.3-55.1-4.7-55.2-10.8c-0.1-6.1,24-11.1,54.7-11.4
				C125.3,296.1,149.4,300.8,149.5,307z"/>
			<path class="st78" d="M149.5,307c0.1,6.1-23.8,11.3-54.4,11.6c-30.7,0.3-55-4.7-55.1-10.8c-0.1-6.1,24-11.1,54.6-11.4
				C125.2,296.1,149.3,300.8,149.5,307z"/>
			<path class="st79" d="M149.4,307c0.1,6.1-23.7,11.3-54.3,11.6s-54.9-4.7-55-10.8c-0.1-6.1,24-11.1,54.6-11.4
				C125.2,296.1,149.3,300.8,149.4,307z"/>
			<path class="st80" d="M149.3,307c0.1,6.1-23.7,11.3-54.3,11.6s-54.8-4.6-54.9-10.8c-0.1-6.1,23.9-11.1,54.5-11.4
				C125.1,296.1,149.2,300.8,149.3,307z"/>
			<path class="st81" d="M149.2,306.9c0.1,6.1-23.7,11.3-54.3,11.5c-30.5,0.3-54.7-4.6-54.8-10.7c-0.1-6.1,23.9-11.1,54.4-11.4
				C125.1,296.1,149.1,300.8,149.2,306.9z"/>
			<path class="st82" d="M149.1,306.9c0.1,6.1-23.7,11.3-54.2,11.5c-30.4,0.3-54.6-4.6-54.7-10.7c-0.1-6.1,23.9-11,54.3-11.4
				C125,296.1,149,300.8,149.1,306.9z"/>
			<path class="st83" d="M149.1,306.9c0.1,6.1-23.7,11.3-54.1,11.5c-30.3,0.3-54.5-4.5-54.6-10.6c-0.1-6.1,23.8-11.1,54.2-11.4
				C124.9,296.1,148.9,300.8,149.1,306.9z"/>
			<path class="st84" d="M149,306.8c0.1,6.1-23.7,11.2-54,11.5c-30.3,0.3-54.4-4.5-54.6-10.6c-0.1-6.1,23.8-11,54.2-11.3
				C124.8,296.1,148.9,300.8,149,306.8z"/>
			<path class="st85" d="M148.9,306.8c0.1,6.1-23.7,11.2-53.9,11.5c-30.3,0.3-54.3-4.5-54.5-10.6c-0.2-6.1,23.8-11,54.1-11.3
				C124.8,296.1,148.9,300.7,148.9,306.8z"/>
			<path class="st86" d="M148.9,306.8c0.1,6-23.7,11.2-53.9,11.5c-30.2,0.3-54.3-4.5-54.4-10.6c-0.1-6,23.8-11,54-11.3
				C124.8,296.1,148.8,300.7,148.9,306.8z"/>
			<path class="st87" d="M148.8,306.7c0.1,6-23.6,11.1-53.8,11.5c-30.1,0.3-54.3-4.5-54.3-10.6c-0.1-6,23.8-11,53.9-11.3
				C124.7,296.1,148.7,300.7,148.8,306.7z"/>
			<path class="st88" d="M148.7,306.7c0.1,6-23.6,11.1-53.7,11.4s-54.2-4.5-54.3-10.5s23.7-11,53.8-11.3
				C124.7,296.1,148.6,300.7,148.7,306.7z"/>
			<path class="st89" d="M148.7,306.7c0.1,6-23.6,11.1-53.6,11.4s-54.1-4.5-54.2-10.5s23.7-11,53.8-11.3
				C124.6,296.1,148.5,300.7,148.7,306.7z"/>
			<path class="st90" d="M148.6,306.7c0.1,6-23.6,11-53.5,11.4c-30,0.3-54-4.5-54.1-10.4c-0.1-5.9,23.7-11,53.7-11.3
				C124.5,296.1,148.5,300.7,148.6,306.7z"/>
			<path class="st91" d="M148.5,306.7c0.1,6-23.6,11-53.5,11.3c-29.9,0.3-53.9-4.4-54-10.4c-0.1-6,23.7-11,53.6-11.3
				C124.5,296.1,148.4,300.7,148.5,306.7z"/>
			<path class="st92" d="M148.4,306.7c0.1,5.9-23.6,11-53.5,11.3c-29.8,0.3-53.8-4.4-53.9-10.4c-0.1-5.9,23.7-11,53.5-11.3
				C124.4,296.1,148.3,300.7,148.4,306.7z"/>
			<path class="st93" d="M148.3,306.7c0.1,5.9-23.6,11-53.4,11.3c-29.7,0.3-53.7-4.4-53.8-10.3c-0.1-5.9,23.6-10.9,53.5-11.2
				C124.3,296.1,148.2,300.7,148.3,306.7z"/>
			<path class="st94" d="M148.3,306.6c0.1,5.9-23.6,11-53.3,11.3s-53.6-4.4-53.7-10.3c-0.1-5.9,23.6-10.9,53.4-11.2
				C124.3,296.1,148.1,300.7,148.3,306.6z"/>
			<path class="st95" d="M148.2,306.6c0.1,5.9-23.6,11-53.2,11.3s-53.5-4.3-53.6-10.3s23.6-10.9,53.3-11.2
				C124.2,296.1,148.1,300.7,148.2,306.6z"/>
			<path class="st96" d="M148.1,306.6c0.1,5.9-23.6,11-53.2,11.3s-53.5-4.3-53.6-10.3c-0.1-5.9,23.6-10.9,53.2-11.2
				C124.1,296.1,148.1,300.7,148.1,306.6z"/>
			<path class="st97" d="M148.1,306.5c0.1,5.9-23.6,10.9-53.1,11.2s-53.4-4.3-53.5-10.2c-0.1-5.9,23.6-10.9,53.1-11.2
				C124.1,296.1,148,300.7,148.1,306.5z"/>
			<path class="st98" d="M148,306.5c0.1,5.9-23.6,10.9-53,11.2s-53.4-4.3-53.5-10.2c-0.1-5.9,23.6-10.8,53-11.1
				C124,296.1,147.9,300.7,148,306.5z"/>
			<path class="st99" d="M147.9,306.5c0.1,5.9-23.6,10.9-52.9,11.2s-53.3-4.3-53.4-10.2c-0.1-5.9,23.6-10.8,52.9-11.1
				C124,296.1,147.8,300.7,147.9,306.5z"/>
			<path class="st100" d="M147.9,306.5c0.1,5.9-23.6,10.8-52.8,11.1c-29.4,0.3-53.2-4.3-53.3-10.1c-0.1-5.9,23.6-10.8,52.9-11.1
				C124,296.1,147.7,300.7,147.9,306.5z"/>
			<path class="st101" d="M147.8,306.5c0.1,5.9-23.5,10.8-52.8,11.1c-29.3,0.3-53.1-4.3-53.2-10.1c-0.1-5.9,23.5-10.8,52.8-11.1
				C123.9,296.1,147.7,300.6,147.8,306.5z"/>
			<path class="st102" d="M147.7,306.5c0.1,5.9-23.5,10.8-52.7,11.1c-29.2,0.3-53-4.3-53.1-10.1c-0.1-5.9,23.5-10.8,52.7-11.1
				C123.8,296.1,147.6,300.6,147.7,306.5z"/>
		</g>
		<g>
			
				<linearGradient id="SVGID_1_" gradientUnits="userSpaceOnUse" x1="159.9219" y1="435.0032" x2="12.3434" y2="445.5424" gradientTransform="matrix(1 0 0 1 0 -224)">
				<stop  offset="8.880000e-02" style="stop-color:#E00E17"/>
				<stop  offset="0.7668" style="stop-color:#9D0E17"/>
				<stop  offset="0.8221" style="stop-color:#A10E17"/>
				<stop  offset="0.8755" style="stop-color:#AC0E17"/>
				<stop  offset="0.9281" style="stop-color:#C00E17"/>
				<stop  offset="0.98" style="stop-color:#DB0E17"/>
				<stop  offset="0.9881" style="stop-color:#E00E17"/>
			</linearGradient>
			<path class="st103" d="M180.5,117.2l-0.1,1l-2.9,21l-22.5,166.3c0,7.9-27.3,14.3-61,14.3s-61-6.4-61-14.3L10.7,139.2l-2.9-21
				l-0.1-1L180.5,117.2L180.5,117.2z"/>
			
				<linearGradient id="SVGID_2_" gradientUnits="userSpaceOnUse" x1="105.2594" y1="439.8311" x2="170.0359" y2="444.7418" gradientTransform="matrix(1 0 0 1 0 -224)">
				<stop  offset="0" style="stop-color:#D9030D;stop-opacity:0"/>
				<stop  offset="5.779113e-03" style="stop-color:#DA0610;stop-opacity:3.749013e-03"/>
				<stop  offset="0.1405" style="stop-color:#E55158;stop-opacity:9.110000e-02"/>
				<stop  offset="0.2669" style="stop-color:#EE8F93;stop-opacity:0.1731"/>
				<stop  offset="0.3811" style="stop-color:#F5BFC2;stop-opacity:0.2473"/>
				<stop  offset="0.4811" style="stop-color:#FBE2E3;stop-opacity:0.3121"/>
				<stop  offset="0.563" style="stop-color:#FEF7F8;stop-opacity:0.3653"/>
				<stop  offset="0.6166" style="stop-color:#FFFFFF;stop-opacity:0.4"/>
				<stop  offset="0.7026" style="stop-color:#FFFCFD;stop-opacity:0.3102"/>
				<stop  offset="0.755" style="stop-color:#FDF4F4;stop-opacity:0.2556"/>
				<stop  offset="0.7983" style="stop-color:#FBE6E7;stop-opacity:0.2104"/>
				<stop  offset="0.8368" style="stop-color:#F8D1D3;stop-opacity:0.1703"/>
				<stop  offset="0.872" style="stop-color:#F4B7BA;stop-opacity:0.1336"/>
				<stop  offset="0.9048" style="stop-color:#EF969A;stop-opacity:9.930000e-02"/>
				<stop  offset="0.9358" style="stop-color:#E97075;stop-opacity:6.700000e-02"/>
				<stop  offset="0.9654" style="stop-color:#E3434A;stop-opacity:3.610000e-02"/>
				<stop  offset="0.9928" style="stop-color:#DB111B;stop-opacity:7.547408e-03"/>
				<stop  offset="1" style="stop-color:#D9030D;stop-opacity:0"/>
			</linearGradient>
			<path class="st104" d="M176,117.2l-25.7,194c-8.1,4-19.7,7-47.4,8.5l8.2-202.5L176,117.2L176,117.2z"/>
		</g>
		<g>
			<g class="st105">
				<path class="st2" d="M180.4,118.2l-2.9,21c-15.8,4.3-47.2,7.3-83.4,7.3s-67.6-2.9-83.4-7.3l-2.9-21H180.4z"/>
				<path class="st0" d="M180.4,118.1l-2.9,21c-15.8,4.3-47.2,7.3-83.4,7.3s-67.6-2.9-83.4-7.3l-2.9-21H180.4z"/>
				<path class="st106" d="M180.4,118.1l-2.9,21c-15.8,4.3-47.2,7.3-83.4,7.3s-67.6-2.9-83.4-7.3l-2.9-21H180.4z"/>
				<path class="st107" d="M180.4,118.1l-2.9,21c-15.8,4.3-47.2,7.3-83.4,7.3s-67.6-2.9-83.4-7.3l-2.9-21H180.4z"/>
				<path class="st108" d="M180.4,118.1l-2.9,21c-15.8,4.3-47.2,7.3-83.4,7.3s-67.6-2.9-83.4-7.3l-2.9-21H180.4z"/>
				<path class="st109" d="M180.4,118.1l-2.9,21c-15.8,4.3-47.2,7.3-83.4,7.3s-67.6-2.9-83.4-7.3l-2.9-21H180.4z"/>
				<path class="st110" d="M180.4,118.1l-2.9,21c-15.8,4.3-47.2,7.3-83.4,7.3s-67.6-2.9-83.4-7.3l-2.9-21H180.4z"/>
				<path class="st111" d="M180.4,118.1l-2.9,21c-15.8,4.3-47.2,7.3-83.4,7.3s-67.6-2.9-83.4-7.3l-2.9-21H180.4z"/>
				<path class="st112" d="M180.4,118.1l-2.9,21c-15.8,4.3-47.2,7.3-83.4,7.3s-67.6-2.9-83.4-7.3l-2.9-21H180.4z"/>
				<path class="st113" d="M180.4,118.1l-2.9,21c-15.8,4.3-47.2,7.3-83.4,7.3s-67.6-2.9-83.4-7.3l-2.9-21H180.4z"/>
				<path class="st10" d="M180.4,118.1l-2.9,21c-15.8,4.3-47.2,7.3-83.4,7.3s-67.6-2.9-83.4-7.3l-2.9-21H180.4z"/>
				<path class="st114" d="M180.4,118.1l-2.9,21c-15.8,4.3-47.2,7.3-83.4,7.3s-67.6-2.9-83.4-7.3l-2.9-21H180.4z"/>
				<path class="st12" d="M180.4,118l-2.9,21c-15.8,4.3-47.2,7.3-83.4,7.3s-67.6-2.9-83.4-7.3l-2.9-21H180.4z"/>
				<path class="st115" d="M180.4,118l-2.9,21c-15.8,4.3-47.2,7.3-83.4,7.3s-67.6-2.9-83.4-7.3l-2.9-21H180.4z"/>
				<path class="st116" d="M180.4,118l-2.9,21c-15.8,4.3-47.2,7.3-83.4,7.3s-67.6-2.9-83.4-7.3l-2.9-21H180.4z"/>
				<path class="st117" d="M180.4,118l-2.9,21c-15.8,4.3-47.2,7.3-83.4,7.3s-67.6-2.9-83.4-7.3l-2.9-21H180.4z"/>
				<path class="st118" d="M180.4,118l-2.9,21c-15.8,4.3-47.2,7.3-83.4,7.3s-67.6-2.9-83.4-7.3l-2.9-21H180.4z"/>
				<path class="st119" d="M180.4,117.9l-2.9,21c-15.8,4.3-47.2,7.3-83.4,7.3s-67.6-2.9-83.4-7.3l-2.9-21H180.4z"/>
				<path class="st120" d="M180.4,117.9l-2.9,21c-15.8,4.3-47.2,7.3-83.4,7.3s-67.6-2.9-83.4-7.3l-2.9-21H180.4z"/>
				<path class="st121" d="M180.4,117.9l-2.9,21c-15.8,4.3-47.2,7.3-83.4,7.3s-67.6-2.9-83.4-7.3l-2.9-21H180.4z"/>
				<path class="st19" d="M180.4,117.9l-2.9,21c-15.8,4.3-47.2,7.3-83.4,7.3s-67.6-2.9-83.4-7.3l-2.9-21H180.4z"/>
				<path class="st122" d="M180.4,117.9l-2.9,21c-15.8,4.3-47.2,7.3-83.4,7.3s-67.6-2.9-83.4-7.3l-2.9-21H180.4z"/>
				<path class="st21" d="M180.4,117.9l-2.9,21c-15.8,4.3-47.2,7.3-83.4,7.3s-67.6-2.9-83.4-7.3l-2.9-21H180.4z"/>
				<path class="st123" d="M180.4,117.9l-2.9,21c-15.8,4.3-47.2,7.3-83.4,7.3s-67.6-2.9-83.4-7.3l-2.9-21H180.4z"/>
				<path class="st124" d="M180.4,117.9l-2.9,21c-15.8,4.3-47.2,7.3-83.4,7.3s-67.6-2.9-83.4-7.3l-2.9-21H180.4z"/>
				<path class="st125" d="M180.4,117.9l-2.9,21c-15.8,4.3-47.2,7.3-83.4,7.3s-67.6-2.9-83.4-7.3l-2.9-21H180.4z"/>
				<path class="st126" d="M180.4,117.9l-2.9,21c-15.8,4.3-47.2,7.3-83.4,7.3s-67.6-2.9-83.4-7.3l-2.9-21H180.4z"/>
				<path class="st127" d="M180.4,117.9l-2.9,21c-15.8,4.3-47.2,7.3-83.4,7.3s-67.6-2.9-83.4-7.3l-2.9-21H180.4z"/>
				<path class="st128" d="M180.4,117.8l-2.9,21c-15.8,4.3-47.2,7.3-83.4,7.3s-67.6-2.9-83.4-7.3l-2.9-21H180.4z"/>
				<path class="st129" d="M180.4,117.8l-2.9,21c-15.8,4.3-47.2,7.3-83.4,7.3s-67.6-2.9-83.4-7.3l-2.9-21H180.4z"/>
				<path class="st28" d="M180.4,117.8l-2.9,21c-15.8,4.3-47.2,7.3-83.4,7.3s-67.6-2.9-83.4-7.3l-2.9-21H180.4z"/>
				<path class="st130" d="M180.4,117.8l-2.9,21c-15.8,4.3-47.2,7.3-83.4,7.3s-67.6-2.9-83.4-7.3l-2.9-21H180.4z"/>
				<path class="st30" d="M180.4,117.8l-2.9,21c-15.8,4.3-47.2,7.3-83.4,7.3s-67.6-2.9-83.4-7.3l-2.9-21H180.4z"/>
				<path class="st131" d="M180.4,117.7l-2.9,21c-15.8,4.3-47.2,7.3-83.4,7.3s-67.6-2.9-83.4-7.3l-2.8-21H180.4z"/>
				<path class="st32" d="M180.4,117.7l-2.9,21c-15.8,4.3-47.2,7.3-83.4,7.3s-67.6-2.9-83.4-7.3l-2.8-21H180.4z"/>
				<path class="st132" d="M180.4,117.7l-2.9,21c-15.8,4.3-47.2,7.3-83.4,7.3s-67.6-2.9-83.4-7.3l-2.8-21H180.4z"/>
				<path class="st133" d="M180.4,117.7l-2.9,21c-15.8,4.3-47.2,7.3-83.4,7.3s-67.6-2.9-83.4-7.3l-2.8-21H180.4z"/>
				<path class="st134" d="M180.4,117.7l-2.9,21c-15.8,4.3-47.2,7.3-83.4,7.3s-67.6-2.9-83.4-7.3l-2.8-21H180.4z"/>
				<path class="st135" d="M180.4,117.7l-2.9,21c-15.8,4.3-47.2,7.3-83.4,7.3s-67.6-2.9-83.4-7.3l-2.9-21H180.4z"/>
				<path class="st136" d="M180.4,117.7l-2.9,21c-15.8,4.3-47.2,7.3-83.4,7.3s-67.6-2.9-83.4-7.3l-2.9-21H180.4z"/>
				<path class="st137" d="M180.4,117.7l-2.9,21c-15.8,4.3-47.2,7.3-83.4,7.3s-67.6-2.9-83.4-7.3l-2.9-21H180.4z"/>
				<path class="st38" d="M180.4,117.7l-2.9,21c-15.8,4.3-47.2,7.3-83.4,7.3s-67.6-2.9-83.4-7.3l-2.9-21H180.4z"/>
				<path class="st138" d="M180.4,117.7l-2.9,21c-15.8,4.3-47.2,7.3-83.4,7.3s-67.6-2.9-83.4-7.3l-2.9-21H180.4z"/>
				<path class="st139" d="M180.4,117.6l-2.9,21c-15.8,4.3-47.2,7.3-83.4,7.3s-67.6-2.9-83.4-7.3l-2.9-21H180.4z"/>
				<path class="st41" d="M180.4,117.6l-2.9,21c-15.8,4.3-47.2,7.3-83.4,7.3s-67.6-2.9-83.4-7.3l-2.9-21H180.4z"/>
				<path class="st140" d="M180.4,117.6l-2.9,21c-15.8,4.3-47.2,7.3-83.4,7.3s-67.6-2.9-83.4-7.3l-2.9-21H180.4z"/>
				<path class="st141" d="M180.4,117.6l-2.9,21c-15.8,4.3-47.2,7.3-83.4,7.3s-67.6-2.9-83.4-7.3l-2.9-21H180.4z"/>
				<path class="st142" d="M180.4,117.6l-2.9,21c-15.8,4.3-47.2,7.3-83.4,7.3s-67.6-2.9-83.4-7.3l-2.9-21H180.4z"/>
				<path class="st143" d="M180.4,117.6l-2.9,21c-15.8,4.3-47.2,7.3-83.4,7.3s-67.6-2.9-83.4-7.3l-2.9-21H180.4z"/>
				<path class="st144" d="M180.4,117.5l-2.9,21c-15.8,4.3-47.2,7.3-83.4,7.3s-67.6-2.9-83.4-7.3l-2.9-21H180.4z"/>
				<path class="st145" d="M180.4,117.5l-2.9,21c-15.8,4.3-47.2,7.3-83.4,7.3s-67.6-2.9-83.4-7.3l-2.9-21H180.4z"/>
				<path class="st146" d="M180.4,117.5l-2.9,21c-15.8,4.3-47.2,7.3-83.4,7.3s-67.6-2.9-83.4-7.3l-2.9-21H180.4z"/>
				<path class="st48" d="M180.4,117.5l-2.9,21c-15.8,4.3-47.2,7.3-83.4,7.3s-67.6-2.9-83.4-7.3l-2.9-21H180.4z"/>
				<path class="st147" d="M180.4,117.5l-2.9,21c-15.8,4.3-47.2,7.3-83.4,7.3s-67.6-2.9-83.4-7.3l-2.9-21H180.4z"/>
				<path class="st148" d="M180.4,117.4l-2.9,21c-15.8,4.3-47.2,7.3-83.4,7.3s-67.6-2.9-83.4-7.3l-2.9-21H180.4z"/>
				<path class="st149" d="M180.4,117.4l-2.9,21c-15.8,4.3-47.2,7.3-83.4,7.3s-67.6-2.9-83.4-7.3l-2.9-21H180.4z"/>
				<path class="st150" d="M180.4,117.4l-2.9,21c-15.8,4.3-47.2,7.3-83.4,7.3s-67.6-2.9-83.4-7.3l-2.9-21H180.4z"/>
				<path class="st151" d="M180.4,117.4l-2.9,21c-15.8,4.3-47.2,7.3-83.4,7.3s-67.6-2.9-83.4-7.3l-2.9-21H180.4z"/>
				<path class="st152" d="M180.4,117.4l-2.9,21c-15.8,4.3-47.2,7.3-83.4,7.3s-67.6-2.9-83.4-7.3l-2.9-21H180.4z"/>
				<path class="st153" d="M180.4,117.4l-2.9,21c-15.8,4.3-47.2,7.3-83.4,7.3s-67.6-2.9-83.4-7.3l-2.9-21H180.4z"/>
				<path class="st154" d="M180.4,117.4l-2.9,21c-15.8,4.3-47.2,7.3-83.4,7.3s-67.6-2.9-83.4-7.3l-2.9-21H180.4z"/>
				<path class="st56" d="M180.4,117.4l-2.9,21c-15.8,4.3-47.2,7.3-83.4,7.3s-67.6-2.9-83.4-7.3l-2.9-21H180.4z"/>
				<path class="st155" d="M180.4,117.4l-2.9,21c-15.8,4.3-47.2,7.3-83.4,7.3s-67.6-2.9-83.4-7.3l-2.9-21H180.4z"/>
				<path class="st156" d="M180.4,117.4l-2.9,21c-15.8,4.3-47.2,7.3-83.4,7.3s-67.6-2.9-83.4-7.3l-2.9-21H180.4z"/>
				<path class="st157" d="M180.4,117.4l-2.9,21c-15.8,4.3-47.2,7.3-83.4,7.3s-67.6-2.9-83.4-7.3l-2.9-21H180.4z"/>
				<path class="st158" d="M180.4,117.3l-2.9,21c-15.8,4.3-47.2,7.3-83.4,7.3s-67.6-2.9-83.4-7.3l-2.9-21H180.4z"/>
				<path class="st159" d="M180.4,117.3l-2.9,21c-15.8,4.3-47.2,7.3-83.4,7.3s-67.6-2.9-83.4-7.3l-2.9-21H180.4z"/>
				<path class="st160" d="M180.4,117.3l-2.9,21c-15.8,4.3-47.2,7.3-83.4,7.3s-67.6-2.9-83.4-7.3l-2.9-21H180.4z"/>
				<path class="st161" d="M180.4,117.3l-2.9,21c-15.8,4.3-47.2,7.3-83.4,7.3s-67.6-2.9-83.4-7.3l-2.9-21H180.4z"/>
				<path class="st162" d="M180.4,117.3l-2.9,21c-15.8,4.3-47.2,7.3-83.4,7.3s-67.6-2.9-83.4-7.3l-2.9-21H180.4z"/>
				<path class="st163" d="M180.4,117.2l-2.9,21c-15.8,4.3-47.2,7.3-83.4,7.3s-67.6-2.9-83.4-7.3l-2.9-21H180.4z"/>
				<path class="st164" d="M180.4,117.2l-2.9,21c-15.8,4.3-47.2,7.3-83.4,7.3s-67.6-2.9-83.4-7.3l-2.9-21H180.4z"/>
				<path class="st66" d="M180.4,117.2l-2.9,21c-15.8,4.3-47.2,7.3-83.4,7.3s-67.6-2.9-83.4-7.3l-2.9-21H180.4z"/>
				<path class="st67" d="M180.4,117.2l-2.9,21c-15.8,4.3-47.2,7.3-83.4,7.3s-67.6-2.9-83.4-7.3l-2.9-21H180.4z"/>
				<path class="st165" d="M180.4,117.2l-2.9,21c-15.8,4.3-47.2,7.3-83.4,7.3s-67.6-2.9-83.4-7.3l-2.9-21H180.4z"/>
				<path class="st166" d="M180.4,117.2l-2.9,21c-15.8,4.3-47.2,7.3-83.4,7.3s-67.6-2.9-83.4-7.3l-2.9-21H180.4z"/>
				<path class="st167" d="M180.4,117.2l-2.9,21c-15.8,4.3-47.2,7.3-83.4,7.3s-67.6-2.9-83.4-7.3l-2.9-21H180.4z"/>
				<path class="st168" d="M180.4,117.2l-2.9,21c-15.8,4.3-47.2,7.3-83.4,7.3s-67.6-2.9-83.4-7.3l-2.9-21H180.4z"/>
				<path class="st169" d="M180.4,117.2l-2.9,21c-15.8,4.3-47.2,7.3-83.4,7.3s-67.6-2.9-83.4-7.3l-2.9-21H180.4z"/>
				<path class="st170" d="M180.4,117.2l-2.9,21c-15.8,4.3-47.2,7.3-83.4,7.3s-67.6-2.9-83.4-7.3l-2.9-21H180.4z"/>
				<path class="st171" d="M180.4,117.2l-2.9,21c-15.8,4.3-47.2,7.3-83.4,7.3s-67.6-2.9-83.4-7.3l-2.9-21H180.4z"/>
				<path class="st172" d="M180.4,117.1l-2.9,21c-15.8,4.3-47.2,7.3-83.4,7.3s-67.6-2.9-83.4-7.3l-2.9-21H180.4z"/>
				<path class="st173" d="M180.4,117.1l-2.9,21c-15.8,4.3-47.2,7.3-83.4,7.3s-67.6-2.9-83.4-7.3l-2.9-21H180.4z"/>
				<path class="st76" d="M180.4,117.1l-2.9,21c-15.8,4.3-47.2,7.3-83.4,7.3s-67.6-2.9-83.4-7.3l-2.9-21H180.4z"/>
				<path class="st77" d="M180.4,117.1l-2.9,21c-15.8,4.3-47.2,7.3-83.4,7.3s-67.6-2.9-83.4-7.3l-2.9-21H180.4z"/>
				<path class="st174" d="M180.4,117.1l-2.9,21c-15.8,4.3-47.2,7.3-83.4,7.3s-67.6-2.9-83.4-7.3l-2.9-21H180.4z"/>
				<path class="st175" d="M180.4,117l-2.9,21c-15.8,4.3-47.2,7.3-83.4,7.3s-67.6-2.9-83.4-7.3l-2.8-21H180.4z"/>
				<path class="st176" d="M180.4,117l-2.9,21c-15.8,4.3-47.2,7.3-83.4,7.3s-67.6-2.9-83.4-7.3l-2.8-21H180.4z"/>
				<path class="st177" d="M180.4,117l-2.9,21c-15.8,4.3-47.2,7.3-83.4,7.3s-67.6-2.9-83.4-7.3l-2.8-21H180.4z"/>
				<path class="st178" d="M180.4,117l-2.9,21c-15.8,4.3-47.2,7.3-83.4,7.3s-67.6-2.9-83.4-7.3l-2.8-21H180.4z"/>
				<path class="st179" d="M180.4,117l-2.9,21c-15.8,4.3-47.2,7.3-83.4,7.3s-67.6-2.9-83.4-7.3l-2.8-21H180.4z"/>
				<path class="st180" d="M180.4,117l-2.9,21c-15.8,4.3-47.2,7.3-83.4,7.3s-67.6-2.9-83.4-7.3l-2.9-21H180.4z"/>
				<path class="st181" d="M180.4,117l-2.9,21c-15.8,4.3-47.2,7.3-83.4,7.3s-67.6-2.9-83.4-7.3l-2.9-21H180.4z"/>
				<path class="st182" d="M180.4,117l-2.9,21c-15.8,4.3-47.2,7.3-83.4,7.3s-67.6-2.9-83.4-7.3l-2.9-21H180.4z"/>
				<path class="st86" d="M180.4,117l-2.9,21c-15.8,4.3-47.2,7.3-83.4,7.3s-67.6-2.9-83.4-7.3l-2.9-21H180.4z"/>
				<path class="st87" d="M180.4,117l-2.9,21c-15.8,4.3-47.2,7.3-83.4,7.3s-67.6-2.9-83.4-7.3l-2.9-21H180.4z"/>
				<path class="st183" d="M180.4,117l-2.9,21c-15.8,4.3-47.2,7.3-83.4,7.3s-67.6-2.9-83.4-7.3l-2.9-21H180.4z"/>
				<path class="st184" d="M180.4,116.9l-2.9,21c-15.8,4.3-47.2,7.3-83.4,7.3s-67.6-2.9-83.4-7.3l-2.9-21H180.4z"/>
				<path class="st185" d="M180.4,116.9l-2.9,21c-15.8,4.3-47.2,7.3-83.4,7.3s-67.6-2.9-83.4-7.3l-2.9-21H180.4z"/>
				<path class="st186" d="M180.4,116.9l-2.9,21c-15.8,4.3-47.2,7.3-83.4,7.3s-67.6-2.9-83.4-7.3l-2.9-21H180.4z"/>
				<path class="st187" d="M180.4,116.9l-2.9,21c-15.8,4.3-47.2,7.3-83.4,7.3s-67.6-2.9-83.4-7.3l-2.9-21H180.4z"/>
				<path class="st188" d="M180.4,116.9l-2.9,21c-15.8,4.3-47.2,7.3-83.4,7.3s-67.6-2.9-83.4-7.3l-2.9-21H180.4z"/>
			</g>
			
				<linearGradient id="SVGID_3_" gradientUnits="userSpaceOnUse" x1="188.2993" y1="354.2347" x2="0" y2="354.2347" gradientTransform="matrix(1 0 0 1 0 -224)">
				<stop  offset="3.952570e-03" style="stop-color:#F2F2F2"/>
				<stop  offset="0.1277" style="stop-color:#F6F6F6"/>
				<stop  offset="0.2253" style="stop-color:#FFFFFF"/>
				<stop  offset="0.2951" style="stop-color:#FAFAFA"/>
				<stop  offset="0.5976" style="stop-color:#E8E8E8"/>
				<stop  offset="0.8182" style="stop-color:#E2E2E2"/>
				<stop  offset="0.9486" style="stop-color:#F2F2F2"/>
				<stop  offset="0.9744" style="stop-color:#EEEEEE"/>
				<stop  offset="1" style="stop-color:#E2E2E2"/>
			</linearGradient>
			<path class="st189" d="M0,116v14.7c0,7.5,42.1,13.6,94.1,13.6s94.1-6.1,94.1-13.6V116H0z"/>
			<ellipse class="st2" cx="94.1" cy="116" rx="94.1" ry="13.6"/>
			
				<linearGradient id="SVGID_4_" gradientUnits="userSpaceOnUse" x1="0" y1="339.4902" x2="188.2993" y2="339.4902" gradientTransform="matrix(1 0 0 1 0 -224)">
				<stop  offset="0" style="stop-color:#FAFAFA"/>
				<stop  offset="0.4309" style="stop-color:#F1F1F1"/>
				<stop  offset="1" style="stop-color:#EBEBEB"/>
			</linearGradient>
			<ellipse class="st190" cx="94.1" cy="115.5" rx="94.1" ry="13.6"/>
			
				<linearGradient id="SVGID_5_" gradientUnits="userSpaceOnUse" x1="55.488" y1="339.4902" x2="132.8565" y2="339.4902" gradientTransform="matrix(1 0 0 1 0 -224)">
				<stop  offset="0" style="stop-color:#D6D6D6"/>
				<stop  offset="6.860000e-02" style="stop-color:#D5D5D5"/>
				<stop  offset="1" style="stop-color:#CFCFCF"/>
			</linearGradient>
			<path class="st191" d="M132.9,115.5c0,3.1-17.3,5.6-38.6,5.6s-38.6-2.5-38.6-5.6s17.3-5.6,38.6-5.6S132.9,112.4,132.9,115.5z"/>
			
				<linearGradient id="SVGID_6_" gradientUnits="userSpaceOnUse" x1="55.488" y1="338.8612" x2="132.8565" y2="338.8612" gradientTransform="matrix(1 0 0 1 0 -224)">
				<stop  offset="0" style="stop-color:#FFFFFF"/>
				<stop  offset="1" style="stop-color:#FFFFFF"/>
			</linearGradient>
			<path class="st192" d="M132.9,114.9c0,3.1-17.3,5.6-38.6,5.6s-38.6-2.5-38.6-5.6s17.3-5.6,38.6-5.6S132.9,111.8,132.9,114.9z"/>
			
				<linearGradient id="SVGID_7_" gradientUnits="userSpaceOnUse" x1="55.488" y1="338.5118" x2="132.8565" y2="338.5118" gradientTransform="matrix(1 0 0 1 0 -224)">
				<stop  offset="0" style="stop-color:#FAFAFA"/>
				<stop  offset="0.4309" style="stop-color:#F1F1F1"/>
				<stop  offset="1" style="stop-color:#EBEBEB"/>
			</linearGradient>
			<path class="st193" d="M132.9,114.5c0,3.1-17.3,5.6-38.6,5.6s-38.6-2.5-38.6-5.6s17.3-5.6,38.6-5.6S132.9,111.4,132.9,114.5z"/>
		</g>
		<g>
			
				<linearGradient id="SVGID_8_" gradientUnits="userSpaceOnUse" x1="87.8135" y1="338.1624" x2="101.7569" y2="338.1624" gradientTransform="matrix(1 0 0 1 0 -224)">
				<stop  offset="0" style="stop-color:#D6D6D6"/>
				<stop  offset="6.860000e-02" style="stop-color:#D5D5D5"/>
				<stop  offset="1" style="stop-color:#CFCFCF"/>
			</linearGradient>
			<ellipse class="st194" cx="94.8" cy="114.2" rx="7" ry="1"/>
			
				<linearGradient id="SVGID_9_" gradientUnits="userSpaceOnUse" x1="116.0741" y1="293.1294" x2="95.2679" y2="289.3363" gradientTransform="matrix(1 0 0 1 0 -224)">
				<stop  offset="3.952570e-03" style="stop-color:#F2F2F2"/>
				<stop  offset="4.476997e-03" style="stop-color:#F2F2F2"/>
				<stop  offset="0.1283" style="stop-color:#FCFCFC"/>
				<stop  offset="0.2864" style="stop-color:#FFFFFF"/>
				<stop  offset="0.8086" style="stop-color:#E2E2E2"/>
				<stop  offset="0.9486" style="stop-color:#F2F2F2"/>
				<stop  offset="0.9744" style="stop-color:#EEEEEE"/>
				<stop  offset="1" style="stop-color:#E2E2E2"/>
			</linearGradient>
			<path class="st195" d="M125.6,20.7L105.1,100l-1.8,6.8l-1.8,7.1l0,0c0,0.6-3,1-6.7,1c-3.7,0-6.7-0.4-6.7-1l0,0l1.2-4.8l1.8-6.8
				l20.9-81.8L125.6,20.7z"/>
			
				<linearGradient id="SVGID_10_" gradientUnits="userSpaceOnUse" x1="103.6539" y1="329.8" x2="89.2705" y2="327.1776" gradientTransform="matrix(1 0 0 1 0 -224)">
				<stop  offset="1.770000e-02" style="stop-color:#E00E17"/>
				<stop  offset="0.581" style="stop-color:#AC0E17"/>
				<stop  offset="0.6727" style="stop-color:#B00E17"/>
				<stop  offset="0.7612" style="stop-color:#BB0E17"/>
				<stop  offset="0.8485" style="stop-color:#CF0E17"/>
				<stop  offset="0.9344" style="stop-color:#EA0E17"/>
				<stop  offset="0.9881" style="stop-color:#FF0E17"/>
			</linearGradient>
			<path class="st196" d="M105.1,100l-1.8,6.8l0,0c0,0-0.7,1-5.8,1.8c-6.2,1-8.3,0.6-8.3,0.6l1.7-6.4l0,0c2.5,0.3,10.7-0.1,14-2.3
				C105,100.4,105.1,100,105.1,100C105.2,100,105.1,100,105.1,100z"/>
			
				<linearGradient id="SVGID_11_" gradientUnits="userSpaceOnUse" x1="106.946" y1="317.15" x2="92.5626" y2="314.5277" gradientTransform="matrix(1 0 0 1 0 -224)">
				<stop  offset="1.770000e-02" style="stop-color:#E00E17"/>
				<stop  offset="0.581" style="stop-color:#AC0E17"/>
				<stop  offset="0.6727" style="stop-color:#B00E17"/>
				<stop  offset="0.7612" style="stop-color:#BB0E17"/>
				<stop  offset="0.8485" style="stop-color:#CF0E17"/>
				<stop  offset="0.9344" style="stop-color:#EA0E17"/>
				<stop  offset="0.9881" style="stop-color:#FF0E17"/>
			</linearGradient>
			<path class="st197" d="M108.4,87.4l-1.8,6.8l0,0c0,0-0.7,1-5.8,1.8c-6.2,1-8.3,0.6-8.3,0.6l1.7-6.4l0,0c2.5,0.3,10.7-0.1,14-2.3
				C108.3,87.7,108.4,87.4,108.4,87.4C108.5,87.4,108.4,87.4,108.4,87.4z"/>
			
				<linearGradient id="SVGID_12_" gradientUnits="userSpaceOnUse" x1="110.1451" y1="304.5537" x2="95.7598" y2="301.9311" gradientTransform="matrix(1 0 0 1 0 -224)">
				<stop  offset="1.770000e-02" style="stop-color:#E00E17"/>
				<stop  offset="0.581" style="stop-color:#AC0E17"/>
				<stop  offset="0.6727" style="stop-color:#B00E17"/>
				<stop  offset="0.7612" style="stop-color:#BB0E17"/>
				<stop  offset="0.8485" style="stop-color:#CF0E17"/>
				<stop  offset="0.9344" style="stop-color:#EA0E17"/>
				<stop  offset="0.9881" style="stop-color:#FF0E17"/>
			</linearGradient>
			<path class="st198" d="M111.6,74.8l-1.8,6.8l0,0c0,0-0.7,1-5.8,1.8c-6.2,1-8.3,0.6-8.3,0.6l1.7-6.4l0,0c2.5,0.3,10.7-0.1,14-2.3
				C111.6,75.2,111.6,74.8,111.6,74.8C111.7,74.8,111.6,74.8,111.6,74.8z"/>
			
				<linearGradient id="SVGID_13_" gradientUnits="userSpaceOnUse" x1="113.3386" y1="291.9756" x2="98.9539" y2="289.353" gradientTransform="matrix(1 0 0 1 0 -224)">
				<stop  offset="1.770000e-02" style="stop-color:#E00E17"/>
				<stop  offset="0.581" style="stop-color:#AC0E17"/>
				<stop  offset="0.6727" style="stop-color:#B00E17"/>
				<stop  offset="0.7612" style="stop-color:#BB0E17"/>
				<stop  offset="0.8485" style="stop-color:#CF0E17"/>
				<stop  offset="0.9344" style="stop-color:#EA0E17"/>
				<stop  offset="0.9881" style="stop-color:#FF0E17"/>
			</linearGradient>
			<path class="st199" d="M114.9,62.2l-1.8,6.8l0,0c0,0-0.7,1-5.8,1.8c-6.2,1-8.3,0.6-8.3,0.6l1.7-6.4l0,0c2.5,0.3,10.7-0.1,14-2.3
				C114.8,62.6,114.8,62.2,114.9,62.2C114.9,62.2,114.9,62.2,114.9,62.2z"/>
			
				<linearGradient id="SVGID_14_" gradientUnits="userSpaceOnUse" x1="116.5462" y1="279.3546" x2="102.1627" y2="276.7324" gradientTransform="matrix(1 0 0 1 0 -224)">
				<stop  offset="1.770000e-02" style="stop-color:#E00E17"/>
				<stop  offset="0.581" style="stop-color:#AC0E17"/>
				<stop  offset="0.6727" style="stop-color:#B00E17"/>
				<stop  offset="0.7612" style="stop-color:#BB0E17"/>
				<stop  offset="0.8485" style="stop-color:#CF0E17"/>
				<stop  offset="0.9344" style="stop-color:#EA0E17"/>
				<stop  offset="0.9881" style="stop-color:#FF0E17"/>
			</linearGradient>
			<path class="st200" d="M118,49.6l-1.8,6.8l0,0c0,0-0.7,1-5.8,1.8c-6.2,1-8.3,0.6-8.3,0.6l1.7-6.4l0,0c2.5,0.3,10.7-0.1,14-2.3
				C118,49.9,118,49.6,118,49.6C118.1,49.6,118,49.6,118,49.6z"/>
			
				<linearGradient id="SVGID_15_" gradientUnits="userSpaceOnUse" x1="119.822" y1="266.9682" x2="105.505" y2="264.358" gradientTransform="matrix(1 0 0 1 0 -224)">
				<stop  offset="1.770000e-02" style="stop-color:#E00E17"/>
				<stop  offset="0.581" style="stop-color:#AC0E17"/>
				<stop  offset="0.6727" style="stop-color:#B00E17"/>
				<stop  offset="0.7612" style="stop-color:#BB0E17"/>
				<stop  offset="0.8485" style="stop-color:#CF0E17"/>
				<stop  offset="0.9344" style="stop-color:#EA0E17"/>
				<stop  offset="0.9881" style="stop-color:#FF0E17"/>
			</linearGradient>
			<path class="st201" d="M119.7,43.8L119.7,43.8c0,0-0.7,1-5.8,1.8c-6.2,1-8.3,0.6-8.3,0.6l1.7-6.4l0,0c2.5,0.3,10.7-0.1,14-2.3
				C121.4,37.4,119.7,43.8,119.7,43.8z"/>
			
				<linearGradient id="SVGID_16_" gradientUnits="userSpaceOnUse" x1="123.0967" y1="254.3318" x2="108.7847" y2="251.7225" gradientTransform="matrix(1 0 0 1 0 -224)">
				<stop  offset="1.770000e-02" style="stop-color:#E00E17"/>
				<stop  offset="0.581" style="stop-color:#AC0E17"/>
				<stop  offset="0.6727" style="stop-color:#B00E17"/>
				<stop  offset="0.7612" style="stop-color:#BB0E17"/>
				<stop  offset="0.8485" style="stop-color:#CF0E17"/>
				<stop  offset="0.9344" style="stop-color:#EA0E17"/>
				<stop  offset="0.9881" style="stop-color:#FF0E17"/>
			</linearGradient>
			<path class="st202" d="M122.9,31.1L122.9,31.1c0,0-0.7,1-5.8,1.8c-6.2,1-8.3,0.6-8.3,0.6l1.7-6.4l0,0c2.5,0.3,10.7-0.1,14-2.3
				C124.6,24.8,122.9,31.1,122.9,31.1z"/>
			
				<linearGradient id="SVGID_17_" gradientUnits="userSpaceOnUse" x1="139.9668" y1="505.1832" x2="170.4238" y2="505.6799" gradientTransform="matrix(0.9869 0.1616 -0.1441 0.88 26.1971 -402.3671)">
				<stop  offset="0.1858" style="stop-color:#FFFFFF;stop-opacity:0"/>
				<stop  offset="0.6587" style="stop-color:#FFFFFF;stop-opacity:0.3446"/>
				<stop  offset="0.7347" style="stop-color:#FFFFFF;stop-opacity:0.4"/>
				<stop  offset="0.8083" style="stop-color:#FDFCFC;stop-opacity:0.289"/>
				<stop  offset="0.8531" style="stop-color:#F4F4F4;stop-opacity:0.2214"/>
				<stop  offset="0.8902" style="stop-color:#E6E6E6;stop-opacity:0.1655"/>
				<stop  offset="0.9231" style="stop-color:#D2D2D1;stop-opacity:0.1159"/>
				<stop  offset="0.9532" style="stop-color:#B8B8B7;stop-opacity:7.050000e-02"/>
				<stop  offset="0.9809" style="stop-color:#999897;stop-opacity:2.880000e-02"/>
				<stop  offset="1" style="stop-color:#7F7E7C;stop-opacity:0"/>
			</linearGradient>
			<path class="st203" d="M125.6,20.7l-24,93.2c-1.7,1.7-9.1,0.3-13.4,0.6l23.9-93.8L125.6,20.7z"/>
			
				<linearGradient id="SVGID_18_" gradientUnits="userSpaceOnUse" x1="112.1317" y1="244.7339" x2="125.563" y2="244.7339" gradientTransform="matrix(1 0 0 1 0 -224)">
				<stop  offset="0" style="stop-color:#FAFAFA"/>
				<stop  offset="9.760001e-02" style="stop-color:#F6F6F6"/>
				<stop  offset="0.6195" style="stop-color:#E4E4E4"/>
				<stop  offset="1" style="stop-color:#DEDEDE"/>
			</linearGradient>
			<path class="st204" d="M125.6,20.7c0,0.6-3,1-6.7,1c-3.7,0-6.7-0.4-6.7-1c0-0.6,3-1,6.7-1C122.5,19.8,125.6,20.2,125.6,20.7z"/>
		</g>
	</g>
</g>
</svg>
